<svg viewBox="0 0 356 498" fill="#c7ef66" xmlns="http://www.w3.org/2000/svg">
  <path d="M332.246 0C337.916 2.57582 344.353 5.09647 350.152 7.50098L350.219 175.311L264.119 261.425C239.174 286.35 212.732 311.984 188.352 337.283L188.366 446.185L167.229 446.189L167.234 337.016L70.3408 240.164C48.8402 218.667 26.6424 196.931 5.48145 175.157L5.47754 7.57422L23.2266 0.142578C26.0276 1.65322 48.3821 24.9016 51.7275 28.248L139.015 115.61C163.68 116.001 191.988 116.02 216.617 115.554L332.246 0ZM299.453 62.7979L235.921 126.286L294.146 184.479L279.149 199.491L216.574 136.908L139.262 136.896C132.351 143.047 123.697 152.191 116.979 158.916L76.5518 199.39L61.542 184.418C80.7979 165.169 100.258 145.28 119.718 126.309L55.6074 62.1934L36.3906 42.9111C34.3994 40.9123 28.7688 35.0433 26.7412 33.4492L26.6797 121.002C26.6802 135.294 26.2246 152.367 26.75 166.473L112.493 252.309C133.986 273.799 156.086 296.567 177.872 317.631L276.628 218.89C293.907 201.615 312.187 183.883 329.04 166.379L329.045 33.1787L299.453 62.7979Z"/>
  <path d="M296.486 284.996C301.401 289.59 306.75 295.193 311.569 299.998L296.362 315.176L254.348 357.132C251.228 360.243 237.634 373.383 235.657 376.326L235.705 439.71C229.48 446.471 221.843 453.764 215.239 460.367L177.795 497.869C160.232 479.049 138.408 458.487 120.007 439.939C120.466 419.143 120.135 396.825 120.062 375.967L44.0923 299.988L58.9196 285.178C61.9045 286.915 77.7185 303.62 80.8413 306.749L141.302 367.2L141.338 431.302C152.972 443.437 165.912 455.908 177.867 467.823C189.816 455.515 202.348 443.241 214.493 431.092L214.512 367.085C223.111 357.946 233.437 348.079 242.385 339.131L296.486 284.996Z"/>
  <path d="M324.92 214.841C326.24 215.696 333.064 222.732 334.72 224.399L355.77 245.442L355.751 333.02L271.436 417.402L267.187 413.239L256.425 402.467C274.776 383.135 295.099 364.239 313.727 345.055C320.546 338.035 327.944 331.231 334.595 324.067C334.222 301.079 334.504 277.316 334.509 254.271L309.985 229.692L324.92 214.841Z"/>
  <path d="M30.7269 214.843C34.846 218.322 41.7122 225.63 45.7514 229.677C39.7599 236.61 28.2602 247.136 21.2762 254.314L21.2657 324.421L99.2456 402.414L88.7761 412.817L84.3374 417.425C56.1768 390.112 27.8152 361.003 0.0153333 333.173C0.32254 304.247 0.154082 274.445 0 245.519L30.7269 214.843Z"/>
</svg>
