<svg width="393" height="852" viewBox="0 0 393 852" fill="none" xmlns="http://www.w3.org/2000/svg" xmlns:xlink="http://www.w3.org/1999/xlink">
<g clip-path="url(#clip0_31_7633)">
<rect width="393" height="852" fill="#C7EF66"></rect>
<rect x="-19" y="51" width="432" height="534" fill="url(#pattern0_31_7633)"></rect>
<path d="M38.8672 35.2122C41.5552 35.2122 43.1519 33.1101 43.1519 29.5505C43.1519 28.2102 42.8955 27.0823 42.4048 26.2107C41.6943 24.8557 40.4712 24.1233 38.9258 24.1233C36.626 24.1233 35 25.6687 35 27.8367C35 29.8728 36.4648 31.3523 38.479 31.3523C39.7168 31.3523 40.7202 30.7737 41.2183 29.7703H41.2402C41.2402 29.7703 41.2695 29.7703 41.2769 29.7703C41.2915 29.7703 41.3428 29.7703 41.3428 29.7703C41.3428 32.1873 40.4272 33.6301 38.8818 33.6301C37.9736 33.6301 37.2705 33.1321 37.0288 32.3337H35.1465C35.4614 34.0696 36.9336 35.2122 38.8672 35.2122ZM38.9331 29.8508C37.7173 29.8508 36.853 28.9866 36.853 27.7781C36.853 26.5989 37.7612 25.698 38.9404 25.698C40.1196 25.698 41.0278 26.6135 41.0278 27.8074C41.0278 28.9866 40.1416 29.8508 38.9331 29.8508Z" fill="black"></path>
<path d="M46.243 35.1096C46.9388 35.1096 47.4148 34.6116 47.4148 33.9524C47.4148 33.2859 46.9388 32.7952 46.243 32.7952C45.5545 32.7952 45.0711 33.2859 45.0711 33.9524C45.0711 34.6116 45.5545 35.1096 46.243 35.1096ZM46.243 29.6165C46.9388 29.6165 47.4148 29.1257 47.4148 28.4666C47.4148 27.8 46.9388 27.3093 46.243 27.3093C45.5545 27.3093 45.0711 27.8 45.0711 28.4666C45.0711 29.1257 45.5545 29.6165 46.243 29.6165Z" fill="black"></path>
<path d="M54.2706 34.9558H56.0797V32.9856H57.5079V31.3889H56.0797V24.387H53.4137C51.546 27.1995 50.0592 29.5505 49.107 31.301V32.9856H54.2706V34.9558ZM50.8575 31.323C52.088 29.155 53.1866 27.4192 54.1974 25.925H54.2999V31.4329H50.8575V31.323Z" fill="black"></path>
<path d="M61.5365 34.9558H63.4262V24.387H61.5438L58.7826 26.3206V28.137L61.412 26.2913H61.5365V34.9558Z" fill="black"></path>
<path opacity="0.35" d="M336.339 24.5027H353.005C354.201 24.5027 355.172 25.4731 355.172 26.6697V32.6697C355.172 33.8661 354.201 34.8357 353.005 34.8357H336.339C335.142 34.8357 334.172 33.8661 334.172 32.6697V26.6697L334.183 26.448C334.293 25.3553 335.217 24.5027 336.339 24.5027Z" stroke="black"></path>
<path opacity="0.4" d="M356.672 27.6694V31.6694C357.477 31.3307 358 30.5426 358 29.6694C358 28.7963 357.477 28.0082 356.672 27.6694Z" fill="black"></path>
<path d="M335.672 27.336C335.672 26.5996 336.269 26.0027 337.005 26.0027H352.339C353.075 26.0027 353.672 26.5996 353.672 27.336V32.0027C353.672 32.7391 353.075 33.336 352.339 33.336H337.005C336.269 33.336 335.672 32.7391 335.672 32.0027V27.336Z" fill="black"></path>
<path d="M318.793 32.4006C320.069 31.3218 321.936 31.3218 323.212 32.4006C323.276 32.4587 323.314 32.5407 323.315 32.6272C323.317 32.7136 323.283 32.7971 323.222 32.8577L321.224 34.8733C321.165 34.9323 321.085 34.9661 321.002 34.9661C320.919 34.9659 320.839 34.9324 320.78 34.8733L318.783 32.8577C318.722 32.7971 318.688 32.7136 318.689 32.6272C318.691 32.5407 318.729 32.4586 318.793 32.4006ZM316.127 29.7112C318.875 27.1548 323.132 27.1549 325.88 29.7112C325.942 29.771 325.978 29.8535 325.979 29.9397C325.979 30.0258 325.945 30.109 325.885 30.1702L324.729 31.3371C324.611 31.4561 324.419 31.4586 324.297 31.343C323.394 30.5258 322.219 30.0734 321.002 30.0735C319.785 30.0741 318.613 30.5265 317.711 31.343C317.589 31.459 317.396 31.4563 317.277 31.3371L316.123 30.1702C316.062 30.1091 316.028 30.0259 316.029 29.9397C316.03 29.8536 316.065 29.771 316.127 29.7112ZM313.462 27.0295C317.677 22.9901 324.327 22.9902 328.542 27.0295C328.603 27.0895 328.637 27.1716 328.638 27.2571C328.638 27.3425 328.605 27.4249 328.545 27.4856L327.389 28.6526C327.27 28.7722 327.076 28.7734 326.955 28.6555C325.349 27.1289 323.218 26.2777 321.002 26.2776C318.786 26.2777 316.655 27.1288 315.049 28.6555C314.928 28.7736 314.734 28.7725 314.615 28.6526L313.459 27.4856C313.399 27.4248 313.366 27.3426 313.366 27.2571C313.367 27.1715 313.401 27.0895 313.462 27.0295Z" fill="black"></path>
<path d="M293.338 31.0029C293.89 31.0029 294.338 31.4506 294.338 32.0029V34.0029C294.338 34.5551 293.89 35.0029 293.338 35.0029H292.338C291.786 35.0027 291.338 34.5549 291.338 34.0029V32.0029C291.338 31.4508 291.786 31.0032 292.338 31.0029H293.338ZM298.005 29.0029C298.557 29.0029 299.005 29.4506 299.005 30.0029V34.0029C299.005 34.5551 298.557 35.0029 298.005 35.0029H297.005C296.453 35.0029 296.005 34.555 296.005 34.0029V30.0029C296.005 29.4507 296.453 29.003 297.005 29.0029H298.005ZM302.672 26.6689C303.224 26.6691 303.672 27.1169 303.672 27.6689V34.0029C303.672 34.555 303.224 35.0028 302.672 35.0029H301.672C301.12 35.0029 300.672 34.5551 300.672 34.0029V27.6689C300.672 27.1168 301.12 26.6689 301.672 26.6689H302.672ZM307.338 24.3359C307.89 24.3359 308.338 24.7837 308.338 25.3359V34.0029C308.338 34.5551 307.89 35.0029 307.338 35.0029H306.338C305.786 35.0027 305.338 34.5549 305.338 34.0029V25.3359C305.338 24.7838 305.786 24.3362 306.338 24.3359H307.338Z" fill="black"></path>
<path d="M0 367C0 360.373 5.37258 355 12 355H381C387.627 355 393 360.373 393 367V852H0V367Z" fill="#1A1A1A"></path>
<path d="M87.8999 419C89.3666 419 90.5666 417.8 90.5666 416.333C90.5666 414.867 89.3666 413.667 87.8999 413.667C86.4333 413.667 85.2333 414.867 85.2333 416.333C85.2333 417.8 86.4333 419 87.8999 419ZM83.0999 437.533L84.4333 431.667L87.2333 434.333V442.333H89.8999V432.333L87.0999 429.667L87.8999 425.667C89.6333 427.667 92.2999 429 95.2333 429V426.333C92.6999 426.333 90.5666 425 89.4999 423.133L88.1666 421C87.6333 420.2 86.8333 419.667 85.8999 419.667C85.4999 419.667 85.2333 419.8 84.8333 419.8L77.8999 422.733V429H80.5666V424.467L82.9666 423.533L80.8333 434.333L74.2999 433L73.7666 435.667L83.0999 437.533Z" fill="#C7EF66"></path>
<path d="M111.229 438L117.397 420.12H121.621L127.789 438H124.237L122.965 434.16H116.053L114.757 438H111.229ZM116.989 431.28H122.029L119.053 422.376H119.965L116.989 431.28ZM134.74 438.144C133.268 438.144 132.124 437.744 131.308 436.944C130.508 436.128 130.108 434.984 130.108 433.512V427.752H127.852V424.944H128.092C128.732 424.944 129.228 424.776 129.58 424.44C129.932 424.104 130.108 423.616 130.108 422.976V421.968H133.252V424.944H136.252V427.752H133.252V433.344C133.252 433.776 133.324 434.144 133.468 434.448C133.628 434.752 133.868 434.984 134.188 435.144C134.524 435.304 134.948 435.384 135.46 435.384C135.572 435.384 135.7 435.376 135.844 435.36C136.004 435.344 136.156 435.328 136.3 435.312V438C136.076 438.032 135.82 438.064 135.532 438.096C135.244 438.128 134.98 438.144 134.74 438.144ZM138.702 438V419.832H141.846V438H138.702ZM150.941 438.288C149.597 438.288 148.421 437.984 147.413 437.376C146.405 436.768 145.621 435.944 145.061 434.904C144.501 433.864 144.221 432.712 144.221 431.448C144.221 430.136 144.501 428.976 145.061 427.968C145.637 426.944 146.413 426.136 147.389 425.544C148.381 424.952 149.485 424.656 150.701 424.656C151.725 424.656 152.621 424.824 153.389 425.16C154.173 425.496 154.837 425.96 155.381 426.552C155.925 427.144 156.341 427.824 156.629 428.592C156.917 429.344 157.061 430.16 157.061 431.04C157.061 431.264 157.045 431.496 157.013 431.736C156.997 431.976 156.957 432.184 156.893 432.36H146.813V429.96H155.117L153.629 431.088C153.773 430.352 153.733 429.696 153.509 429.12C153.301 428.544 152.949 428.088 152.453 427.752C151.973 427.416 151.389 427.248 150.701 427.248C150.045 427.248 149.461 427.416 148.949 427.752C148.437 428.072 148.045 428.552 147.773 429.192C147.517 429.816 147.421 430.576 147.485 431.472C147.421 432.272 147.525 432.984 147.797 433.608C148.085 434.216 148.501 434.688 149.045 435.024C149.605 435.36 150.245 435.528 150.965 435.528C151.685 435.528 152.293 435.376 152.789 435.072C153.301 434.768 153.701 434.36 153.989 433.848L156.533 435.096C156.277 435.72 155.877 436.272 155.333 436.752C154.789 437.232 154.141 437.608 153.389 437.88C152.653 438.152 151.837 438.288 150.941 438.288ZM165.396 438.144C163.924 438.144 162.78 437.744 161.964 436.944C161.164 436.128 160.764 434.984 160.764 433.512V427.752H158.508V424.944H158.748C159.388 424.944 159.884 424.776 160.236 424.44C160.588 424.104 160.764 423.616 160.764 422.976V421.968H163.908V424.944H166.908V427.752H163.908V433.344C163.908 433.776 163.98 434.144 164.124 434.448C164.284 434.752 164.524 434.984 164.844 435.144C165.18 435.304 165.604 435.384 166.116 435.384C166.228 435.384 166.356 435.376 166.5 435.36C166.66 435.344 166.812 435.328 166.956 435.312V438C166.732 438.032 166.476 438.064 166.188 438.096C165.9 438.128 165.636 438.144 165.396 438.144ZM173.272 438.288C172.36 438.288 171.568 438.136 170.896 437.832C170.224 437.528 169.704 437.096 169.336 436.536C168.968 435.96 168.784 435.296 168.784 434.544C168.784 433.824 168.944 433.184 169.264 432.624C169.584 432.048 170.08 431.568 170.752 431.184C171.424 430.8 172.272 430.528 173.296 430.368L177.568 429.672V432.072L173.896 432.696C173.272 432.808 172.808 433.008 172.504 433.296C172.2 433.584 172.048 433.96 172.048 434.424C172.048 434.872 172.216 435.232 172.552 435.504C172.904 435.76 173.336 435.888 173.848 435.888C174.504 435.888 175.08 435.752 175.576 435.48C176.088 435.192 176.48 434.8 176.752 434.304C177.04 433.808 177.184 433.264 177.184 432.672V429.312C177.184 428.752 176.96 428.288 176.512 427.92C176.08 427.536 175.504 427.344 174.784 427.344C174.112 427.344 173.512 427.528 172.984 427.896C172.472 428.248 172.096 428.72 171.856 429.312L169.288 428.064C169.544 427.376 169.944 426.784 170.488 426.288C171.048 425.776 171.704 425.376 172.456 425.088C173.208 424.8 174.024 424.656 174.904 424.656C175.976 424.656 176.92 424.856 177.736 425.256C178.552 425.64 179.184 426.184 179.632 426.888C180.096 427.576 180.328 428.384 180.328 429.312V438H177.352V435.768L178.024 435.72C177.688 436.28 177.288 436.752 176.824 437.136C176.36 437.504 175.832 437.792 175.24 438C174.648 438.192 173.992 438.288 173.272 438.288ZM193.691 438.288C192.347 438.288 191.171 437.984 190.163 437.376C189.155 436.768 188.371 435.944 187.811 434.904C187.251 433.864 186.971 432.712 186.971 431.448C186.971 430.136 187.251 428.976 187.811 427.968C188.387 426.944 189.163 426.136 190.139 425.544C191.131 424.952 192.235 424.656 193.451 424.656C194.475 424.656 195.371 424.824 196.139 425.16C196.923 425.496 197.587 425.96 198.131 426.552C198.675 427.144 199.091 427.824 199.379 428.592C199.667 429.344 199.811 430.16 199.811 431.04C199.811 431.264 199.795 431.496 199.763 431.736C199.747 431.976 199.707 432.184 199.643 432.36H189.563V429.96H197.867L196.379 431.088C196.523 430.352 196.483 429.696 196.259 429.12C196.051 428.544 195.699 428.088 195.203 427.752C194.723 427.416 194.139 427.248 193.451 427.248C192.795 427.248 192.211 427.416 191.699 427.752C191.187 428.072 190.795 428.552 190.523 429.192C190.267 429.816 190.171 430.576 190.235 431.472C190.171 432.272 190.275 432.984 190.547 433.608C190.835 434.216 191.251 434.688 191.795 435.024C192.355 435.36 192.995 435.528 193.715 435.528C194.435 435.528 195.043 435.376 195.539 435.072C196.051 434.768 196.451 434.36 196.739 433.848L199.283 435.096C199.027 435.72 198.627 436.272 198.083 436.752C197.539 437.232 196.891 437.608 196.139 437.88C195.403 438.152 194.587 438.288 193.691 438.288ZM202.194 438V424.944H205.146V427.512L204.906 427.056C205.21 426.272 205.706 425.68 206.394 425.28C207.098 424.864 207.914 424.656 208.842 424.656C209.802 424.656 210.65 424.864 211.386 425.28C212.138 425.696 212.722 426.28 213.138 427.032C213.554 427.768 213.762 428.624 213.762 429.6V438H210.618V430.344C210.618 429.768 210.506 429.272 210.282 428.856C210.058 428.44 209.746 428.12 209.346 427.896C208.962 427.656 208.506 427.536 207.978 427.536C207.466 427.536 207.01 427.656 206.61 427.896C206.21 428.12 205.898 428.44 205.674 428.856C205.45 429.272 205.338 429.768 205.338 430.344V438H202.194ZM222.709 438.288C221.413 438.288 220.245 437.992 219.205 437.4C218.181 436.792 217.373 435.976 216.781 434.952C216.189 433.912 215.893 432.744 215.893 431.448C215.893 430.152 216.189 428.992 216.781 427.968C217.373 426.944 218.181 426.136 219.205 425.544C220.245 424.952 221.413 424.656 222.709 424.656C223.637 424.656 224.501 424.824 225.301 425.16C226.101 425.48 226.789 425.928 227.365 426.504C227.957 427.064 228.381 427.736 228.637 428.52L225.877 429.72C225.637 429.064 225.229 428.536 224.653 428.136C224.093 427.736 223.445 427.536 222.709 427.536C222.021 427.536 221.405 427.704 220.861 428.04C220.333 428.376 219.917 428.84 219.613 429.432C219.309 430.024 219.157 430.704 219.157 431.472C219.157 432.24 219.309 432.92 219.613 433.512C219.917 434.104 220.333 434.568 220.861 434.904C221.405 435.24 222.021 435.408 222.709 435.408C223.461 435.408 224.117 435.208 224.677 434.808C225.237 434.408 225.637 433.872 225.877 433.2L228.637 434.448C228.381 435.184 227.965 435.848 227.389 436.44C226.813 437.016 226.125 437.472 225.325 437.808C224.525 438.128 223.653 438.288 222.709 438.288ZM237.407 438.288C236.127 438.288 234.959 437.992 233.903 437.4C232.863 436.808 232.031 436 231.407 434.976C230.799 433.952 230.495 432.784 230.495 431.472C230.495 430.16 230.799 428.992 231.407 427.968C232.031 426.944 232.863 426.136 233.903 425.544C234.943 424.952 236.111 424.656 237.407 424.656C238.687 424.656 239.847 424.952 240.887 425.544C241.927 426.136 242.751 426.944 243.359 427.968C243.983 428.976 244.295 430.144 244.295 431.472C244.295 432.784 243.983 433.952 243.359 434.976C242.735 436 241.903 436.808 240.863 437.4C239.823 437.992 238.671 438.288 237.407 438.288ZM237.407 435.408C238.111 435.408 238.727 435.24 239.255 434.904C239.799 434.568 240.223 434.104 240.527 433.512C240.847 432.904 241.007 432.224 241.007 431.472C241.007 430.704 240.847 430.032 240.527 429.456C240.223 428.864 239.799 428.4 239.255 428.064C238.727 427.712 238.111 427.536 237.407 427.536C236.687 427.536 236.055 427.712 235.511 428.064C234.967 428.4 234.535 428.864 234.215 429.456C233.911 430.032 233.759 430.704 233.759 431.472C233.759 432.224 233.911 432.904 234.215 433.512C234.535 434.104 234.967 434.568 235.511 434.904C236.055 435.24 236.687 435.408 237.407 435.408ZM246.679 438V424.944H249.631V427.512L249.391 427.056C249.695 426.272 250.191 425.68 250.879 425.28C251.583 424.864 252.399 424.656 253.327 424.656C254.287 424.656 255.135 424.864 255.871 425.28C256.623 425.696 257.207 426.28 257.623 427.032C258.039 427.768 258.247 428.624 258.247 429.6V438H255.103V430.344C255.103 429.768 254.991 429.272 254.767 428.856C254.543 428.44 254.231 428.12 253.831 427.896C253.447 427.656 252.991 427.536 252.463 427.536C251.951 427.536 251.495 427.656 251.095 427.896C250.695 428.12 250.383 428.44 250.159 428.856C249.935 429.272 249.823 429.768 249.823 430.344V438H246.679ZM266.857 438.144C265.385 438.144 264.241 437.744 263.425 436.944C262.625 436.128 262.225 434.984 262.225 433.512V427.752H259.969V424.944H260.209C260.849 424.944 261.345 424.776 261.697 424.44C262.049 424.104 262.225 423.616 262.225 422.976V421.968H265.369V424.944H268.369V427.752H265.369V433.344C265.369 433.776 265.441 434.144 265.585 434.448C265.745 434.752 265.985 434.984 266.305 435.144C266.641 435.304 267.065 435.384 267.577 435.384C267.689 435.384 267.817 435.376 267.961 435.36C268.121 435.344 268.273 435.328 268.417 435.312V438C268.193 438.032 267.937 438.064 267.649 438.096C267.361 438.128 267.097 438.144 266.857 438.144ZM270.819 438V424.944H273.771V427.848L273.531 427.416C273.835 426.44 274.307 425.76 274.947 425.376C275.603 424.992 276.387 424.8 277.299 424.8H278.067V427.584H276.939C276.043 427.584 275.323 427.864 274.779 428.424C274.235 428.968 273.963 429.736 273.963 430.728V438H270.819ZM283.756 438.288C282.844 438.288 282.052 438.136 281.38 437.832C280.708 437.528 280.188 437.096 279.82 436.536C279.452 435.96 279.268 435.296 279.268 434.544C279.268 433.824 279.428 433.184 279.748 432.624C280.068 432.048 280.564 431.568 281.236 431.184C281.908 430.8 282.756 430.528 283.78 430.368L288.052 429.672V432.072L284.38 432.696C283.756 432.808 283.292 433.008 282.988 433.296C282.684 433.584 282.532 433.96 282.532 434.424C282.532 434.872 282.7 435.232 283.036 435.504C283.388 435.76 283.82 435.888 284.332 435.888C284.988 435.888 285.564 435.752 286.06 435.48C286.572 435.192 286.964 434.8 287.236 434.304C287.524 433.808 287.668 433.264 287.668 432.672V429.312C287.668 428.752 287.444 428.288 286.996 427.92C286.564 427.536 285.988 427.344 285.268 427.344C284.596 427.344 283.996 427.528 283.468 427.896C282.956 428.248 282.58 428.72 282.34 429.312L279.772 428.064C280.028 427.376 280.428 426.784 280.972 426.288C281.532 425.776 282.188 425.376 282.94 425.088C283.692 424.8 284.508 424.656 285.388 424.656C286.46 424.656 287.404 424.856 288.22 425.256C289.036 425.64 289.668 426.184 290.116 426.888C290.58 427.576 290.812 428.384 290.812 429.312V438H287.836V435.768L288.508 435.72C288.172 436.28 287.772 436.752 287.308 437.136C286.844 437.504 286.316 437.792 285.724 438C285.132 438.192 284.476 438.288 283.756 438.288ZM299.79 438.288C298.526 438.288 297.398 437.992 296.406 437.4C295.414 436.792 294.63 435.968 294.054 434.928C293.478 433.888 293.19 432.736 293.19 431.472C293.19 430.192 293.478 429.04 294.054 428.016C294.63 426.992 295.414 426.176 296.406 425.568C297.414 424.96 298.534 424.656 299.766 424.656C300.758 424.656 301.638 424.856 302.406 425.256C303.19 425.64 303.806 426.184 304.254 426.888L303.774 427.536V419.832H306.918V438H303.942V435.48L304.278 436.104C303.83 436.808 303.206 437.352 302.406 437.736C301.606 438.104 300.734 438.288 299.79 438.288ZM300.126 435.408C300.846 435.408 301.478 435.24 302.022 434.904C302.566 434.568 302.99 434.104 303.294 433.512C303.614 432.92 303.774 432.24 303.774 431.472C303.774 430.72 303.614 430.048 303.294 429.456C302.99 428.848 302.566 428.376 302.022 428.04C301.478 427.704 300.846 427.536 300.126 427.536C299.422 427.536 298.79 427.712 298.23 428.064C297.67 428.4 297.23 428.864 296.91 429.456C296.606 430.032 296.454 430.704 296.454 431.472C296.454 432.24 296.606 432.92 296.91 433.512C297.23 434.104 297.67 434.568 298.23 434.904C298.79 435.24 299.422 435.408 300.126 435.408ZM316.227 438.288C314.947 438.288 313.779 437.992 312.723 437.4C311.683 436.808 310.851 436 310.227 434.976C309.619 433.952 309.315 432.784 309.315 431.472C309.315 430.16 309.619 428.992 310.227 427.968C310.851 426.944 311.683 426.136 312.723 425.544C313.763 424.952 314.931 424.656 316.227 424.656C317.507 424.656 318.667 424.952 319.707 425.544C320.747 426.136 321.571 426.944 322.179 427.968C322.803 428.976 323.115 430.144 323.115 431.472C323.115 432.784 322.803 433.952 322.179 434.976C321.555 436 320.723 436.808 319.683 437.4C318.643 437.992 317.491 438.288 316.227 438.288ZM316.227 435.408C316.931 435.408 317.547 435.24 318.075 434.904C318.619 434.568 319.043 434.104 319.347 433.512C319.667 432.904 319.827 432.224 319.827 431.472C319.827 430.704 319.667 430.032 319.347 429.456C319.043 428.864 318.619 428.4 318.075 428.064C317.547 427.712 316.931 427.536 316.227 427.536C315.507 427.536 314.875 427.712 314.331 428.064C313.787 428.4 313.355 428.864 313.035 429.456C312.731 430.032 312.579 430.704 312.579 431.472C312.579 432.224 312.731 432.904 313.035 433.512C313.355 434.104 313.787 434.568 314.331 434.904C314.875 435.24 315.507 435.408 316.227 435.408Z" fill="white"></path>
<path d="M94.7544 472.168C94.0264 472.168 93.3451 472.037 92.7104 471.776C92.0851 471.505 91.5344 471.132 91.0584 470.656C90.5824 470.171 90.2091 469.601 89.9384 468.948C89.6677 468.285 89.5324 467.562 89.5324 466.778C89.5324 465.994 89.6677 465.275 89.9384 464.622C90.2091 463.959 90.5824 463.39 91.0584 462.914C91.5344 462.429 92.0851 462.055 92.7104 461.794C93.3451 461.533 94.0264 461.402 94.7544 461.402C95.4824 461.402 96.1591 461.537 96.7844 461.808C97.4191 462.069 97.9744 462.443 98.4504 462.928C98.9264 463.404 99.2997 463.969 99.5704 464.622C99.8411 465.275 99.9764 465.994 99.9764 466.778C99.9764 467.562 99.8411 468.285 99.5704 468.948C99.2997 469.601 98.9264 470.171 98.4504 470.656C97.9744 471.132 97.4191 471.505 96.7844 471.776C96.1591 472.037 95.4824 472.168 94.7544 472.168ZM94.7544 471.118C95.3611 471.118 95.9117 471.006 96.4064 470.782C96.9104 470.558 97.3444 470.245 97.7084 469.844C98.0724 469.443 98.3524 468.981 98.5484 468.458C98.7537 467.935 98.8564 467.375 98.8564 466.778C98.8564 466.19 98.7537 465.635 98.5484 465.112C98.3524 464.589 98.0724 464.127 97.7084 463.726C97.3444 463.325 96.9104 463.012 96.4064 462.788C95.9117 462.564 95.3611 462.452 94.7544 462.452C94.1477 462.452 93.5924 462.564 93.0884 462.788C92.5937 463.012 92.1644 463.325 91.8004 463.726C91.4364 464.127 91.1517 464.589 90.9464 465.112C90.7504 465.635 90.6524 466.19 90.6524 466.778C90.6524 467.375 90.7504 467.935 90.9464 468.458C91.1517 468.981 91.4364 469.443 91.8004 469.844C92.1644 470.245 92.5984 470.558 93.1024 470.782C93.6064 471.006 94.1571 471.118 94.7544 471.118ZM97.7644 473.26L94.0544 467.828H95.3284L99.0384 473.26H97.7644ZM104.637 472.168C104.115 472.168 103.639 472.047 103.209 471.804C102.78 471.552 102.439 471.207 102.187 470.768C101.945 470.32 101.823 469.807 101.823 469.228V464.496H102.873V469.102C102.873 469.503 102.953 469.858 103.111 470.166C103.279 470.465 103.508 470.698 103.797 470.866C104.096 471.034 104.437 471.118 104.819 471.118C105.202 471.118 105.543 471.034 105.841 470.866C106.14 470.689 106.373 470.441 106.541 470.124C106.709 469.797 106.793 469.41 106.793 468.962V464.496H107.843V472H106.793V470.544L107.031 470.6C106.854 471.085 106.551 471.468 106.121 471.748C105.692 472.028 105.197 472.168 104.637 472.168ZM112.173 472.168C111.697 472.168 111.272 472.079 110.899 471.902C110.525 471.715 110.231 471.463 110.017 471.146C109.802 470.829 109.695 470.465 109.695 470.054C109.695 469.662 109.779 469.307 109.947 468.99C110.115 468.663 110.376 468.388 110.731 468.164C111.085 467.94 111.538 467.781 112.089 467.688L115.029 467.198V468.15L112.341 468.598C111.799 468.691 111.407 468.864 111.165 469.116C110.931 469.368 110.815 469.667 110.815 470.012C110.815 470.348 110.945 470.633 111.207 470.866C111.477 471.099 111.823 471.216 112.243 471.216C112.756 471.216 113.204 471.109 113.587 470.894C113.969 470.67 114.268 470.371 114.483 469.998C114.697 469.625 114.805 469.209 114.805 468.752V466.848C114.805 466.4 114.641 466.036 114.315 465.756C113.988 465.476 113.563 465.336 113.041 465.336C112.583 465.336 112.182 465.453 111.837 465.686C111.491 465.91 111.235 466.204 111.067 466.568L110.115 466.05C110.255 465.733 110.474 465.443 110.773 465.182C111.081 464.921 111.431 464.715 111.823 464.566C112.215 464.407 112.621 464.328 113.041 464.328C113.591 464.328 114.077 464.435 114.497 464.65C114.926 464.865 115.257 465.163 115.491 465.546C115.733 465.919 115.855 466.353 115.855 466.848V472H114.805V470.502L114.959 470.656C114.828 470.936 114.623 471.193 114.343 471.426C114.072 471.65 113.75 471.832 113.377 471.972C113.013 472.103 112.611 472.168 112.173 472.168ZM118.015 472V461.402H119.065V472H118.015ZM127.023 472.168C126.285 472.168 125.637 471.995 125.077 471.65C124.517 471.305 124.078 470.838 123.761 470.25C123.443 469.653 123.285 468.981 123.285 468.234C123.285 467.487 123.443 466.82 123.761 466.232C124.078 465.644 124.517 465.182 125.077 464.846C125.637 464.501 126.285 464.328 127.023 464.328C127.489 464.328 127.928 464.412 128.339 464.58C128.749 464.748 129.113 464.977 129.431 465.266C129.748 465.546 129.986 465.873 130.145 466.246L129.193 466.736C129.006 466.335 128.721 466.008 128.339 465.756C127.956 465.504 127.517 465.378 127.023 465.378C126.528 465.378 126.08 465.504 125.679 465.756C125.287 465.999 124.974 466.339 124.741 466.778C124.517 467.207 124.405 467.697 124.405 468.248C124.405 468.789 124.517 469.279 124.741 469.718C124.974 470.147 125.287 470.488 125.679 470.74C126.08 470.992 126.528 471.118 127.023 471.118C127.517 471.118 127.951 470.992 128.325 470.74C128.707 470.488 128.997 470.152 129.193 469.732L130.145 470.25C129.986 470.614 129.748 470.941 129.431 471.23C129.113 471.519 128.749 471.748 128.339 471.916C127.928 472.084 127.489 472.168 127.023 472.168ZM131.987 472V461.402H133.037V472H131.987ZM137.846 472.168C137.324 472.168 136.848 472.047 136.418 471.804C135.989 471.552 135.648 471.207 135.396 470.768C135.154 470.32 135.032 469.807 135.032 469.228V464.496H136.082V469.102C136.082 469.503 136.162 469.858 136.32 470.166C136.488 470.465 136.717 470.698 137.006 470.866C137.305 471.034 137.646 471.118 138.028 471.118C138.411 471.118 138.752 471.034 139.05 470.866C139.349 470.689 139.582 470.441 139.75 470.124C139.918 469.797 140.002 469.41 140.002 468.962V464.496H141.052V472H140.002V470.544L140.24 470.6C140.063 471.085 139.76 471.468 139.33 471.748C138.901 472.028 138.406 472.168 137.846 472.168ZM147.006 472.168C146.362 472.168 145.778 472.023 145.256 471.734C144.742 471.435 144.355 471.015 144.094 470.474L144.262 470.32V472H143.212V461.402H144.262V466.176L144.094 465.882C144.392 465.406 144.789 465.028 145.284 464.748C145.788 464.468 146.362 464.328 147.006 464.328C147.715 464.328 148.345 464.501 148.896 464.846C149.456 465.182 149.894 465.644 150.212 466.232C150.538 466.82 150.702 467.492 150.702 468.248C150.702 468.995 150.538 469.667 150.212 470.264C149.894 470.852 149.456 471.319 148.896 471.664C148.345 472 147.715 472.168 147.006 472.168ZM146.95 471.118C147.454 471.118 147.902 470.992 148.294 470.74C148.695 470.488 149.008 470.147 149.232 469.718C149.465 469.279 149.582 468.789 149.582 468.248C149.582 467.697 149.465 467.207 149.232 466.778C149.008 466.349 148.695 466.008 148.294 465.756C147.902 465.504 147.454 465.378 146.95 465.378C146.446 465.378 145.988 465.504 145.578 465.756C145.176 466.008 144.854 466.353 144.612 466.792C144.378 467.221 144.262 467.707 144.262 468.248C144.262 468.789 144.378 469.279 144.612 469.718C144.854 470.147 145.176 470.488 145.578 470.74C145.988 470.992 146.446 471.118 146.95 471.118ZM155.966 472.168C155.266 472.168 154.631 472 154.062 471.664C153.502 471.319 153.058 470.847 152.732 470.25C152.405 469.653 152.242 468.976 152.242 468.22C152.242 467.464 152.4 466.797 152.718 466.218C153.035 465.63 153.464 465.168 154.006 464.832C154.556 464.496 155.172 464.328 155.854 464.328C156.395 464.328 156.876 464.431 157.296 464.636C157.725 464.832 158.089 465.103 158.388 465.448C158.686 465.784 158.915 466.167 159.074 466.596C159.232 467.016 159.312 467.45 159.312 467.898C159.312 467.991 159.307 468.099 159.298 468.22C159.288 468.332 159.274 468.449 159.256 468.57H152.914V467.59H158.654L158.15 468.01C158.234 467.497 158.173 467.039 157.968 466.638C157.772 466.227 157.487 465.905 157.114 465.672C156.74 465.429 156.32 465.308 155.854 465.308C155.387 465.308 154.953 465.429 154.552 465.672C154.16 465.915 153.852 466.255 153.628 466.694C153.404 467.123 153.315 467.637 153.362 468.234C153.315 468.831 153.408 469.354 153.642 469.802C153.884 470.241 154.211 470.581 154.622 470.824C155.042 471.067 155.49 471.188 155.966 471.188C156.516 471.188 156.978 471.057 157.352 470.796C157.725 470.535 158.028 470.208 158.262 469.816L159.158 470.292C159.008 470.628 158.78 470.941 158.472 471.23C158.164 471.51 157.795 471.739 157.366 471.916C156.946 472.084 156.479 472.168 155.966 472.168ZM165.544 472L162.618 464.496H163.794L166.258 471.076H165.88L168.358 464.496H169.548L166.594 472H165.544ZM174.152 472.168C173.442 472.168 172.798 472 172.22 471.664C171.641 471.319 171.179 470.852 170.834 470.264C170.498 469.667 170.33 468.99 170.33 468.234C170.33 467.487 170.498 466.82 170.834 466.232C171.17 465.644 171.622 465.182 172.192 464.846C172.77 464.501 173.424 464.328 174.152 464.328C174.88 464.328 175.528 464.496 176.098 464.832C176.676 465.168 177.129 465.63 177.456 466.218C177.792 466.806 177.96 467.478 177.96 468.234C177.96 468.999 177.787 469.681 177.442 470.278C177.096 470.866 176.634 471.328 176.056 471.664C175.486 472 174.852 472.168 174.152 472.168ZM174.152 471.118C174.656 471.118 175.108 470.992 175.51 470.74C175.92 470.488 176.242 470.143 176.476 469.704C176.718 469.265 176.84 468.775 176.84 468.234C176.84 467.693 176.718 467.207 176.476 466.778C176.242 466.349 175.92 466.008 175.51 465.756C175.108 465.504 174.656 465.378 174.152 465.378C173.648 465.378 173.19 465.504 172.78 465.756C172.378 466.008 172.056 466.349 171.814 466.778C171.571 467.207 171.45 467.693 171.45 468.234C171.45 468.775 171.571 469.265 171.814 469.704C172.056 470.143 172.378 470.488 172.78 470.74C173.19 470.992 173.648 471.118 174.152 471.118ZM183.241 472.168C182.504 472.168 181.855 471.995 181.295 471.65C180.735 471.305 180.297 470.838 179.979 470.25C179.662 469.653 179.503 468.981 179.503 468.234C179.503 467.487 179.662 466.82 179.979 466.232C180.297 465.644 180.735 465.182 181.295 464.846C181.855 464.501 182.504 464.328 183.241 464.328C183.708 464.328 184.147 464.412 184.557 464.58C184.968 464.748 185.332 464.977 185.649 465.266C185.967 465.546 186.205 465.873 186.363 466.246L185.411 466.736C185.225 466.335 184.94 466.008 184.557 465.756C184.175 465.504 183.736 465.378 183.241 465.378C182.747 465.378 182.299 465.504 181.897 465.756C181.505 465.999 181.193 466.339 180.959 466.778C180.735 467.207 180.623 467.697 180.623 468.248C180.623 468.789 180.735 469.279 180.959 469.718C181.193 470.147 181.505 470.488 181.897 470.74C182.299 470.992 182.747 471.118 183.241 471.118C183.736 471.118 184.17 470.992 184.543 470.74C184.926 470.488 185.215 470.152 185.411 469.732L186.363 470.25C186.205 470.614 185.967 470.941 185.649 471.23C185.332 471.519 184.968 471.748 184.557 471.916C184.147 472.084 183.708 472.168 183.241 472.168ZM191.622 472.168C190.922 472.168 190.287 472 189.718 471.664C189.158 471.319 188.715 470.847 188.388 470.25C188.061 469.653 187.898 468.976 187.898 468.22C187.898 467.464 188.057 466.797 188.374 466.218C188.691 465.63 189.121 465.168 189.662 464.832C190.213 464.496 190.829 464.328 191.51 464.328C192.051 464.328 192.532 464.431 192.952 464.636C193.381 464.832 193.745 465.103 194.044 465.448C194.343 465.784 194.571 466.167 194.73 466.596C194.889 467.016 194.968 467.45 194.968 467.898C194.968 467.991 194.963 468.099 194.954 468.22C194.945 468.332 194.931 468.449 194.912 468.57H188.57V467.59H194.31L193.806 468.01C193.89 467.497 193.829 467.039 193.624 466.638C193.428 466.227 193.143 465.905 192.77 465.672C192.397 465.429 191.977 465.308 191.51 465.308C191.043 465.308 190.609 465.429 190.208 465.672C189.816 465.915 189.508 466.255 189.284 466.694C189.06 467.123 188.971 467.637 189.018 468.234C188.971 468.831 189.065 469.354 189.298 469.802C189.541 470.241 189.867 470.581 190.278 470.824C190.698 471.067 191.146 471.188 191.622 471.188C192.173 471.188 192.635 471.057 193.008 470.796C193.381 470.535 193.685 470.208 193.918 469.816L194.814 470.292C194.665 470.628 194.436 470.941 194.128 471.23C193.82 471.51 193.451 471.739 193.022 471.916C192.602 472.084 192.135 472.168 191.622 472.168ZM189.172 463.04L190.852 460.94H192.028L193.722 463.04H192.49L191.44 461.766L190.404 463.04H189.172ZM202.586 472.168C201.886 472.168 201.256 472 200.696 471.664C200.136 471.319 199.693 470.852 199.366 470.264C199.049 469.667 198.89 468.995 198.89 468.248C198.89 467.492 199.049 466.82 199.366 466.232C199.693 465.644 200.131 465.182 200.682 464.846C201.242 464.501 201.877 464.328 202.586 464.328C203.23 464.328 203.804 464.468 204.308 464.748C204.812 465.028 205.209 465.406 205.498 465.882L205.33 466.176V461.402H206.38V472H205.33V470.32L205.498 470.474C205.237 471.015 204.845 471.435 204.322 471.734C203.809 472.023 203.23 472.168 202.586 472.168ZM202.642 471.118C203.146 471.118 203.599 470.992 204 470.74C204.411 470.488 204.733 470.147 204.966 469.718C205.209 469.279 205.33 468.789 205.33 468.248C205.33 467.707 205.209 467.221 204.966 466.792C204.733 466.353 204.411 466.008 204 465.756C203.599 465.504 203.146 465.378 202.642 465.378C202.147 465.378 201.699 465.504 201.298 465.756C200.897 466.008 200.579 466.349 200.346 466.778C200.122 467.207 200.01 467.697 200.01 468.248C200.01 468.789 200.122 469.279 200.346 469.718C200.579 470.147 200.892 470.488 201.284 470.74C201.685 470.992 202.138 471.118 202.642 471.118ZM211.952 472.168C211.252 472.168 210.617 472 210.048 471.664C209.488 471.319 209.045 470.847 208.718 470.25C208.391 469.653 208.228 468.976 208.228 468.22C208.228 467.464 208.387 466.797 208.704 466.218C209.021 465.63 209.451 465.168 209.992 464.832C210.543 464.496 211.159 464.328 211.84 464.328C212.381 464.328 212.862 464.431 213.282 464.636C213.711 464.832 214.075 465.103 214.374 465.448C214.673 465.784 214.901 466.167 215.06 466.596C215.219 467.016 215.298 467.45 215.298 467.898C215.298 467.991 215.293 468.099 215.284 468.22C215.275 468.332 215.261 468.449 215.242 468.57H208.9V467.59H214.64L214.136 468.01C214.22 467.497 214.159 467.039 213.954 466.638C213.758 466.227 213.473 465.905 213.1 465.672C212.727 465.429 212.307 465.308 211.84 465.308C211.373 465.308 210.939 465.429 210.538 465.672C210.146 465.915 209.838 466.255 209.614 466.694C209.39 467.123 209.301 467.637 209.348 468.234C209.301 468.831 209.395 469.354 209.628 469.802C209.871 470.241 210.197 470.581 210.608 470.824C211.028 471.067 211.476 471.188 211.952 471.188C212.503 471.188 212.965 471.057 213.338 470.796C213.711 470.535 214.015 470.208 214.248 469.816L215.144 470.292C214.995 470.628 214.766 470.941 214.458 471.23C214.15 471.51 213.781 471.739 213.352 471.916C212.932 472.084 212.465 472.168 211.952 472.168ZM219.753 472.168C219.035 472.168 218.405 471.986 217.863 471.622C217.322 471.258 216.93 470.763 216.687 470.138L217.569 469.718C217.784 470.175 218.083 470.539 218.465 470.81C218.857 471.081 219.287 471.216 219.753 471.216C220.201 471.216 220.579 471.109 220.887 470.894C221.195 470.67 221.349 470.381 221.349 470.026C221.349 469.765 221.275 469.559 221.125 469.41C220.976 469.251 220.803 469.13 220.607 469.046C220.411 468.962 220.239 468.901 220.089 468.864L219.011 468.556C218.321 468.36 217.821 468.085 217.513 467.73C217.205 467.375 217.051 466.965 217.051 466.498C217.051 466.059 217.163 465.677 217.387 465.35C217.611 465.023 217.915 464.771 218.297 464.594C218.68 464.417 219.105 464.328 219.571 464.328C220.206 464.328 220.78 464.496 221.293 464.832C221.816 465.159 222.185 465.616 222.399 466.204L221.503 466.624C221.317 466.204 221.046 465.877 220.691 465.644C220.346 465.401 219.959 465.28 219.529 465.28C219.109 465.28 218.773 465.387 218.521 465.602C218.269 465.817 218.143 466.087 218.143 466.414C218.143 466.666 218.209 466.867 218.339 467.016C218.47 467.165 218.619 467.277 218.787 467.352C218.965 467.427 219.119 467.483 219.249 467.52L220.495 467.884C221.102 468.061 221.573 468.337 221.909 468.71C222.255 469.083 222.427 469.522 222.427 470.026C222.427 470.437 222.311 470.805 222.077 471.132C221.853 471.459 221.541 471.715 221.139 471.902C220.738 472.079 220.276 472.168 219.753 472.168ZM227.688 472.168C226.988 472.168 226.354 472 225.784 471.664C225.224 471.319 224.781 470.847 224.454 470.25C224.128 469.653 223.964 468.976 223.964 468.22C223.964 467.464 224.123 466.797 224.44 466.218C224.758 465.63 225.187 465.168 225.728 464.832C226.279 464.496 226.895 464.328 227.576 464.328C228.118 464.328 228.598 464.431 229.018 464.636C229.448 464.832 229.812 465.103 230.11 465.448C230.409 465.784 230.638 466.167 230.796 466.596C230.955 467.016 231.034 467.45 231.034 467.898C231.034 467.991 231.03 468.099 231.02 468.22C231.011 468.332 230.997 468.449 230.978 468.57H224.636V467.59H230.376L229.872 468.01C229.956 467.497 229.896 467.039 229.69 466.638C229.494 466.227 229.21 465.905 228.836 465.672C228.463 465.429 228.043 465.308 227.576 465.308C227.11 465.308 226.676 465.429 226.274 465.672C225.882 465.915 225.574 466.255 225.35 466.694C225.126 467.123 225.038 467.637 225.084 468.234C225.038 468.831 225.131 469.354 225.364 469.802C225.607 470.241 225.934 470.581 226.344 470.824C226.764 471.067 227.212 471.188 227.688 471.188C228.239 471.188 228.701 471.057 229.074 470.796C229.448 470.535 229.751 470.208 229.984 469.816L230.88 470.292C230.731 470.628 230.502 470.941 230.194 471.23C229.886 471.51 229.518 471.739 229.088 471.916C228.668 472.084 228.202 472.168 227.688 472.168ZM231.486 475.08C231.42 475.08 231.332 475.075 231.22 475.066C231.098 475.057 231 475.043 230.926 475.024V474.058C231.122 474.086 231.318 474.1 231.514 474.1C231.896 474.1 232.218 473.983 232.48 473.75C232.75 473.517 232.886 473.167 232.886 472.7V464.496H233.936V472.7C233.936 473.213 233.824 473.647 233.6 474.002C233.376 474.357 233.077 474.623 232.704 474.8C232.34 474.987 231.934 475.08 231.486 475.08ZM232.886 463.11V461.57H233.936V463.11H232.886ZM238.255 472.168C237.779 472.168 237.354 472.079 236.981 471.902C236.608 471.715 236.314 471.463 236.099 471.146C235.884 470.829 235.777 470.465 235.777 470.054C235.777 469.662 235.861 469.307 236.029 468.99C236.197 468.663 236.458 468.388 236.813 468.164C237.168 467.94 237.62 467.781 238.171 467.688L241.111 467.198V468.15L238.423 468.598C237.882 468.691 237.49 468.864 237.247 469.116C237.014 469.368 236.897 469.667 236.897 470.012C236.897 470.348 237.028 470.633 237.289 470.866C237.56 471.099 237.905 471.216 238.325 471.216C238.838 471.216 239.286 471.109 239.669 470.894C240.052 470.67 240.35 470.371 240.565 469.998C240.78 469.625 240.887 469.209 240.887 468.752V466.848C240.887 466.4 240.724 466.036 240.397 465.756C240.07 465.476 239.646 465.336 239.123 465.336C238.666 465.336 238.264 465.453 237.919 465.686C237.574 465.91 237.317 466.204 237.149 466.568L236.197 466.05C236.337 465.733 236.556 465.443 236.855 465.182C237.163 464.921 237.513 464.715 237.905 464.566C238.297 464.407 238.703 464.328 239.123 464.328C239.674 464.328 240.159 464.435 240.579 464.65C241.008 464.865 241.34 465.163 241.573 465.546C241.816 465.919 241.937 466.353 241.937 466.848V472H240.887V470.502L241.041 470.656C240.91 470.936 240.705 471.193 240.425 471.426C240.154 471.65 239.832 471.832 239.459 471.972C239.095 472.103 238.694 472.168 238.255 472.168ZM248.645 472.168C248.169 472.168 247.745 472.079 247.371 471.902C246.998 471.715 246.704 471.463 246.489 471.146C246.275 470.829 246.167 470.465 246.167 470.054C246.167 469.662 246.251 469.307 246.419 468.99C246.587 468.663 246.849 468.388 247.203 468.164C247.558 467.94 248.011 467.781 248.561 467.688L251.501 467.198V468.15L248.813 468.598C248.272 468.691 247.88 468.864 247.637 469.116C247.404 469.368 247.287 469.667 247.287 470.012C247.287 470.348 247.418 470.633 247.679 470.866C247.95 471.099 248.295 471.216 248.715 471.216C249.229 471.216 249.677 471.109 250.059 470.894C250.442 470.67 250.741 470.371 250.955 469.998C251.17 469.625 251.277 469.209 251.277 468.752V466.848C251.277 466.4 251.114 466.036 250.787 465.756C250.461 465.476 250.036 465.336 249.513 465.336C249.056 465.336 248.655 465.453 248.309 465.686C247.964 465.91 247.707 466.204 247.539 466.568L246.587 466.05C246.727 465.733 246.947 465.443 247.245 465.182C247.553 464.921 247.903 464.715 248.295 464.566C248.687 464.407 249.093 464.328 249.513 464.328C250.064 464.328 250.549 464.435 250.969 464.65C251.399 464.865 251.73 465.163 251.963 465.546C252.206 465.919 252.327 466.353 252.327 466.848V472H251.277V470.502L251.431 470.656C251.301 470.936 251.095 471.193 250.815 471.426C250.545 471.65 250.223 471.832 249.849 471.972C249.485 472.103 249.084 472.168 248.645 472.168ZM257.917 472.168C257.18 472.168 256.531 471.995 255.971 471.65C255.411 471.305 254.973 470.838 254.655 470.25C254.338 469.653 254.179 468.981 254.179 468.234C254.179 467.487 254.338 466.82 254.655 466.232C254.973 465.644 255.411 465.182 255.971 464.846C256.531 464.501 257.18 464.328 257.917 464.328C258.384 464.328 258.823 464.412 259.233 464.58C259.644 464.748 260.008 464.977 260.325 465.266C260.643 465.546 260.881 465.873 261.039 466.246L260.087 466.736C259.901 466.335 259.616 466.008 259.233 465.756C258.851 465.504 258.412 465.378 257.917 465.378C257.423 465.378 256.975 465.504 256.573 465.756C256.181 465.999 255.869 466.339 255.635 466.778C255.411 467.207 255.299 467.697 255.299 468.248C255.299 468.789 255.411 469.279 255.635 469.718C255.869 470.147 256.181 470.488 256.573 470.74C256.975 470.992 257.423 471.118 257.917 471.118C258.412 471.118 258.846 470.992 259.219 470.74C259.602 470.488 259.891 470.152 260.087 469.732L261.039 470.25C260.881 470.614 260.643 470.941 260.325 471.23C260.008 471.519 259.644 471.748 259.233 471.916C258.823 472.084 258.384 472.168 257.917 472.168ZM266.298 472.168C265.598 472.168 264.963 472 264.394 471.664C263.834 471.319 263.39 470.847 263.064 470.25C262.737 469.653 262.574 468.976 262.574 468.22C262.574 467.464 262.732 466.797 263.05 466.218C263.367 465.63 263.796 465.168 264.338 464.832C264.888 464.496 265.504 464.328 266.186 464.328C266.727 464.328 267.208 464.431 267.628 464.636C268.057 464.832 268.421 465.103 268.72 465.448C269.018 465.784 269.247 466.167 269.406 466.596C269.564 467.016 269.644 467.45 269.644 467.898C269.644 467.991 269.639 468.099 269.63 468.22C269.62 468.332 269.606 468.449 269.588 468.57H263.246V467.59H268.986L268.482 468.01C268.566 467.497 268.505 467.039 268.3 466.638C268.104 466.227 267.819 465.905 267.446 465.672C267.072 465.429 266.652 465.308 266.186 465.308C265.719 465.308 265.285 465.429 264.884 465.672C264.492 465.915 264.184 466.255 263.96 466.694C263.736 467.123 263.647 467.637 263.694 468.234C263.647 468.831 263.74 469.354 263.974 469.802C264.216 470.241 264.543 470.581 264.954 470.824C265.374 471.067 265.822 471.188 266.298 471.188C266.848 471.188 267.31 471.057 267.684 470.796C268.057 470.535 268.36 470.208 268.594 469.816L269.49 470.292C269.34 470.628 269.112 470.941 268.804 471.23C268.496 471.51 268.127 471.739 267.698 471.916C267.278 472.084 266.811 472.168 266.298 472.168ZM274.099 472.168C273.38 472.168 272.75 471.986 272.209 471.622C271.668 471.258 271.276 470.763 271.033 470.138L271.915 469.718C272.13 470.175 272.428 470.539 272.811 470.81C273.203 471.081 273.632 471.216 274.099 471.216C274.547 471.216 274.925 471.109 275.233 470.894C275.541 470.67 275.695 470.381 275.695 470.026C275.695 469.765 275.62 469.559 275.471 469.41C275.322 469.251 275.149 469.13 274.953 469.046C274.757 468.962 274.584 468.901 274.435 468.864L273.357 468.556C272.666 468.36 272.167 468.085 271.859 467.73C271.551 467.375 271.397 466.965 271.397 466.498C271.397 466.059 271.509 465.677 271.733 465.35C271.957 465.023 272.26 464.771 272.643 464.594C273.026 464.417 273.45 464.328 273.917 464.328C274.552 464.328 275.126 464.496 275.639 464.832C276.162 465.159 276.53 465.616 276.745 466.204L275.849 466.624C275.662 466.204 275.392 465.877 275.037 465.644C274.692 465.401 274.304 465.28 273.875 465.28C273.455 465.28 273.119 465.387 272.867 465.602C272.615 465.817 272.489 466.087 272.489 466.414C272.489 466.666 272.554 466.867 272.685 467.016C272.816 467.165 272.965 467.277 273.133 467.352C273.31 467.427 273.464 467.483 273.595 467.52L274.841 467.884C275.448 468.061 275.919 468.337 276.255 468.71C276.6 469.083 276.773 469.522 276.773 470.026C276.773 470.437 276.656 470.805 276.423 471.132C276.199 471.459 275.886 471.715 275.485 471.902C275.084 472.079 274.622 472.168 274.099 472.168ZM281.222 472.168C280.503 472.168 279.873 471.986 279.332 471.622C278.791 471.258 278.399 470.763 278.156 470.138L279.038 469.718C279.253 470.175 279.551 470.539 279.934 470.81C280.326 471.081 280.755 471.216 281.222 471.216C281.67 471.216 282.048 471.109 282.356 470.894C282.664 470.67 282.818 470.381 282.818 470.026C282.818 469.765 282.743 469.559 282.594 469.41C282.445 469.251 282.272 469.13 282.076 469.046C281.88 468.962 281.707 468.901 281.558 468.864L280.48 468.556C279.789 468.36 279.29 468.085 278.982 467.73C278.674 467.375 278.52 466.965 278.52 466.498C278.52 466.059 278.632 465.677 278.856 465.35C279.08 465.023 279.383 464.771 279.766 464.594C280.149 464.417 280.573 464.328 281.04 464.328C281.675 464.328 282.249 464.496 282.762 464.832C283.285 465.159 283.653 465.616 283.868 466.204L282.972 466.624C282.785 466.204 282.515 465.877 282.16 465.644C281.815 465.401 281.427 465.28 280.998 465.28C280.578 465.28 280.242 465.387 279.99 465.602C279.738 465.817 279.612 466.087 279.612 466.414C279.612 466.666 279.677 466.867 279.808 467.016C279.939 467.165 280.088 467.277 280.256 467.352C280.433 467.427 280.587 467.483 280.718 467.52L281.964 467.884C282.571 468.061 283.042 468.337 283.378 468.71C283.723 469.083 283.896 469.522 283.896 470.026C283.896 470.437 283.779 470.805 283.546 471.132C283.322 471.459 283.009 471.715 282.608 471.902C282.207 472.079 281.745 472.168 281.222 472.168ZM287.911 472.168C287.435 472.168 287.01 472.079 286.637 471.902C286.264 471.715 285.97 471.463 285.755 471.146C285.54 470.829 285.433 470.465 285.433 470.054C285.433 469.662 285.517 469.307 285.685 468.99C285.853 468.663 286.114 468.388 286.469 468.164C286.824 467.94 287.276 467.781 287.827 467.688L290.767 467.198V468.15L288.079 468.598C287.538 468.691 287.146 468.864 286.903 469.116C286.67 469.368 286.553 469.667 286.553 470.012C286.553 470.348 286.684 470.633 286.945 470.866C287.216 471.099 287.561 471.216 287.981 471.216C288.494 471.216 288.942 471.109 289.325 470.894C289.708 470.67 290.006 470.371 290.221 469.998C290.436 469.625 290.543 469.209 290.543 468.752V466.848C290.543 466.4 290.38 466.036 290.053 465.756C289.726 465.476 289.302 465.336 288.779 465.336C288.322 465.336 287.92 465.453 287.575 465.686C287.23 465.91 286.973 466.204 286.805 466.568L285.853 466.05C285.993 465.733 286.212 465.443 286.511 465.182C286.819 464.921 287.169 464.715 287.561 464.566C287.953 464.407 288.359 464.328 288.779 464.328C289.33 464.328 289.815 464.435 290.235 464.65C290.664 464.865 290.996 465.163 291.229 465.546C291.472 465.919 291.593 466.353 291.593 466.848V472H290.543V470.502L290.697 470.656C290.566 470.936 290.361 471.193 290.081 471.426C289.81 471.65 289.488 471.832 289.115 471.972C288.751 472.103 288.35 472.168 287.911 472.168ZM293.753 472V464.496H294.803V465.728L294.663 465.546C294.84 465.191 295.106 464.911 295.461 464.706C295.825 464.501 296.263 464.398 296.777 464.398H297.253V465.448H296.595C296.053 465.448 295.619 465.616 295.293 465.952C294.966 466.288 294.803 466.764 294.803 467.38V472H293.753ZM299.743 469.004V468.864C299.743 468.444 299.818 468.075 299.967 467.758C300.126 467.431 300.322 467.137 300.555 466.876C300.789 466.605 301.031 466.353 301.283 466.12C301.638 465.784 301.955 465.448 302.235 465.112C302.515 464.767 302.655 464.365 302.655 463.908C302.655 463.647 302.59 463.399 302.459 463.166C302.329 462.933 302.133 462.746 301.871 462.606C301.619 462.457 301.311 462.382 300.947 462.382C300.425 462.382 299.977 462.545 299.603 462.872C299.23 463.199 298.992 463.633 298.889 464.174L297.895 463.964C297.979 463.451 298.161 463.003 298.441 462.62C298.721 462.237 299.076 461.939 299.505 461.724C299.935 461.509 300.415 461.402 300.947 461.402C301.507 461.402 301.997 461.519 302.417 461.752C302.847 461.985 303.178 462.293 303.411 462.676C303.654 463.049 303.775 463.46 303.775 463.908C303.775 464.328 303.687 464.701 303.509 465.028C303.332 465.355 303.108 465.658 302.837 465.938C302.567 466.209 302.296 466.479 302.025 466.75C301.717 467.058 301.447 467.38 301.213 467.716C300.98 468.043 300.863 468.425 300.863 468.864V469.004H299.743ZM299.785 472V470.46H300.905V472H299.785Z" fill="white"></path>
<rect x="35.5" y="520.5" width="322" height="78" rx="7.5" stroke="#737373"></rect>
<circle cx="74.5" cy="559.5" r="23.5" fill="url(#pattern1_31_7633)"></circle>
<path d="M109.158 555.5V545.07H113.554C114.245 545.07 114.833 545.191 115.318 545.434C115.813 545.667 116.191 546.003 116.452 546.442C116.723 546.871 116.858 547.394 116.858 548.01C116.858 548.486 116.728 548.934 116.466 549.354C116.214 549.765 115.808 550.105 115.248 550.376V549.494C115.762 549.69 116.168 549.933 116.466 550.222C116.765 550.511 116.975 550.833 117.096 551.188C117.218 551.543 117.278 551.916 117.278 552.308C117.278 553.307 116.947 554.091 116.284 554.66C115.631 555.22 114.721 555.5 113.554 555.5H109.158ZM111.062 553.82H113.75C114.245 553.82 114.637 553.685 114.926 553.414C115.225 553.134 115.374 552.765 115.374 552.308C115.374 551.851 115.225 551.482 114.926 551.202C114.637 550.922 114.245 550.782 113.75 550.782H111.062V553.82ZM111.062 549.116H113.652C114.044 549.116 114.357 549.004 114.59 548.78C114.824 548.547 114.94 548.248 114.94 547.884C114.94 547.52 114.824 547.231 114.59 547.016C114.357 546.801 114.044 546.694 113.652 546.694H111.062V549.116ZM122.408 555.668C121.661 555.668 120.98 555.495 120.364 555.15C119.757 554.805 119.272 554.333 118.908 553.736C118.553 553.139 118.376 552.457 118.376 551.692C118.376 550.927 118.553 550.245 118.908 549.648C119.272 549.051 119.757 548.579 120.364 548.234C120.971 547.889 121.652 547.716 122.408 547.716C123.155 547.716 123.831 547.889 124.438 548.234C125.045 548.579 125.525 549.051 125.88 549.648C126.244 550.236 126.426 550.917 126.426 551.692C126.426 552.457 126.244 553.139 125.88 553.736C125.516 554.333 125.031 554.805 124.424 555.15C123.817 555.495 123.145 555.668 122.408 555.668ZM122.408 553.988C122.819 553.988 123.178 553.89 123.486 553.694C123.803 553.498 124.051 553.227 124.228 552.882C124.415 552.527 124.508 552.131 124.508 551.692C124.508 551.244 124.415 550.852 124.228 550.516C124.051 550.171 123.803 549.9 123.486 549.704C123.178 549.499 122.819 549.396 122.408 549.396C121.988 549.396 121.619 549.499 121.302 549.704C120.985 549.9 120.733 550.171 120.546 550.516C120.369 550.852 120.28 551.244 120.28 551.692C120.28 552.131 120.369 552.527 120.546 552.882C120.733 553.227 120.985 553.498 121.302 553.694C121.619 553.89 121.988 553.988 122.408 553.988ZM130.127 555.668C129.595 555.668 129.133 555.579 128.741 555.402C128.349 555.225 128.046 554.973 127.831 554.646C127.616 554.31 127.509 553.923 127.509 553.484C127.509 553.064 127.602 552.691 127.789 552.364C127.976 552.028 128.265 551.748 128.657 551.524C129.049 551.3 129.544 551.141 130.141 551.048L132.633 550.642V552.042L130.491 552.406C130.127 552.471 129.856 552.588 129.679 552.756C129.502 552.924 129.413 553.143 129.413 553.414C129.413 553.675 129.511 553.885 129.707 554.044C129.912 554.193 130.164 554.268 130.463 554.268C130.846 554.268 131.182 554.189 131.471 554.03C131.77 553.862 131.998 553.633 132.157 553.344C132.325 553.055 132.409 552.737 132.409 552.392V550.432C132.409 550.105 132.278 549.835 132.017 549.62C131.765 549.396 131.429 549.284 131.009 549.284C130.617 549.284 130.267 549.391 129.959 549.606C129.66 549.811 129.441 550.087 129.301 550.432L127.803 549.704C127.952 549.303 128.186 548.957 128.503 548.668C128.83 548.369 129.212 548.136 129.651 547.968C130.09 547.8 130.566 547.716 131.079 547.716C131.704 547.716 132.255 547.833 132.731 548.066C133.207 548.29 133.576 548.607 133.837 549.018C134.108 549.419 134.243 549.891 134.243 550.432V555.5H132.507V554.198L132.899 554.17C132.703 554.497 132.47 554.772 132.199 554.996C131.928 555.211 131.62 555.379 131.275 555.5C130.93 555.612 130.547 555.668 130.127 555.668ZM141.366 555.5L137.726 545.07H139.798L142.654 553.708H142.248L145.104 545.07H147.176L143.55 555.5H141.366ZM148.188 555.5V547.884H150.022V555.5H148.188ZM148.188 547.03V545.07H150.022V547.03H148.188ZM154.613 555.668C153.801 555.668 153.092 555.477 152.485 555.094C151.888 554.702 151.477 554.175 151.253 553.512L152.625 552.854C152.821 553.283 153.092 553.619 153.437 553.862C153.792 554.105 154.184 554.226 154.613 554.226C154.949 554.226 155.215 554.151 155.411 554.002C155.607 553.853 155.705 553.657 155.705 553.414C155.705 553.265 155.663 553.143 155.579 553.05C155.505 552.947 155.397 552.863 155.257 552.798C155.127 552.723 154.982 552.663 154.823 552.616L153.577 552.266C152.933 552.079 152.443 551.795 152.107 551.412C151.781 551.029 151.617 550.577 151.617 550.054C151.617 549.587 151.734 549.181 151.967 548.836C152.21 548.481 152.541 548.206 152.961 548.01C153.391 547.814 153.881 547.716 154.431 547.716C155.15 547.716 155.785 547.889 156.335 548.234C156.886 548.579 157.278 549.065 157.511 549.69L156.111 550.348C155.981 550.003 155.761 549.727 155.453 549.522C155.145 549.317 154.8 549.214 154.417 549.214C154.109 549.214 153.867 549.284 153.689 549.424C153.512 549.564 153.423 549.746 153.423 549.97C153.423 550.11 153.461 550.231 153.535 550.334C153.61 550.437 153.713 550.521 153.843 550.586C153.983 550.651 154.142 550.712 154.319 550.768L155.537 551.132C156.163 551.319 156.643 551.599 156.979 551.972C157.325 552.345 157.497 552.803 157.497 553.344C157.497 553.801 157.376 554.207 157.133 554.562C156.891 554.907 156.555 555.178 156.125 555.374C155.696 555.57 155.192 555.668 154.613 555.668ZM162.379 555.584C161.52 555.584 160.853 555.351 160.377 554.884C159.91 554.408 159.677 553.741 159.677 552.882V549.522H158.361V547.884H158.501C158.874 547.884 159.163 547.786 159.369 547.59C159.574 547.394 159.677 547.109 159.677 546.736V546.148H161.511V547.884H163.261V549.522H161.511V552.784C161.511 553.036 161.553 553.251 161.637 553.428C161.73 553.605 161.87 553.741 162.057 553.834C162.253 553.927 162.5 553.974 162.799 553.974C162.864 553.974 162.939 553.969 163.023 553.96C163.116 553.951 163.205 553.941 163.289 553.932V555.5C163.158 555.519 163.009 555.537 162.841 555.556C162.673 555.575 162.519 555.584 162.379 555.584ZM166.973 555.668C166.441 555.668 165.979 555.579 165.587 555.402C165.195 555.225 164.891 554.973 164.677 554.646C164.462 554.31 164.355 553.923 164.355 553.484C164.355 553.064 164.448 552.691 164.635 552.364C164.821 552.028 165.111 551.748 165.503 551.524C165.895 551.3 166.389 551.141 166.987 551.048L169.479 550.642V552.042L167.337 552.406C166.973 552.471 166.702 552.588 166.525 552.756C166.347 552.924 166.259 553.143 166.259 553.414C166.259 553.675 166.357 553.885 166.553 554.044C166.758 554.193 167.01 554.268 167.309 554.268C167.691 554.268 168.027 554.189 168.317 554.03C168.615 553.862 168.844 553.633 169.003 553.344C169.171 553.055 169.255 552.737 169.255 552.392V550.432C169.255 550.105 169.124 549.835 168.863 549.62C168.611 549.396 168.275 549.284 167.855 549.284C167.463 549.284 167.113 549.391 166.805 549.606C166.506 549.811 166.287 550.087 166.147 550.432L164.649 549.704C164.798 549.303 165.031 548.957 165.349 548.668C165.675 548.369 166.058 548.136 166.497 547.968C166.935 547.8 167.411 547.716 167.925 547.716C168.55 547.716 169.101 547.833 169.577 548.066C170.053 548.29 170.421 548.607 170.683 549.018C170.953 549.419 171.089 549.891 171.089 550.432V555.5H169.353V554.198L169.745 554.17C169.549 554.497 169.315 554.772 169.045 554.996C168.774 555.211 168.466 555.379 168.121 555.5C167.775 555.612 167.393 555.668 166.973 555.668ZM175.426 555.5V545.07H179.822C180.513 545.07 181.101 545.191 181.586 545.434C182.081 545.667 182.459 546.003 182.72 546.442C182.991 546.871 183.126 547.394 183.126 548.01C183.126 548.486 182.995 548.934 182.734 549.354C182.482 549.765 182.076 550.105 181.516 550.376V549.494C182.029 549.69 182.435 549.933 182.734 550.222C183.033 550.511 183.243 550.833 183.364 551.188C183.485 551.543 183.546 551.916 183.546 552.308C183.546 553.307 183.215 554.091 182.552 554.66C181.899 555.22 180.989 555.5 179.822 555.5H175.426ZM177.33 553.82H180.018C180.513 553.82 180.905 553.685 181.194 553.414C181.493 553.134 181.642 552.765 181.642 552.308C181.642 551.851 181.493 551.482 181.194 551.202C180.905 550.922 180.513 550.782 180.018 550.782H177.33V553.82ZM177.33 549.116H179.92C180.312 549.116 180.625 549.004 180.858 548.78C181.091 548.547 181.208 548.248 181.208 547.884C181.208 547.52 181.091 547.231 180.858 547.016C180.625 546.801 180.312 546.694 179.92 546.694H177.33V549.116ZM188.564 555.668C187.78 555.668 187.094 555.491 186.506 555.136C185.918 554.781 185.46 554.301 185.134 553.694C184.807 553.087 184.644 552.415 184.644 551.678C184.644 550.913 184.807 550.236 185.134 549.648C185.47 549.051 185.922 548.579 186.492 548.234C187.07 547.889 187.714 547.716 188.424 547.716C189.021 547.716 189.544 547.814 189.992 548.01C190.449 548.206 190.836 548.477 191.154 548.822C191.471 549.167 191.714 549.564 191.882 550.012C192.05 550.451 192.134 550.927 192.134 551.44C192.134 551.571 192.124 551.706 192.106 551.846C192.096 551.986 192.073 552.107 192.036 552.21H186.156V550.81H191L190.132 551.468C190.216 551.039 190.192 550.656 190.062 550.32C189.94 549.984 189.735 549.718 189.446 549.522C189.166 549.326 188.825 549.228 188.424 549.228C188.041 549.228 187.7 549.326 187.402 549.522C187.103 549.709 186.874 549.989 186.716 550.362C186.566 550.726 186.51 551.169 186.548 551.692C186.51 552.159 186.571 552.574 186.73 552.938C186.898 553.293 187.14 553.568 187.458 553.764C187.784 553.96 188.158 554.058 188.578 554.058C188.998 554.058 189.352 553.969 189.642 553.792C189.94 553.615 190.174 553.377 190.342 553.078L191.826 553.806C191.676 554.17 191.443 554.492 191.126 554.772C190.808 555.052 190.43 555.271 189.992 555.43C189.562 555.589 189.086 555.668 188.564 555.668ZM193.524 555.5V547.884H195.246V549.578L195.106 549.326C195.283 548.757 195.559 548.36 195.932 548.136C196.315 547.912 196.772 547.8 197.304 547.8H197.752V549.424H197.094C196.571 549.424 196.151 549.587 195.834 549.914C195.517 550.231 195.358 550.679 195.358 551.258V555.5H193.524ZM201.658 555.668C200.846 555.668 200.137 555.477 199.53 555.094C198.933 554.702 198.522 554.175 198.298 553.512L199.67 552.854C199.866 553.283 200.137 553.619 200.482 553.862C200.837 554.105 201.229 554.226 201.658 554.226C201.994 554.226 202.26 554.151 202.456 554.002C202.652 553.853 202.75 553.657 202.75 553.414C202.75 553.265 202.708 553.143 202.624 553.05C202.55 552.947 202.442 552.863 202.302 552.798C202.172 552.723 202.027 552.663 201.868 552.616L200.622 552.266C199.978 552.079 199.488 551.795 199.152 551.412C198.826 551.029 198.662 550.577 198.662 550.054C198.662 549.587 198.779 549.181 199.012 548.836C199.255 548.481 199.586 548.206 200.006 548.01C200.436 547.814 200.926 547.716 201.476 547.716C202.195 547.716 202.83 547.889 203.38 548.234C203.931 548.579 204.323 549.065 204.556 549.69L203.156 550.348C203.026 550.003 202.806 549.727 202.498 549.522C202.19 549.317 201.845 549.214 201.462 549.214C201.154 549.214 200.912 549.284 200.734 549.424C200.557 549.564 200.468 549.746 200.468 549.97C200.468 550.11 200.506 550.231 200.58 550.334C200.655 550.437 200.758 550.521 200.888 550.586C201.028 550.651 201.187 550.712 201.364 550.768L202.582 551.132C203.208 551.319 203.688 551.599 204.024 551.972C204.37 552.345 204.542 552.803 204.542 553.344C204.542 553.801 204.421 554.207 204.178 554.562C203.936 554.907 203.6 555.178 203.17 555.374C202.741 555.57 202.237 555.668 201.658 555.668ZM209.564 555.668C208.78 555.668 208.094 555.491 207.506 555.136C206.918 554.781 206.46 554.301 206.134 553.694C205.807 553.087 205.644 552.415 205.644 551.678C205.644 550.913 205.807 550.236 206.134 549.648C206.47 549.051 206.922 548.579 207.492 548.234C208.07 547.889 208.714 547.716 209.424 547.716C210.021 547.716 210.544 547.814 210.992 548.01C211.449 548.206 211.836 548.477 212.154 548.822C212.471 549.167 212.714 549.564 212.882 550.012C213.05 550.451 213.134 550.927 213.134 551.44C213.134 551.571 213.124 551.706 213.106 551.846C213.096 551.986 213.073 552.107 213.036 552.21H207.156V550.81H212L211.132 551.468C211.216 551.039 211.192 550.656 211.062 550.32C210.94 549.984 210.735 549.718 210.446 549.522C210.166 549.326 209.825 549.228 209.424 549.228C209.041 549.228 208.7 549.326 208.402 549.522C208.103 549.709 207.874 549.989 207.716 550.362C207.566 550.726 207.51 551.169 207.548 551.692C207.51 552.159 207.571 552.574 207.73 552.938C207.898 553.293 208.14 553.568 208.458 553.764C208.784 553.96 209.158 554.058 209.578 554.058C209.998 554.058 210.352 553.969 210.642 553.792C210.94 553.615 211.174 553.377 211.342 553.078L212.826 553.806C212.676 554.17 212.443 554.492 212.126 554.772C211.808 555.052 211.43 555.271 210.992 555.43C210.562 555.589 210.086 555.668 209.564 555.668ZM214.524 555.5V547.884H216.246V549.578L216.106 549.326C216.283 548.757 216.559 548.36 216.932 548.136C217.315 547.912 217.772 547.8 218.304 547.8H218.752V549.424H218.094C217.571 549.424 217.151 549.587 216.834 549.914C216.517 550.231 216.358 550.679 216.358 551.258V555.5H214.524ZM219.76 555.5V544.902H221.594V551.846L220.894 551.636L224.478 547.884H226.76L223.946 550.95L226.816 555.5H224.716L222.224 551.552L223.316 551.328L221.02 553.792L221.594 552.672V555.5H219.76ZM231.316 555.668C230.532 555.668 229.846 555.491 229.258 555.136C228.67 554.781 228.212 554.301 227.886 553.694C227.559 553.087 227.396 552.415 227.396 551.678C227.396 550.913 227.559 550.236 227.886 549.648C228.222 549.051 228.674 548.579 229.244 548.234C229.822 547.889 230.466 547.716 231.176 547.716C231.773 547.716 232.296 547.814 232.744 548.01C233.201 548.206 233.588 548.477 233.906 548.822C234.223 549.167 234.466 549.564 234.634 550.012C234.802 550.451 234.886 550.927 234.886 551.44C234.886 551.571 234.876 551.706 234.858 551.846C234.848 551.986 234.825 552.107 234.788 552.21H228.908V550.81H233.752L232.884 551.468C232.968 551.039 232.944 550.656 232.814 550.32C232.692 549.984 232.487 549.718 232.198 549.522C231.918 549.326 231.577 549.228 231.176 549.228C230.793 549.228 230.452 549.326 230.154 549.522C229.855 549.709 229.626 549.989 229.468 550.362C229.318 550.726 229.262 551.169 229.3 551.692C229.262 552.159 229.323 552.574 229.482 552.938C229.65 553.293 229.892 553.568 230.21 553.764C230.536 553.96 230.91 554.058 231.33 554.058C231.75 554.058 232.104 553.969 232.394 553.792C232.692 553.615 232.926 553.377 233.094 553.078L234.578 553.806C234.428 554.17 234.195 554.492 233.878 554.772C233.56 555.052 233.182 555.271 232.744 555.43C232.314 555.589 231.838 555.668 231.316 555.668ZM236.276 555.5V547.884H237.998V549.578L237.858 549.326C238.035 548.757 238.311 548.36 238.684 548.136C239.067 547.912 239.524 547.8 240.056 547.8H240.504V549.424H239.846C239.323 549.424 238.903 549.587 238.586 549.914C238.269 550.231 238.11 550.679 238.11 551.258V555.5H236.276ZM244.41 555.668C243.598 555.668 242.889 555.477 242.282 555.094C241.685 554.702 241.274 554.175 241.05 553.512L242.422 552.854C242.618 553.283 242.889 553.619 243.234 553.862C243.589 554.105 243.981 554.226 244.41 554.226C244.746 554.226 245.012 554.151 245.208 554.002C245.404 553.853 245.502 553.657 245.502 553.414C245.502 553.265 245.46 553.143 245.376 553.05C245.302 552.947 245.194 552.863 245.054 552.798C244.924 552.723 244.779 552.663 244.62 552.616L243.374 552.266C242.73 552.079 242.24 551.795 241.904 551.412C241.578 551.029 241.414 550.577 241.414 550.054C241.414 549.587 241.531 549.181 241.764 548.836C242.007 548.481 242.338 548.206 242.758 548.01C243.188 547.814 243.678 547.716 244.228 547.716C244.947 547.716 245.582 547.889 246.132 548.234C246.683 548.579 247.075 549.065 247.308 549.69L245.908 550.348C245.778 550.003 245.558 549.727 245.25 549.522C244.942 549.317 244.597 549.214 244.214 549.214C243.906 549.214 243.664 549.284 243.486 549.424C243.309 549.564 243.22 549.746 243.22 549.97C243.22 550.11 243.258 550.231 243.332 550.334C243.407 550.437 243.51 550.521 243.64 550.586C243.78 550.651 243.939 550.712 244.116 550.768L245.334 551.132C245.96 551.319 246.44 551.599 246.776 551.972C247.122 552.345 247.294 552.803 247.294 553.344C247.294 553.801 247.173 554.207 246.93 554.562C246.688 554.907 246.352 555.178 245.922 555.374C245.493 555.57 244.989 555.668 244.41 555.668Z" fill="white"></path>
<path d="M109.079 573.5V566.05H113.679V566.8H109.879V569.39H113.379V570.14H109.879V573.5H109.079ZM114.78 573.5V565.93H115.53V573.5H114.78ZM118.615 573.62C118.275 573.62 117.972 573.557 117.705 573.43C117.438 573.297 117.228 573.117 117.075 572.89C116.922 572.663 116.845 572.403 116.845 572.11C116.845 571.83 116.905 571.577 117.025 571.35C117.145 571.117 117.332 570.92 117.585 570.76C117.838 570.6 118.162 570.487 118.555 570.42L120.655 570.07V570.75L118.735 571.07C118.348 571.137 118.068 571.26 117.895 571.44C117.728 571.62 117.645 571.833 117.645 572.08C117.645 572.32 117.738 572.523 117.925 572.69C118.118 572.857 118.365 572.94 118.665 572.94C119.032 572.94 119.352 572.863 119.625 572.71C119.898 572.55 120.112 572.337 120.265 572.07C120.418 571.803 120.495 571.507 120.495 571.18V569.82C120.495 569.5 120.378 569.24 120.145 569.04C119.912 568.84 119.608 568.74 119.235 568.74C118.908 568.74 118.622 568.823 118.375 568.99C118.128 569.15 117.945 569.36 117.825 569.62L117.145 569.25C117.245 569.023 117.402 568.817 117.615 568.63C117.835 568.443 118.085 568.297 118.365 568.19C118.645 568.077 118.935 568.02 119.235 568.02C119.628 568.02 119.975 568.097 120.275 568.25C120.582 568.403 120.818 568.617 120.985 568.89C121.158 569.157 121.245 569.467 121.245 569.82V573.5H120.495V572.43L120.605 572.54C120.512 572.74 120.365 572.923 120.165 573.09C119.972 573.25 119.742 573.38 119.475 573.48C119.215 573.573 118.928 573.62 118.615 573.62ZM125.328 575.7C124.961 575.7 124.621 575.643 124.308 575.53C124.001 575.417 123.734 575.26 123.508 575.06C123.288 574.867 123.118 574.64 122.998 574.38L123.688 574.01C123.794 574.263 123.984 574.483 124.258 574.67C124.531 574.857 124.881 574.95 125.308 574.95C125.634 574.95 125.934 574.887 126.208 574.76C126.481 574.633 126.701 574.447 126.868 574.2C127.034 573.953 127.118 573.65 127.118 573.29V572.1L127.238 572.21C127.051 572.597 126.774 572.897 126.408 573.11C126.041 573.317 125.641 573.42 125.208 573.42C124.708 573.42 124.258 573.3 123.858 573.06C123.458 572.82 123.141 572.497 122.908 572.09C122.681 571.677 122.568 571.22 122.568 570.72C122.568 570.213 122.681 569.757 122.908 569.35C123.141 568.943 123.454 568.62 123.848 568.38C124.248 568.14 124.701 568.02 125.208 568.02C125.641 568.02 126.034 568.12 126.388 568.32C126.748 568.52 127.031 568.79 127.238 569.13L127.118 569.34V568.14H127.868V573.29C127.868 573.75 127.758 574.16 127.538 574.52C127.324 574.887 127.024 575.173 126.638 575.38C126.258 575.593 125.821 575.7 125.328 575.7ZM125.248 572.67C125.594 572.67 125.908 572.583 126.188 572.41C126.468 572.23 126.691 571.993 126.858 571.7C127.031 571.4 127.118 571.073 127.118 570.72C127.118 570.367 127.031 570.043 126.858 569.75C126.691 569.45 126.468 569.213 126.188 569.04C125.908 568.86 125.594 568.77 125.248 568.77C124.894 568.77 124.574 568.86 124.288 569.04C124.001 569.213 123.774 569.447 123.608 569.74C123.448 570.033 123.368 570.36 123.368 570.72C123.368 571.073 123.448 571.4 123.608 571.7C123.774 571.993 123.998 572.23 124.278 572.41C124.564 572.583 124.888 572.67 125.248 572.67ZM131.218 573.5V566.05H135.818V566.8H132.018V569.39H135.518V570.14H132.018V573.5H131.218ZM139.233 573.62C138.726 573.62 138.266 573.5 137.853 573.26C137.44 573.013 137.11 572.68 136.863 572.26C136.623 571.833 136.503 571.35 136.503 570.81C136.503 570.277 136.623 569.8 136.863 569.38C137.103 568.96 137.426 568.63 137.833 568.39C138.246 568.143 138.713 568.02 139.233 568.02C139.753 568.02 140.216 568.14 140.623 568.38C141.036 568.62 141.36 568.95 141.593 569.37C141.833 569.79 141.953 570.27 141.953 570.81C141.953 571.357 141.83 571.843 141.583 572.27C141.336 572.69 141.006 573.02 140.593 573.26C140.186 573.5 139.733 573.62 139.233 573.62ZM139.233 572.87C139.593 572.87 139.916 572.78 140.203 572.6C140.496 572.42 140.726 572.173 140.893 571.86C141.066 571.547 141.153 571.197 141.153 570.81C141.153 570.423 141.066 570.077 140.893 569.77C140.726 569.463 140.496 569.22 140.203 569.04C139.916 568.86 139.593 568.77 139.233 568.77C138.873 568.77 138.546 568.86 138.253 569.04C137.966 569.22 137.736 569.463 137.563 569.77C137.39 570.077 137.303 570.423 137.303 570.81C137.303 571.197 137.39 571.547 137.563 571.86C137.736 572.173 137.966 572.42 138.253 572.6C138.546 572.78 138.873 572.87 139.233 572.87ZM145.786 573.62C145.279 573.62 144.819 573.5 144.406 573.26C143.993 573.013 143.663 572.68 143.416 572.26C143.176 571.833 143.056 571.35 143.056 570.81C143.056 570.277 143.176 569.8 143.416 569.38C143.656 568.96 143.979 568.63 144.386 568.39C144.799 568.143 145.266 568.02 145.786 568.02C146.306 568.02 146.769 568.14 147.176 568.38C147.589 568.62 147.913 568.95 148.146 569.37C148.386 569.79 148.506 570.27 148.506 570.81C148.506 571.357 148.383 571.843 148.136 572.27C147.889 572.69 147.559 573.02 147.146 573.26C146.739 573.5 146.286 573.62 145.786 573.62ZM145.786 572.87C146.146 572.87 146.469 572.78 146.756 572.6C147.049 572.42 147.279 572.173 147.446 571.86C147.619 571.547 147.706 571.197 147.706 570.81C147.706 570.423 147.619 570.077 147.446 569.77C147.279 569.463 147.049 569.22 146.756 569.04C146.469 568.86 146.146 568.77 145.786 568.77C145.426 568.77 145.099 568.86 144.806 569.04C144.519 569.22 144.289 569.463 144.116 569.77C143.943 570.077 143.856 570.423 143.856 570.81C143.856 571.197 143.943 571.547 144.116 571.86C144.289 572.173 144.519 572.42 144.806 572.6C145.099 572.78 145.426 572.87 145.786 572.87ZM151.781 573.56C151.301 573.56 150.931 573.42 150.671 573.14C150.411 572.86 150.281 572.46 150.281 571.94V568.89H149.291V568.14H149.541C149.768 568.14 149.948 568.067 150.081 567.92C150.214 567.767 150.281 567.577 150.281 567.35V566.9H151.031V568.14H152.211V568.89H151.031V571.94C151.031 572.12 151.058 572.28 151.111 572.42C151.164 572.553 151.254 572.66 151.381 572.74C151.514 572.82 151.691 572.86 151.911 572.86C151.964 572.86 152.028 572.857 152.101 572.85C152.174 572.843 152.238 572.837 152.291 572.83V573.5C152.211 573.52 152.121 573.533 152.021 573.54C151.921 573.553 151.841 573.56 151.781 573.56ZM156.318 573.62C155.858 573.62 155.441 573.517 155.068 573.31C154.701 573.097 154.425 572.797 154.238 572.41L154.358 572.3V573.5H153.608V565.93H154.358V569.34L154.238 569.13C154.451 568.79 154.735 568.52 155.088 568.32C155.448 568.12 155.858 568.02 156.318 568.02C156.825 568.02 157.275 568.143 157.668 568.39C158.068 568.63 158.381 568.96 158.608 569.38C158.841 569.8 158.958 570.28 158.958 570.82C158.958 571.353 158.841 571.833 158.608 572.26C158.381 572.68 158.068 573.013 157.668 573.26C157.275 573.5 156.825 573.62 156.318 573.62ZM156.278 572.87C156.638 572.87 156.958 572.78 157.238 572.6C157.525 572.42 157.748 572.177 157.908 571.87C158.075 571.557 158.158 571.207 158.158 570.82C158.158 570.427 158.075 570.077 157.908 569.77C157.748 569.463 157.525 569.22 157.238 569.04C156.958 568.86 156.638 568.77 156.278 568.77C155.918 568.77 155.591 568.86 155.298 569.04C155.011 569.22 154.781 569.467 154.608 569.78C154.441 570.087 154.358 570.433 154.358 570.82C154.358 571.207 154.441 571.557 154.608 571.87C154.781 572.177 155.011 572.42 155.298 572.6C155.591 572.78 155.918 572.87 156.278 572.87ZM161.828 573.62C161.488 573.62 161.184 573.557 160.918 573.43C160.651 573.297 160.441 573.117 160.288 572.89C160.134 572.663 160.058 572.403 160.058 572.11C160.058 571.83 160.118 571.577 160.238 571.35C160.358 571.117 160.544 570.92 160.798 570.76C161.051 570.6 161.374 570.487 161.768 570.42L163.868 570.07V570.75L161.948 571.07C161.561 571.137 161.281 571.26 161.108 571.44C160.941 571.62 160.858 571.833 160.858 572.08C160.858 572.32 160.951 572.523 161.138 572.69C161.331 572.857 161.578 572.94 161.878 572.94C162.244 572.94 162.564 572.863 162.838 572.71C163.111 572.55 163.324 572.337 163.478 572.07C163.631 571.803 163.708 571.507 163.708 571.18V569.82C163.708 569.5 163.591 569.24 163.358 569.04C163.124 568.84 162.821 568.74 162.448 568.74C162.121 568.74 161.834 568.823 161.588 568.99C161.341 569.15 161.158 569.36 161.038 569.62L160.358 569.25C160.458 569.023 160.614 568.817 160.828 568.63C161.048 568.443 161.298 568.297 161.578 568.19C161.858 568.077 162.148 568.02 162.448 568.02C162.841 568.02 163.188 568.097 163.488 568.25C163.794 568.403 164.031 568.617 164.198 568.89C164.371 569.157 164.458 569.467 164.458 569.82V573.5H163.708V572.43L163.818 572.54C163.724 572.74 163.578 572.923 163.378 573.09C163.184 573.25 162.954 573.38 162.688 573.48C162.428 573.573 162.141 573.62 161.828 573.62ZM166 573.5V565.93H166.75V573.5H166ZM168.286 573.5V565.93H169.036V573.5H168.286Z" fill="white"></path>
<path d="M333.25 552.5H328.75L333.75 559.5L328.75 566.5H333.25L338.25 559.5L333.25 552.5Z" fill="#C7EF66"></path>
<path d="M326.25 552.5H321.75L326.75 559.5L321.75 566.5H326.25L331.25 559.5L326.25 552.5Z" fill="#C7EF66"></path>
<rect x="35.5" y="623.5" width="322" height="78" rx="7.5" stroke="#737373"></rect>
<circle cx="74.5" cy="662.5" r="23.5" fill="url(#pattern2_31_7633)"></circle>
<path d="M109.196 658.5V648.07H113.592C114.282 648.07 114.87 648.191 115.356 648.434C115.85 648.667 116.228 649.003 116.49 649.442C116.76 649.871 116.896 650.394 116.896 651.01C116.896 651.486 116.765 651.934 116.504 652.354C116.252 652.765 115.846 653.105 115.286 653.376V652.494C115.799 652.69 116.205 652.933 116.504 653.222C116.802 653.511 117.012 653.833 117.134 654.188C117.255 654.543 117.316 654.916 117.316 655.308C117.316 656.307 116.984 657.091 116.322 657.66C115.668 658.22 114.758 658.5 113.592 658.5H109.196ZM111.1 656.82H113.788C114.282 656.82 114.674 656.685 114.964 656.414C115.262 656.134 115.412 655.765 115.412 655.308C115.412 654.851 115.262 654.482 114.964 654.202C114.674 653.922 114.282 653.782 113.788 653.782H111.1V656.82ZM111.1 652.116H113.69C114.082 652.116 114.394 652.004 114.628 651.78C114.861 651.547 114.978 651.248 114.978 650.884C114.978 650.52 114.861 650.231 114.628 650.016C114.394 649.801 114.082 649.694 113.69 649.694H111.1V652.116ZM122.445 658.668C121.699 658.668 121.017 658.495 120.401 658.15C119.795 657.805 119.309 657.333 118.945 656.736C118.591 656.139 118.413 655.457 118.413 654.692C118.413 653.927 118.591 653.245 118.945 652.648C119.309 652.051 119.795 651.579 120.401 651.234C121.008 650.889 121.689 650.716 122.445 650.716C123.192 650.716 123.869 650.889 124.475 651.234C125.082 651.579 125.563 652.051 125.917 652.648C126.281 653.236 126.463 653.917 126.463 654.692C126.463 655.457 126.281 656.139 125.917 656.736C125.553 657.333 125.068 657.805 124.461 658.15C123.855 658.495 123.183 658.668 122.445 658.668ZM122.445 656.988C122.856 656.988 123.215 656.89 123.523 656.694C123.841 656.498 124.088 656.227 124.265 655.882C124.452 655.527 124.545 655.131 124.545 654.692C124.545 654.244 124.452 653.852 124.265 653.516C124.088 653.171 123.841 652.9 123.523 652.704C123.215 652.499 122.856 652.396 122.445 652.396C122.025 652.396 121.657 652.499 121.339 652.704C121.022 652.9 120.77 653.171 120.583 653.516C120.406 653.852 120.317 654.244 120.317 654.692C120.317 655.131 120.406 655.527 120.583 655.882C120.77 656.227 121.022 656.498 121.339 656.694C121.657 656.89 122.025 656.988 122.445 656.988ZM130.164 658.668C129.632 658.668 129.17 658.579 128.778 658.402C128.386 658.225 128.083 657.973 127.868 657.646C127.653 657.31 127.546 656.923 127.546 656.484C127.546 656.064 127.639 655.691 127.826 655.364C128.013 655.028 128.302 654.748 128.694 654.524C129.086 654.3 129.581 654.141 130.178 654.048L132.67 653.642V655.042L130.528 655.406C130.164 655.471 129.893 655.588 129.716 655.756C129.539 655.924 129.45 656.143 129.45 656.414C129.45 656.675 129.548 656.885 129.744 657.044C129.949 657.193 130.201 657.268 130.5 657.268C130.883 657.268 131.219 657.189 131.508 657.03C131.807 656.862 132.035 656.633 132.194 656.344C132.362 656.055 132.446 655.737 132.446 655.392V653.432C132.446 653.105 132.315 652.835 132.054 652.62C131.802 652.396 131.466 652.284 131.046 652.284C130.654 652.284 130.304 652.391 129.996 652.606C129.697 652.811 129.478 653.087 129.338 653.432L127.84 652.704C127.989 652.303 128.223 651.957 128.54 651.668C128.867 651.369 129.249 651.136 129.688 650.968C130.127 650.8 130.603 650.716 131.116 650.716C131.741 650.716 132.292 650.833 132.768 651.066C133.244 651.29 133.613 651.607 133.874 652.018C134.145 652.419 134.28 652.891 134.28 653.432V658.5H132.544V657.198L132.936 657.17C132.74 657.497 132.507 657.772 132.236 657.996C131.965 658.211 131.657 658.379 131.312 658.5C130.967 658.612 130.584 658.668 130.164 658.668ZM141.403 658.5L137.763 648.07H139.835L142.691 656.708H142.285L145.141 648.07H147.213L143.587 658.5H141.403ZM148.225 658.5V650.884H150.059V658.5H148.225ZM148.225 650.03V648.07H150.059V650.03H148.225ZM154.65 658.668C153.838 658.668 153.129 658.477 152.522 658.094C151.925 657.702 151.514 657.175 151.29 656.512L152.662 655.854C152.858 656.283 153.129 656.619 153.474 656.862C153.829 657.105 154.221 657.226 154.65 657.226C154.986 657.226 155.252 657.151 155.448 657.002C155.644 656.853 155.742 656.657 155.742 656.414C155.742 656.265 155.7 656.143 155.616 656.05C155.542 655.947 155.434 655.863 155.294 655.798C155.164 655.723 155.019 655.663 154.86 655.616L153.614 655.266C152.97 655.079 152.48 654.795 152.144 654.412C151.818 654.029 151.654 653.577 151.654 653.054C151.654 652.587 151.771 652.181 152.004 651.836C152.247 651.481 152.578 651.206 152.998 651.01C153.428 650.814 153.918 650.716 154.468 650.716C155.187 650.716 155.822 650.889 156.372 651.234C156.923 651.579 157.315 652.065 157.548 652.69L156.148 653.348C156.018 653.003 155.798 652.727 155.49 652.522C155.182 652.317 154.837 652.214 154.454 652.214C154.146 652.214 153.904 652.284 153.726 652.424C153.549 652.564 153.46 652.746 153.46 652.97C153.46 653.11 153.498 653.231 153.572 653.334C153.647 653.437 153.75 653.521 153.88 653.586C154.02 653.651 154.179 653.712 154.356 653.768L155.574 654.132C156.2 654.319 156.68 654.599 157.016 654.972C157.362 655.345 157.534 655.803 157.534 656.344C157.534 656.801 157.413 657.207 157.17 657.562C156.928 657.907 156.592 658.178 156.162 658.374C155.733 658.57 155.229 658.668 154.65 658.668ZM162.416 658.584C161.557 658.584 160.89 658.351 160.414 657.884C159.947 657.408 159.714 656.741 159.714 655.882V652.522H158.398V650.884H158.538C158.911 650.884 159.201 650.786 159.406 650.59C159.611 650.394 159.714 650.109 159.714 649.736V649.148H161.548V650.884H163.298V652.522H161.548V655.784C161.548 656.036 161.59 656.251 161.674 656.428C161.767 656.605 161.907 656.741 162.094 656.834C162.29 656.927 162.537 656.974 162.836 656.974C162.901 656.974 162.976 656.969 163.06 656.96C163.153 656.951 163.242 656.941 163.326 656.932V658.5C163.195 658.519 163.046 658.537 162.878 658.556C162.71 658.575 162.556 658.584 162.416 658.584ZM167.01 658.668C166.478 658.668 166.016 658.579 165.624 658.402C165.232 658.225 164.928 657.973 164.714 657.646C164.499 657.31 164.392 656.923 164.392 656.484C164.392 656.064 164.485 655.691 164.672 655.364C164.858 655.028 165.148 654.748 165.54 654.524C165.932 654.3 166.426 654.141 167.024 654.048L169.516 653.642V655.042L167.374 655.406C167.01 655.471 166.739 655.588 166.562 655.756C166.384 655.924 166.296 656.143 166.296 656.414C166.296 656.675 166.394 656.885 166.59 657.044C166.795 657.193 167.047 657.268 167.346 657.268C167.728 657.268 168.064 657.189 168.354 657.03C168.652 656.862 168.881 656.633 169.04 656.344C169.208 656.055 169.292 655.737 169.292 655.392V653.432C169.292 653.105 169.161 652.835 168.9 652.62C168.648 652.396 168.312 652.284 167.892 652.284C167.5 652.284 167.15 652.391 166.842 652.606C166.543 652.811 166.324 653.087 166.184 653.432L164.686 652.704C164.835 652.303 165.068 651.957 165.386 651.668C165.712 651.369 166.095 651.136 166.534 650.968C166.972 650.8 167.448 650.716 167.962 650.716C168.587 650.716 169.138 650.833 169.614 651.066C170.09 651.29 170.458 651.607 170.72 652.018C170.99 652.419 171.126 652.891 171.126 653.432V658.5H169.39V657.198L169.782 657.17C169.586 657.497 169.352 657.772 169.082 657.996C168.811 658.211 168.503 658.379 168.158 658.5C167.812 658.612 167.43 658.668 167.01 658.668ZM175.463 658.5V648.07H176.947L182.687 655.798L181.917 655.952V648.07H183.821V658.5H182.323L176.667 650.716L177.367 650.562V658.5H175.463ZM189.41 658.668C188.663 658.668 187.982 658.495 187.366 658.15C186.759 657.805 186.274 657.333 185.91 656.736C185.555 656.139 185.378 655.457 185.378 654.692C185.378 653.927 185.555 653.245 185.91 652.648C186.274 652.051 186.759 651.579 187.366 651.234C187.973 650.889 188.654 650.716 189.41 650.716C190.157 650.716 190.833 650.889 191.44 651.234C192.047 651.579 192.527 652.051 192.882 652.648C193.246 653.236 193.428 653.917 193.428 654.692C193.428 655.457 193.246 656.139 192.882 656.736C192.518 657.333 192.033 657.805 191.426 658.15C190.819 658.495 190.147 658.668 189.41 658.668ZM189.41 656.988C189.821 656.988 190.18 656.89 190.488 656.694C190.805 656.498 191.053 656.227 191.23 655.882C191.417 655.527 191.51 655.131 191.51 654.692C191.51 654.244 191.417 653.852 191.23 653.516C191.053 653.171 190.805 652.9 190.488 652.704C190.18 652.499 189.821 652.396 189.41 652.396C188.99 652.396 188.621 652.499 188.304 652.704C187.987 652.9 187.735 653.171 187.548 653.516C187.371 653.852 187.282 654.244 187.282 654.692C187.282 655.131 187.371 655.527 187.548 655.882C187.735 656.227 187.987 656.498 188.304 656.694C188.621 656.89 188.99 656.988 189.41 656.988ZM194.819 658.5V650.884H196.541V652.578L196.401 652.326C196.578 651.757 196.854 651.36 197.227 651.136C197.61 650.912 198.067 650.8 198.599 650.8H199.047V652.424H198.389C197.866 652.424 197.446 652.587 197.129 652.914C196.812 653.231 196.653 653.679 196.653 654.258V658.5H194.819ZM200.055 658.5V650.884H201.777V652.382L201.637 652.116C201.815 651.659 202.104 651.313 202.505 651.08C202.916 650.837 203.392 650.716 203.933 650.716C204.493 650.716 204.988 650.837 205.417 651.08C205.856 651.323 206.197 651.663 206.439 652.102C206.682 652.531 206.803 653.031 206.803 653.6V658.5H204.969V654.034C204.969 653.698 204.904 653.409 204.773 653.166C204.643 652.923 204.461 652.737 204.227 652.606C204.003 652.466 203.737 652.396 203.429 652.396C203.131 652.396 202.865 652.466 202.631 652.606C202.398 652.737 202.216 652.923 202.085 653.166C201.955 653.409 201.889 653.698 201.889 654.034V658.5H200.055ZM210.664 658.668C210.132 658.668 209.67 658.579 209.278 658.402C208.886 658.225 208.583 657.973 208.368 657.646C208.153 657.31 208.046 656.923 208.046 656.484C208.046 656.064 208.139 655.691 208.326 655.364C208.513 655.028 208.802 654.748 209.194 654.524C209.586 654.3 210.081 654.141 210.678 654.048L213.17 653.642V655.042L211.028 655.406C210.664 655.471 210.393 655.588 210.216 655.756C210.039 655.924 209.95 656.143 209.95 656.414C209.95 656.675 210.048 656.885 210.244 657.044C210.449 657.193 210.701 657.268 211 657.268C211.383 657.268 211.719 657.189 212.008 657.03C212.307 656.862 212.535 656.633 212.694 656.344C212.862 656.055 212.946 655.737 212.946 655.392V653.432C212.946 653.105 212.815 652.835 212.554 652.62C212.302 652.396 211.966 652.284 211.546 652.284C211.154 652.284 210.804 652.391 210.496 652.606C210.197 652.811 209.978 653.087 209.838 653.432L208.34 652.704C208.489 652.303 208.723 651.957 209.04 651.668C209.367 651.369 209.749 651.136 210.188 650.968C210.627 650.8 211.103 650.716 211.616 650.716C212.241 650.716 212.792 650.833 213.268 651.066C213.744 651.29 214.113 651.607 214.374 652.018C214.645 652.419 214.78 652.891 214.78 653.432V658.5H213.044V657.198L213.436 657.17C213.24 657.497 213.007 657.772 212.736 657.996C212.465 658.211 212.157 658.379 211.812 658.5C211.467 658.612 211.084 658.668 210.664 658.668ZM219.373 658.668C218.561 658.668 217.852 658.477 217.245 658.094C216.648 657.702 216.237 657.175 216.013 656.512L217.385 655.854C217.581 656.283 217.852 656.619 218.197 656.862C218.552 657.105 218.944 657.226 219.373 657.226C219.709 657.226 219.975 657.151 220.171 657.002C220.367 656.853 220.465 656.657 220.465 656.414C220.465 656.265 220.423 656.143 220.339 656.05C220.264 655.947 220.157 655.863 220.017 655.798C219.886 655.723 219.742 655.663 219.583 655.616L218.337 655.266C217.693 655.079 217.203 654.795 216.867 654.412C216.54 654.029 216.377 653.577 216.377 653.054C216.377 652.587 216.494 652.181 216.727 651.836C216.97 651.481 217.301 651.206 217.721 651.01C218.15 650.814 218.64 650.716 219.191 650.716C219.91 650.716 220.544 650.889 221.095 651.234C221.646 651.579 222.038 652.065 222.271 652.69L220.871 653.348C220.74 653.003 220.521 652.727 220.213 652.522C219.905 652.317 219.56 652.214 219.177 652.214C218.869 652.214 218.626 652.284 218.449 652.424C218.272 652.564 218.183 652.746 218.183 652.97C218.183 653.11 218.22 653.231 218.295 653.334C218.37 653.437 218.472 653.521 218.603 653.586C218.743 653.651 218.902 653.712 219.079 653.768L220.297 654.132C220.922 654.319 221.403 654.599 221.739 654.972C222.084 655.345 222.257 655.803 222.257 656.344C222.257 656.801 222.136 657.207 221.893 657.562C221.65 657.907 221.314 658.178 220.885 658.374C220.456 658.57 219.952 658.668 219.373 658.668Z" fill="white"></path>
<path d="M109.079 676.5V669.05H113.679V669.8H109.879V672.39H113.379V673.14H109.879V676.5H109.079ZM114.78 676.5V668.93H115.53V676.5H114.78ZM118.615 676.62C118.275 676.62 117.972 676.557 117.705 676.43C117.438 676.297 117.228 676.117 117.075 675.89C116.922 675.663 116.845 675.403 116.845 675.11C116.845 674.83 116.905 674.577 117.025 674.35C117.145 674.117 117.332 673.92 117.585 673.76C117.838 673.6 118.162 673.487 118.555 673.42L120.655 673.07V673.75L118.735 674.07C118.348 674.137 118.068 674.26 117.895 674.44C117.728 674.62 117.645 674.833 117.645 675.08C117.645 675.32 117.738 675.523 117.925 675.69C118.118 675.857 118.365 675.94 118.665 675.94C119.032 675.94 119.352 675.863 119.625 675.71C119.898 675.55 120.112 675.337 120.265 675.07C120.418 674.803 120.495 674.507 120.495 674.18V672.82C120.495 672.5 120.378 672.24 120.145 672.04C119.912 671.84 119.608 671.74 119.235 671.74C118.908 671.74 118.622 671.823 118.375 671.99C118.128 672.15 117.945 672.36 117.825 672.62L117.145 672.25C117.245 672.023 117.402 671.817 117.615 671.63C117.835 671.443 118.085 671.297 118.365 671.19C118.645 671.077 118.935 671.02 119.235 671.02C119.628 671.02 119.975 671.097 120.275 671.25C120.582 671.403 120.818 671.617 120.985 671.89C121.158 672.157 121.245 672.467 121.245 672.82V676.5H120.495V675.43L120.605 675.54C120.512 675.74 120.365 675.923 120.165 676.09C119.972 676.25 119.742 676.38 119.475 676.48C119.215 676.573 118.928 676.62 118.615 676.62ZM125.328 678.7C124.961 678.7 124.621 678.643 124.308 678.53C124.001 678.417 123.734 678.26 123.508 678.06C123.288 677.867 123.118 677.64 122.998 677.38L123.688 677.01C123.794 677.263 123.984 677.483 124.258 677.67C124.531 677.857 124.881 677.95 125.308 677.95C125.634 677.95 125.934 677.887 126.208 677.76C126.481 677.633 126.701 677.447 126.868 677.2C127.034 676.953 127.118 676.65 127.118 676.29V675.1L127.238 675.21C127.051 675.597 126.774 675.897 126.408 676.11C126.041 676.317 125.641 676.42 125.208 676.42C124.708 676.42 124.258 676.3 123.858 676.06C123.458 675.82 123.141 675.497 122.908 675.09C122.681 674.677 122.568 674.22 122.568 673.72C122.568 673.213 122.681 672.757 122.908 672.35C123.141 671.943 123.454 671.62 123.848 671.38C124.248 671.14 124.701 671.02 125.208 671.02C125.641 671.02 126.034 671.12 126.388 671.32C126.748 671.52 127.031 671.79 127.238 672.13L127.118 672.34V671.14H127.868V676.29C127.868 676.75 127.758 677.16 127.538 677.52C127.324 677.887 127.024 678.173 126.638 678.38C126.258 678.593 125.821 678.7 125.328 678.7ZM125.248 675.67C125.594 675.67 125.908 675.583 126.188 675.41C126.468 675.23 126.691 674.993 126.858 674.7C127.031 674.4 127.118 674.073 127.118 673.72C127.118 673.367 127.031 673.043 126.858 672.75C126.691 672.45 126.468 672.213 126.188 672.04C125.908 671.86 125.594 671.77 125.248 671.77C124.894 671.77 124.574 671.86 124.288 672.04C124.001 672.213 123.774 672.447 123.608 672.74C123.448 673.033 123.368 673.36 123.368 673.72C123.368 674.073 123.448 674.4 123.608 674.7C123.774 674.993 123.998 675.23 124.278 675.41C124.564 675.583 124.888 675.67 125.248 675.67ZM131.218 676.5V669.05H135.818V669.8H132.018V672.39H135.518V673.14H132.018V676.5H131.218ZM139.233 676.62C138.726 676.62 138.266 676.5 137.853 676.26C137.44 676.013 137.11 675.68 136.863 675.26C136.623 674.833 136.503 674.35 136.503 673.81C136.503 673.277 136.623 672.8 136.863 672.38C137.103 671.96 137.426 671.63 137.833 671.39C138.246 671.143 138.713 671.02 139.233 671.02C139.753 671.02 140.216 671.14 140.623 671.38C141.036 671.62 141.36 671.95 141.593 672.37C141.833 672.79 141.953 673.27 141.953 673.81C141.953 674.357 141.83 674.843 141.583 675.27C141.336 675.69 141.006 676.02 140.593 676.26C140.186 676.5 139.733 676.62 139.233 676.62ZM139.233 675.87C139.593 675.87 139.916 675.78 140.203 675.6C140.496 675.42 140.726 675.173 140.893 674.86C141.066 674.547 141.153 674.197 141.153 673.81C141.153 673.423 141.066 673.077 140.893 672.77C140.726 672.463 140.496 672.22 140.203 672.04C139.916 671.86 139.593 671.77 139.233 671.77C138.873 671.77 138.546 671.86 138.253 672.04C137.966 672.22 137.736 672.463 137.563 672.77C137.39 673.077 137.303 673.423 137.303 673.81C137.303 674.197 137.39 674.547 137.563 674.86C137.736 675.173 137.966 675.42 138.253 675.6C138.546 675.78 138.873 675.87 139.233 675.87ZM145.786 676.62C145.279 676.62 144.819 676.5 144.406 676.26C143.993 676.013 143.663 675.68 143.416 675.26C143.176 674.833 143.056 674.35 143.056 673.81C143.056 673.277 143.176 672.8 143.416 672.38C143.656 671.96 143.979 671.63 144.386 671.39C144.799 671.143 145.266 671.02 145.786 671.02C146.306 671.02 146.769 671.14 147.176 671.38C147.589 671.62 147.913 671.95 148.146 672.37C148.386 672.79 148.506 673.27 148.506 673.81C148.506 674.357 148.383 674.843 148.136 675.27C147.889 675.69 147.559 676.02 147.146 676.26C146.739 676.5 146.286 676.62 145.786 676.62ZM145.786 675.87C146.146 675.87 146.469 675.78 146.756 675.6C147.049 675.42 147.279 675.173 147.446 674.86C147.619 674.547 147.706 674.197 147.706 673.81C147.706 673.423 147.619 673.077 147.446 672.77C147.279 672.463 147.049 672.22 146.756 672.04C146.469 671.86 146.146 671.77 145.786 671.77C145.426 671.77 145.099 671.86 144.806 672.04C144.519 672.22 144.289 672.463 144.116 672.77C143.943 673.077 143.856 673.423 143.856 673.81C143.856 674.197 143.943 674.547 144.116 674.86C144.289 675.173 144.519 675.42 144.806 675.6C145.099 675.78 145.426 675.87 145.786 675.87ZM151.781 676.56C151.301 676.56 150.931 676.42 150.671 676.14C150.411 675.86 150.281 675.46 150.281 674.94V671.89H149.291V671.14H149.541C149.768 671.14 149.948 671.067 150.081 670.92C150.214 670.767 150.281 670.577 150.281 670.35V669.9H151.031V671.14H152.211V671.89H151.031V674.94C151.031 675.12 151.058 675.28 151.111 675.42C151.164 675.553 151.254 675.66 151.381 675.74C151.514 675.82 151.691 675.86 151.911 675.86C151.964 675.86 152.028 675.857 152.101 675.85C152.174 675.843 152.238 675.837 152.291 675.83V676.5C152.211 676.52 152.121 676.533 152.021 676.54C151.921 676.553 151.841 676.56 151.781 676.56ZM156.318 676.62C155.858 676.62 155.441 676.517 155.068 676.31C154.701 676.097 154.425 675.797 154.238 675.41L154.358 675.3V676.5H153.608V668.93H154.358V672.34L154.238 672.13C154.451 671.79 154.735 671.52 155.088 671.32C155.448 671.12 155.858 671.02 156.318 671.02C156.825 671.02 157.275 671.143 157.668 671.39C158.068 671.63 158.381 671.96 158.608 672.38C158.841 672.8 158.958 673.28 158.958 673.82C158.958 674.353 158.841 674.833 158.608 675.26C158.381 675.68 158.068 676.013 157.668 676.26C157.275 676.5 156.825 676.62 156.318 676.62ZM156.278 675.87C156.638 675.87 156.958 675.78 157.238 675.6C157.525 675.42 157.748 675.177 157.908 674.87C158.075 674.557 158.158 674.207 158.158 673.82C158.158 673.427 158.075 673.077 157.908 672.77C157.748 672.463 157.525 672.22 157.238 672.04C156.958 671.86 156.638 671.77 156.278 671.77C155.918 671.77 155.591 671.86 155.298 672.04C155.011 672.22 154.781 672.467 154.608 672.78C154.441 673.087 154.358 673.433 154.358 673.82C154.358 674.207 154.441 674.557 154.608 674.87C154.781 675.177 155.011 675.42 155.298 675.6C155.591 675.78 155.918 675.87 156.278 675.87ZM161.828 676.62C161.488 676.62 161.184 676.557 160.918 676.43C160.651 676.297 160.441 676.117 160.288 675.89C160.134 675.663 160.058 675.403 160.058 675.11C160.058 674.83 160.118 674.577 160.238 674.35C160.358 674.117 160.544 673.92 160.798 673.76C161.051 673.6 161.374 673.487 161.768 673.42L163.868 673.07V673.75L161.948 674.07C161.561 674.137 161.281 674.26 161.108 674.44C160.941 674.62 160.858 674.833 160.858 675.08C160.858 675.32 160.951 675.523 161.138 675.69C161.331 675.857 161.578 675.94 161.878 675.94C162.244 675.94 162.564 675.863 162.838 675.71C163.111 675.55 163.324 675.337 163.478 675.07C163.631 674.803 163.708 674.507 163.708 674.18V672.82C163.708 672.5 163.591 672.24 163.358 672.04C163.124 671.84 162.821 671.74 162.448 671.74C162.121 671.74 161.834 671.823 161.588 671.99C161.341 672.15 161.158 672.36 161.038 672.62L160.358 672.25C160.458 672.023 160.614 671.817 160.828 671.63C161.048 671.443 161.298 671.297 161.578 671.19C161.858 671.077 162.148 671.02 162.448 671.02C162.841 671.02 163.188 671.097 163.488 671.25C163.794 671.403 164.031 671.617 164.198 671.89C164.371 672.157 164.458 672.467 164.458 672.82V676.5H163.708V675.43L163.818 675.54C163.724 675.74 163.578 675.923 163.378 676.09C163.184 676.25 162.954 676.38 162.688 676.48C162.428 676.573 162.141 676.62 161.828 676.62ZM166 676.5V668.93H166.75V676.5H166ZM168.286 676.5V668.93H169.036V676.5H168.286Z" fill="white"></path>
<path d="M333.25 655.5H328.75L333.75 662.5L328.75 669.5H333.25L338.25 662.5L333.25 655.5Z" fill="#C7EF66"></path>
<path d="M326.25 655.5H321.75L326.75 662.5L321.75 669.5H326.25L331.25 662.5L326.25 655.5Z" fill="#C7EF66"></path>
<path d="M45.0003 769.333L46.1753 770.508L41.5253 775.167H51.667V776.833H41.5253L46.1753 781.492L45.0003 782.667L38.3337 776L45.0003 769.333Z" fill="white"></path>
<path d="M62.976 783L59.154 772.57H60.316L63.676 782.006H63.452L66.798 772.57H67.974L64.152 783H62.976ZM72.0275 783.168C71.3182 783.168 70.6742 783 70.0955 782.664C69.5169 782.319 69.0549 781.852 68.7095 781.264C68.3735 780.667 68.2055 779.99 68.2055 779.234C68.2055 778.487 68.3735 777.82 68.7095 777.232C69.0455 776.644 69.4982 776.182 70.0675 775.846C70.6462 775.501 71.2995 775.328 72.0275 775.328C72.7555 775.328 73.4042 775.496 73.9735 775.832C74.5522 776.168 75.0049 776.63 75.3315 777.218C75.6675 777.806 75.8355 778.478 75.8355 779.234C75.8355 779.999 75.6629 780.681 75.3175 781.278C74.9722 781.866 74.5102 782.328 73.9315 782.664C73.3622 783 72.7275 783.168 72.0275 783.168ZM72.0275 782.118C72.5315 782.118 72.9842 781.992 73.3855 781.74C73.7962 781.488 74.1182 781.143 74.3515 780.704C74.5942 780.265 74.7155 779.775 74.7155 779.234C74.7155 778.693 74.5942 778.207 74.3515 777.778C74.1182 777.349 73.7962 777.008 73.3855 776.756C72.9842 776.504 72.5315 776.378 72.0275 776.378C71.5235 776.378 71.0662 776.504 70.6555 776.756C70.2542 777.008 69.9322 777.349 69.6895 777.778C69.4469 778.207 69.3255 778.693 69.3255 779.234C69.3255 779.775 69.4469 780.265 69.6895 780.704C69.9322 781.143 70.2542 781.488 70.6555 781.74C71.0662 781.992 71.5235 782.118 72.0275 782.118ZM77.6874 783V772.402H78.7374V783H77.6874ZM83.7566 783.084C83.0846 783.084 82.5666 782.888 82.2026 782.496C81.8386 782.104 81.6566 781.544 81.6566 780.816V776.546H80.2706V775.496H80.6206C80.9379 775.496 81.1899 775.393 81.3766 775.188C81.5633 774.973 81.6566 774.707 81.6566 774.39V773.76H82.7066V775.496H84.3586V776.546H82.7066V780.816C82.7066 781.068 82.7439 781.292 82.8186 781.488C82.8933 781.675 83.0193 781.824 83.1966 781.936C83.3833 782.048 83.6306 782.104 83.9386 782.104C84.0133 782.104 84.1019 782.099 84.2046 782.09C84.3073 782.081 84.3959 782.071 84.4706 782.062V783C84.3586 783.028 84.2326 783.047 84.0926 783.056C83.9526 783.075 83.8406 783.084 83.7566 783.084ZM88.3476 783.168C87.8716 783.168 87.4469 783.079 87.0736 782.902C86.7003 782.715 86.4063 782.463 86.1916 782.146C85.9769 781.829 85.8696 781.465 85.8696 781.054C85.8696 780.662 85.9536 780.307 86.1216 779.99C86.2896 779.663 86.5509 779.388 86.9056 779.164C87.2603 778.94 87.7129 778.781 88.2636 778.688L91.2036 778.198V779.15L88.5156 779.598C87.9743 779.691 87.5823 779.864 87.3396 780.116C87.1063 780.368 86.9896 780.667 86.9896 781.012C86.9896 781.348 87.1203 781.633 87.3816 781.866C87.6523 782.099 87.9976 782.216 88.4176 782.216C88.9309 782.216 89.3789 782.109 89.7616 781.894C90.1443 781.67 90.4429 781.371 90.6576 780.998C90.8723 780.625 90.9796 780.209 90.9796 779.752V777.848C90.9796 777.4 90.8163 777.036 90.4896 776.756C90.1629 776.476 89.7383 776.336 89.2156 776.336C88.7583 776.336 88.3569 776.453 88.0116 776.686C87.6663 776.91 87.4096 777.204 87.2416 777.568L86.2896 777.05C86.4296 776.733 86.6489 776.443 86.9476 776.182C87.2556 775.921 87.6056 775.715 87.9976 775.566C88.3896 775.407 88.7956 775.328 89.2156 775.328C89.7663 775.328 90.2516 775.435 90.6716 775.65C91.1009 775.865 91.4323 776.163 91.6656 776.546C91.9083 776.919 92.0296 777.353 92.0296 777.848V783H90.9796V781.502L91.1336 781.656C91.0029 781.936 90.7976 782.193 90.5176 782.426C90.2469 782.65 89.9249 782.832 89.5516 782.972C89.1876 783.103 88.7863 783.168 88.3476 783.168ZM94.1893 783V775.496H95.2393V776.728L95.0993 776.546C95.2767 776.191 95.5427 775.911 95.8973 775.706C96.2613 775.501 96.7 775.398 97.2133 775.398H97.6893V776.448H97.0313C96.49 776.448 96.056 776.616 95.7293 776.952C95.4027 777.288 95.2393 777.764 95.2393 778.38V783H94.1893Z" fill="white"></path>
</g>
<defs>
<pattern id="pattern0_31_7633" patternContentUnits="objectBoundingBox" width="1" height="1">
<use xlink:href="#image0_31_7633" transform="matrix(0.000833333 0 0 0.000674764 0 -0.25641)"></use>
</pattern>
<pattern id="pattern1_31_7633" patternContentUnits="objectBoundingBox" width="1" height="1">
<use xlink:href="#image1_31_7633" transform="scale(0.00444444)"></use>
</pattern>
<pattern id="pattern2_31_7633" patternContentUnits="objectBoundingBox" width="1" height="1">
<use xlink:href="#image2_31_7633" transform="scale(0.00444444)"></use>
</pattern>
<clipPath id="clip0_31_7633">
<rect width="393" height="852" fill="white"></rect>
</clipPath>
<image id="image0_31_7633" width="1200" height="2130" preserveAspectRatio="none"></image>
<image id="image1_31_7633" width="225" height="225" preserveAspectRatio="none"></image>
<image id="image2_31_7633" width="225" height="225" preserveAspectRatio="none"></image>
</defs>
</svg>