<svg width="186" height="171" viewBox="0 0 186 171" fill="none" xmlns="http://www.w3.org/2000/svg">
<path d="M91.2432 0C92.5375 1.20493 99.6123 14.5841 101.011 17.0342C119.626 49.6863 137.437 82.9107 156.279 115.425C135.978 126.448 113.74 137.396 93.0654 148.13C92.6487 148.38 91.5924 149.001 91.125 148.757C70.6073 137.985 49.4456 126.762 29.1162 115.781L91.2432 0ZM93.3604 62.5908C86.2016 74.4398 79.642 87.1448 72.4502 98.8428L93.4355 110.235L113.92 98.917C109.173 90.5677 104.483 82.1874 99.8467 73.7764C98.747 71.7937 94.46 63.771 93.3604 62.5908Z" fill="#C7EF66"></path>
<path d="M24.3311 127.205C26.5009 128.76 32.0784 131.633 34.5996 132.983L52.7305 142.692C48.2782 151.037 42.8976 161.504 38.9395 170.039C35.5818 170.14 31.807 170.057 28.417 170.061L0 170.018C2.71902 165.72 5.9314 159.659 8.49805 155.122L24.3311 127.205ZM161.533 126.076C163.162 127.541 183.089 163.509 185.716 168.184L155.884 168.148C152.862 168.163 149.843 168.158 146.824 168.133C143.554 161.221 135.496 147.823 131.568 141.065C133.099 140.419 134.939 139.529 136.42 138.755C144.578 134.496 153.659 130.766 161.533 126.076Z" fill="#C7EF66"></path>
</svg>