<svg width="393" height="852" viewBox="0 0 393 852" fill="none" xmlns="http://www.w3.org/2000/svg" xmlns:xlink="http://www.w3.org/1999/xlink">
<g clip-path="url(#clip0_28_1466)">
<rect width="393" height="852" fill="#C7EF66"></rect>
<rect x="-19" y="51" width="432" height="534" fill="url(#pattern0_28_1466)"></rect>
<path d="M38.8672 35.2122C41.5552 35.2122 43.1519 33.1101 43.1519 29.5505C43.1519 28.2102 42.8955 27.0823 42.4048 26.2107C41.6943 24.8557 40.4712 24.1233 38.9258 24.1233C36.626 24.1233 35 25.6687 35 27.8367C35 29.8728 36.4648 31.3523 38.479 31.3523C39.7168 31.3523 40.7202 30.7737 41.2183 29.7703H41.2402C41.2402 29.7703 41.2695 29.7703 41.2769 29.7703C41.2915 29.7703 41.3428 29.7703 41.3428 29.7703C41.3428 32.1873 40.4272 33.6301 38.8818 33.6301C37.9736 33.6301 37.2705 33.1321 37.0288 32.3337H35.1465C35.4614 34.0696 36.9336 35.2122 38.8672 35.2122ZM38.9331 29.8508C37.7173 29.8508 36.853 28.9866 36.853 27.7781C36.853 26.5989 37.7612 25.698 38.9404 25.698C40.1196 25.698 41.0278 26.6135 41.0278 27.8074C41.0278 28.9866 40.1416 29.8508 38.9331 29.8508Z" fill="black"></path>
<path d="M46.243 35.1096C46.9388 35.1096 47.4148 34.6116 47.4148 33.9524C47.4148 33.2859 46.9388 32.7952 46.243 32.7952C45.5545 32.7952 45.0711 33.2859 45.0711 33.9524C45.0711 34.6116 45.5545 35.1096 46.243 35.1096ZM46.243 29.6165C46.9388 29.6165 47.4148 29.1257 47.4148 28.4666C47.4148 27.8 46.9388 27.3093 46.243 27.3093C45.5545 27.3093 45.0711 27.8 45.0711 28.4666C45.0711 29.1257 45.5545 29.6165 46.243 29.6165Z" fill="black"></path>
<path d="M54.2706 34.9558H56.0797V32.9856H57.5079V31.3889H56.0797V24.387H53.4137C51.546 27.1995 50.0592 29.5505 49.107 31.301V32.9856H54.2706V34.9558ZM50.8575 31.323C52.088 29.155 53.1866 27.4192 54.1974 25.925H54.2999V31.4329H50.8575V31.323Z" fill="black"></path>
<path d="M61.5365 34.9558H63.4262V24.387H61.5438L58.7826 26.3206V28.137L61.412 26.2913H61.5365V34.9558Z" fill="black"></path>
<path opacity="0.35" d="M336.339 24.5027H353.005C354.201 24.5027 355.172 25.4731 355.172 26.6697V32.6697C355.172 33.8661 354.201 34.8357 353.005 34.8357H336.339C335.142 34.8357 334.172 33.8661 334.172 32.6697V26.6697L334.183 26.448C334.293 25.3553 335.217 24.5027 336.339 24.5027Z" stroke="black"></path>
<path opacity="0.4" d="M356.672 27.6694V31.6694C357.477 31.3307 358 30.5426 358 29.6694C358 28.7963 357.477 28.0082 356.672 27.6694Z" fill="black"></path>
<path d="M335.672 27.336C335.672 26.5996 336.269 26.0027 337.005 26.0027H352.339C353.075 26.0027 353.672 26.5996 353.672 27.336V32.0027C353.672 32.7391 353.075 33.336 352.339 33.336H337.005C336.269 33.336 335.672 32.7391 335.672 32.0027V27.336Z" fill="black"></path>
<path d="M318.793 32.4006C320.069 31.3218 321.936 31.3218 323.212 32.4006C323.276 32.4587 323.314 32.5407 323.315 32.6272C323.317 32.7136 323.283 32.7971 323.222 32.8577L321.224 34.8733C321.165 34.9323 321.085 34.9661 321.002 34.9661C320.919 34.9659 320.839 34.9324 320.78 34.8733L318.783 32.8577C318.722 32.7971 318.688 32.7136 318.689 32.6272C318.691 32.5407 318.729 32.4586 318.793 32.4006ZM316.127 29.7112C318.875 27.1548 323.132 27.1549 325.88 29.7112C325.942 29.771 325.978 29.8535 325.979 29.9397C325.979 30.0258 325.945 30.109 325.885 30.1702L324.729 31.3371C324.611 31.4561 324.419 31.4586 324.297 31.343C323.394 30.5258 322.219 30.0734 321.002 30.0735C319.785 30.0741 318.613 30.5265 317.711 31.343C317.589 31.459 317.396 31.4563 317.277 31.3371L316.123 30.1702C316.062 30.1091 316.028 30.0259 316.029 29.9397C316.03 29.8536 316.065 29.771 316.127 29.7112ZM313.462 27.0295C317.677 22.9901 324.327 22.9902 328.542 27.0295C328.603 27.0895 328.637 27.1716 328.638 27.2571C328.638 27.3425 328.605 27.4249 328.545 27.4856L327.389 28.6526C327.27 28.7722 327.076 28.7734 326.955 28.6555C325.349 27.1289 323.218 26.2777 321.002 26.2776C318.786 26.2777 316.655 27.1288 315.049 28.6555C314.928 28.7736 314.734 28.7725 314.615 28.6526L313.459 27.4856C313.399 27.4248 313.366 27.3426 313.366 27.2571C313.367 27.1715 313.401 27.0895 313.462 27.0295Z" fill="black"></path>
<path d="M293.338 31.0029C293.89 31.0029 294.338 31.4506 294.338 32.0029V34.0029C294.338 34.5551 293.89 35.0029 293.338 35.0029H292.338C291.786 35.0027 291.338 34.5549 291.338 34.0029V32.0029C291.338 31.4508 291.786 31.0032 292.338 31.0029H293.338ZM298.005 29.0029C298.557 29.0029 299.005 29.4506 299.005 30.0029V34.0029C299.005 34.5551 298.557 35.0029 298.005 35.0029H297.005C296.453 35.0029 296.005 34.555 296.005 34.0029V30.0029C296.005 29.4507 296.453 29.003 297.005 29.0029H298.005ZM302.672 26.6689C303.224 26.6691 303.672 27.1169 303.672 27.6689V34.0029C303.672 34.555 303.224 35.0028 302.672 35.0029H301.672C301.12 35.0029 300.672 34.5551 300.672 34.0029V27.6689C300.672 27.1168 301.12 26.6689 301.672 26.6689H302.672ZM307.338 24.3359C307.89 24.3359 308.338 24.7837 308.338 25.3359V34.0029C308.338 34.5551 307.89 35.0029 307.338 35.0029H306.338C305.786 35.0027 305.338 34.5549 305.338 34.0029V25.3359C305.338 24.7838 305.786 24.3362 306.338 24.3359H307.338Z" fill="black"></path>
<path d="M0 437C0 430.373 5.37258 425 12 425H381C387.627 425 393 430.373 393 437V852H0V437Z" fill="#1A1A1A"></path>
<path d="M72.8033 503V488.1H79.0833C80.0699 488.1 80.9099 488.273 81.6033 488.62C82.3099 488.953 82.8499 489.433 83.2233 490.06C83.6099 490.673 83.8033 491.42 83.8033 492.3C83.8033 492.98 83.6166 493.62 83.2433 494.22C82.8833 494.807 82.3033 495.293 81.5033 495.68V494.42C82.2366 494.7 82.8166 495.047 83.2433 495.46C83.6699 495.873 83.9699 496.333 84.1433 496.84C84.3166 497.347 84.4033 497.88 84.4033 498.44C84.4033 499.867 83.9299 500.987 82.9833 501.8C82.0499 502.6 80.7499 503 79.0833 503H72.8033ZM75.5233 500.6H79.3633C80.0699 500.6 80.6299 500.407 81.0433 500.02C81.4699 499.62 81.6833 499.093 81.6833 498.44C81.6833 497.787 81.4699 497.26 81.0433 496.86C80.6299 496.46 80.0699 496.26 79.3633 496.26H75.5233V500.6ZM75.5233 493.88H79.2233C79.7833 493.88 80.2299 493.72 80.5633 493.4C80.8966 493.067 81.0633 492.64 81.0633 492.12C81.0633 491.6 80.8966 491.187 80.5633 490.88C80.2299 490.573 79.7833 490.42 79.2233 490.42H75.5233V493.88ZM91.5714 503.24C90.4514 503.24 89.4714 502.987 88.6314 502.48C87.7914 501.973 87.1381 501.287 86.6714 500.42C86.2047 499.553 85.9714 498.593 85.9714 497.54C85.9714 496.447 86.2047 495.48 86.6714 494.64C87.1514 493.787 87.7981 493.113 88.6114 492.62C89.4381 492.127 90.3581 491.88 91.3714 491.88C92.2247 491.88 92.9714 492.02 93.6114 492.3C94.2647 492.58 94.8181 492.967 95.2714 493.46C95.7247 493.953 96.0714 494.52 96.3114 495.16C96.5514 495.787 96.6714 496.467 96.6714 497.2C96.6714 497.387 96.6581 497.58 96.6314 497.78C96.6181 497.98 96.5847 498.153 96.5314 498.3H88.1314V496.3H95.0514L93.8114 497.24C93.9314 496.627 93.8981 496.08 93.7114 495.6C93.5381 495.12 93.2447 494.74 92.8314 494.46C92.4314 494.18 91.9447 494.04 91.3714 494.04C90.8247 494.04 90.3381 494.18 89.9114 494.46C89.4847 494.727 89.1581 495.127 88.9314 495.66C88.7181 496.18 88.6381 496.813 88.6914 497.56C88.6381 498.227 88.7247 498.82 88.9514 499.34C89.1914 499.847 89.5381 500.24 89.9914 500.52C90.4581 500.8 90.9914 500.94 91.5914 500.94C92.1914 500.94 92.6981 500.813 93.1114 500.56C93.5381 500.307 93.8714 499.967 94.1114 499.54L96.2314 500.58C96.0181 501.1 95.6847 501.56 95.2314 501.96C94.7781 502.36 94.2381 502.673 93.6114 502.9C92.9981 503.127 92.3181 503.24 91.5714 503.24ZM98.6575 503V492.12H101.118V494.64L100.838 494.22C101.038 493.433 101.438 492.847 102.038 492.46C102.638 492.073 103.344 491.88 104.158 491.88C105.051 491.88 105.838 492.113 106.518 492.58C107.198 493.047 107.638 493.66 107.838 494.42L107.098 494.48C107.431 493.613 107.931 492.967 108.598 492.54C109.264 492.1 110.031 491.88 110.898 491.88C111.671 491.88 112.358 492.053 112.958 492.4C113.571 492.747 114.051 493.233 114.398 493.86C114.744 494.473 114.918 495.187 114.918 496V503H112.298V496.62C112.298 496.14 112.211 495.727 112.038 495.38C111.864 495.033 111.624 494.767 111.318 494.58C111.011 494.38 110.638 494.28 110.198 494.28C109.784 494.28 109.418 494.38 109.098 494.58C108.778 494.767 108.531 495.033 108.358 495.38C108.184 495.727 108.098 496.14 108.098 496.62V503H105.478V496.62C105.478 496.14 105.391 495.727 105.218 495.38C105.044 495.033 104.798 494.767 104.478 494.58C104.171 494.38 103.804 494.28 103.378 494.28C102.964 494.28 102.598 494.38 102.278 494.58C101.958 494.767 101.711 495.033 101.538 495.38C101.364 495.727 101.278 496.14 101.278 496.62V503H98.6575ZM117.674 498.72V496.42H126.174V498.72H117.674ZM132.406 503L128.126 492.12H130.986L134.086 500.68H133.026L136.146 492.12H139.006L134.726 503H132.406ZM140.454 503V492.12H143.074V503H140.454ZM140.454 490.9V488.1H143.074V490.9H140.454ZM145.493 503V492.12H147.953V494.26L147.753 493.88C148.007 493.227 148.42 492.733 148.993 492.4C149.58 492.053 150.26 491.88 151.033 491.88C151.833 491.88 152.54 492.053 153.153 492.4C153.78 492.747 154.267 493.233 154.613 493.86C154.96 494.473 155.133 495.187 155.133 496V503H152.513V496.62C152.513 496.14 152.42 495.727 152.233 495.38C152.047 495.033 151.787 494.767 151.453 494.58C151.133 494.38 150.753 494.28 150.313 494.28C149.887 494.28 149.507 494.38 149.173 494.58C148.84 494.767 148.58 495.033 148.393 495.38C148.207 495.727 148.113 496.14 148.113 496.62V503H145.493ZM162.409 503.24C161.356 503.24 160.416 502.993 159.589 502.5C158.762 501.993 158.109 501.307 157.629 500.44C157.149 499.573 156.909 498.613 156.909 497.56C156.909 496.493 157.149 495.533 157.629 494.68C158.109 493.827 158.762 493.147 159.589 492.64C160.429 492.133 161.362 491.88 162.389 491.88C163.216 491.88 163.949 492.047 164.589 492.38C165.242 492.7 165.756 493.153 166.129 493.74L165.729 494.28V487.86H168.349V503H165.869V500.9L166.149 501.42C165.776 502.007 165.256 502.46 164.589 502.78C163.922 503.087 163.196 503.24 162.409 503.24ZM162.689 500.84C163.289 500.84 163.816 500.7 164.269 500.42C164.722 500.14 165.076 499.753 165.329 499.26C165.596 498.767 165.729 498.2 165.729 497.56C165.729 496.933 165.596 496.373 165.329 495.88C165.076 495.373 164.722 494.98 164.269 494.7C163.816 494.42 163.289 494.28 162.689 494.28C162.102 494.28 161.576 494.427 161.109 494.72C160.642 495 160.276 495.387 160.009 495.88C159.756 496.36 159.629 496.92 159.629 497.56C159.629 498.2 159.756 498.767 160.009 499.26C160.276 499.753 160.642 500.14 161.109 500.42C161.576 500.7 162.102 500.84 162.689 500.84ZM176.106 503.24C175.04 503.24 174.066 502.993 173.186 502.5C172.32 502.007 171.626 501.333 171.106 500.48C170.6 499.627 170.346 498.653 170.346 497.56C170.346 496.467 170.6 495.493 171.106 494.64C171.626 493.787 172.32 493.113 173.186 492.62C174.053 492.127 175.026 491.88 176.106 491.88C177.173 491.88 178.14 492.127 179.006 492.62C179.873 493.113 180.56 493.787 181.066 494.64C181.586 495.48 181.846 496.453 181.846 497.56C181.846 498.653 181.586 499.627 181.066 500.48C180.546 501.333 179.853 502.007 178.986 502.5C178.12 502.993 177.16 503.24 176.106 503.24ZM176.106 500.84C176.693 500.84 177.206 500.7 177.646 500.42C178.1 500.14 178.453 499.753 178.706 499.26C178.973 498.753 179.106 498.187 179.106 497.56C179.106 496.92 178.973 496.36 178.706 495.88C178.453 495.387 178.1 495 177.646 494.72C177.206 494.427 176.693 494.28 176.106 494.28C175.506 494.28 174.98 494.427 174.526 494.72C174.073 495 173.713 495.387 173.446 495.88C173.193 496.36 173.066 496.92 173.066 497.56C173.066 498.187 173.193 498.753 173.446 499.26C173.713 499.753 174.073 500.14 174.526 500.42C174.98 500.7 175.506 500.84 176.106 500.84ZM187.273 506.4C186.153 505.093 185.307 503.673 184.733 502.14C184.173 500.607 183.893 498.973 183.893 497.24C183.893 495.507 184.173 493.873 184.733 492.34C185.293 490.807 186.14 489.393 187.273 488.1H189.473C188.513 489.527 187.793 491.007 187.313 492.54C186.847 494.06 186.613 495.627 186.613 497.24C186.613 498.853 186.853 500.427 187.333 501.96C187.813 503.493 188.527 504.973 189.473 506.4H187.273ZM194.711 503.24C193.951 503.24 193.291 503.113 192.731 502.86C192.171 502.607 191.738 502.247 191.431 501.78C191.125 501.3 190.971 500.747 190.971 500.12C190.971 499.52 191.105 498.987 191.371 498.52C191.638 498.04 192.051 497.64 192.611 497.32C193.171 497 193.878 496.773 194.731 496.64L198.291 496.06V498.06L195.231 498.58C194.711 498.673 194.325 498.84 194.071 499.08C193.818 499.32 193.691 499.633 193.691 500.02C193.691 500.393 193.831 500.693 194.111 500.92C194.405 501.133 194.765 501.24 195.191 501.24C195.738 501.24 196.218 501.127 196.631 500.9C197.058 500.66 197.385 500.333 197.611 499.92C197.851 499.507 197.971 499.053 197.971 498.56V495.76C197.971 495.293 197.785 494.907 197.411 494.6C197.051 494.28 196.571 494.12 195.971 494.12C195.411 494.12 194.911 494.273 194.471 494.58C194.045 494.873 193.731 495.267 193.531 495.76L191.391 494.72C191.605 494.147 191.938 493.653 192.391 493.24C192.858 492.813 193.405 492.48 194.031 492.24C194.658 492 195.338 491.88 196.071 491.88C196.965 491.88 197.751 492.047 198.431 492.38C199.111 492.7 199.638 493.153 200.011 493.74C200.398 494.313 200.591 494.987 200.591 495.76V503H198.111V501.14L198.671 501.1C198.391 501.567 198.058 501.96 197.671 502.28C197.285 502.587 196.845 502.827 196.351 503C195.858 503.16 195.311 503.24 194.711 503.24ZM202.533 506.4C203.48 504.973 204.186 503.493 204.653 501.96C205.133 500.427 205.373 498.853 205.373 497.24C205.373 495.627 205.133 494.06 204.653 492.54C204.186 491.007 203.48 489.527 202.533 488.1H204.733C205.853 489.393 206.693 490.807 207.253 492.34C207.813 493.873 208.093 495.507 208.093 497.24C208.093 498.973 207.813 500.607 207.253 502.14C206.693 503.673 205.853 505.093 204.733 506.4H202.533ZM217.446 503.24C216.686 503.24 216.026 503.113 215.466 502.86C214.906 502.607 214.472 502.247 214.166 501.78C213.859 501.3 213.706 500.747 213.706 500.12C213.706 499.52 213.839 498.987 214.106 498.52C214.372 498.04 214.786 497.64 215.346 497.32C215.906 497 216.612 496.773 217.466 496.64L221.026 496.06V498.06L217.966 498.58C217.446 498.673 217.059 498.84 216.806 499.08C216.552 499.32 216.426 499.633 216.426 500.02C216.426 500.393 216.566 500.693 216.846 500.92C217.139 501.133 217.499 501.24 217.926 501.24C218.472 501.24 218.952 501.127 219.366 500.9C219.792 500.66 220.119 500.333 220.346 499.92C220.586 499.507 220.706 499.053 220.706 498.56V495.76C220.706 495.293 220.519 494.907 220.146 494.6C219.786 494.28 219.306 494.12 218.706 494.12C218.146 494.12 217.646 494.273 217.206 494.58C216.779 494.873 216.466 495.267 216.266 495.76L214.126 494.72C214.339 494.147 214.672 493.653 215.126 493.24C215.592 492.813 216.139 492.48 216.766 492.24C217.392 492 218.072 491.88 218.806 491.88C219.699 491.88 220.486 492.047 221.166 492.38C221.846 492.7 222.372 493.153 222.746 493.74C223.132 494.313 223.326 494.987 223.326 495.76V503H220.846V501.14L221.406 501.1C221.126 501.567 220.792 501.96 220.406 502.28C220.019 502.587 219.579 502.827 219.086 503C218.592 503.16 218.046 503.24 217.446 503.24ZM231.067 503.24C230.001 503.24 229.027 502.993 228.147 502.5C227.281 502.007 226.587 501.333 226.067 500.48C225.561 499.627 225.307 498.653 225.307 497.56C225.307 496.467 225.561 495.493 226.067 494.64C226.587 493.787 227.281 493.113 228.147 492.62C229.014 492.127 229.987 491.88 231.067 491.88C232.134 491.88 233.101 492.127 233.967 492.62C234.834 493.113 235.521 493.787 236.027 494.64C236.547 495.48 236.807 496.453 236.807 497.56C236.807 498.653 236.547 499.627 236.027 500.48C235.507 501.333 234.814 502.007 233.947 502.5C233.081 502.993 232.121 503.24 231.067 503.24ZM231.067 500.84C231.654 500.84 232.167 500.7 232.607 500.42C233.061 500.14 233.414 499.753 233.667 499.26C233.934 498.753 234.067 498.187 234.067 497.56C234.067 496.92 233.934 496.36 233.667 495.88C233.414 495.387 233.061 495 232.607 494.72C232.167 494.427 231.654 494.28 231.067 494.28C230.467 494.28 229.941 494.427 229.487 494.72C229.034 495 228.674 495.387 228.407 495.88C228.154 496.36 228.027 496.92 228.027 497.56C228.027 498.187 228.154 498.753 228.407 499.26C228.674 499.753 229.034 500.14 229.487 500.42C229.941 500.7 230.467 500.84 231.067 500.84Z" fill="white"></path>
<path d="M241.349 503L246.489 488.1H250.009L255.149 503H252.189L251.129 499.8H245.369L244.289 503H241.349ZM246.149 497.4H250.349L247.869 489.98H248.629L246.149 497.4ZM260.942 503.12C259.715 503.12 258.762 502.787 258.082 502.12C257.415 501.44 257.082 500.487 257.082 499.26V494.46H255.202V492.12H255.402C255.935 492.12 256.348 491.98 256.642 491.7C256.935 491.42 257.082 491.013 257.082 490.48V489.64H259.702V492.12H262.202V494.46H259.702V499.12C259.702 499.48 259.762 499.787 259.882 500.04C260.015 500.293 260.215 500.487 260.482 500.62C260.762 500.753 261.115 500.82 261.542 500.82C261.635 500.82 261.742 500.813 261.862 500.8C261.995 500.787 262.122 500.773 262.242 500.76V503C262.055 503.027 261.842 503.053 261.602 503.08C261.362 503.107 261.142 503.12 260.942 503.12ZM264.243 503V487.86H266.863V494.26L266.503 493.88C266.757 493.227 267.17 492.733 267.743 492.4C268.33 492.053 269.01 491.88 269.783 491.88C270.583 491.88 271.29 492.053 271.903 492.4C272.53 492.747 273.017 493.233 273.363 493.86C273.71 494.473 273.883 495.187 273.883 496V503H271.263V496.62C271.263 496.14 271.17 495.727 270.983 495.38C270.797 495.033 270.537 494.767 270.203 494.58C269.883 494.38 269.503 494.28 269.063 494.28C268.637 494.28 268.257 494.38 267.923 494.58C267.59 494.767 267.33 495.033 267.143 495.38C266.957 495.727 266.863 496.14 266.863 496.62V503H264.243ZM276.099 503V487.86H278.719V503H276.099ZM286.298 503.24C285.178 503.24 284.198 502.987 283.358 502.48C282.518 501.973 281.865 501.287 281.398 500.42C280.931 499.553 280.698 498.593 280.698 497.54C280.698 496.447 280.931 495.48 281.398 494.64C281.878 493.787 282.525 493.113 283.338 492.62C284.165 492.127 285.085 491.88 286.098 491.88C286.951 491.88 287.698 492.02 288.338 492.3C288.991 492.58 289.545 492.967 289.998 493.46C290.451 493.953 290.798 494.52 291.038 495.16C291.278 495.787 291.398 496.467 291.398 497.2C291.398 497.387 291.385 497.58 291.358 497.78C291.345 497.98 291.311 498.153 291.258 498.3H282.858V496.3H289.778L288.538 497.24C288.658 496.627 288.625 496.08 288.438 495.6C288.265 495.12 287.971 494.74 287.558 494.46C287.158 494.18 286.671 494.04 286.098 494.04C285.551 494.04 285.065 494.18 284.638 494.46C284.211 494.727 283.885 495.127 283.658 495.66C283.445 496.18 283.365 496.813 283.418 497.56C283.365 498.227 283.451 498.82 283.678 499.34C283.918 499.847 284.265 500.24 284.718 500.52C285.185 500.8 285.718 500.94 286.318 500.94C286.918 500.94 287.425 500.813 287.838 500.56C288.265 500.307 288.598 499.967 288.838 499.54L290.958 500.58C290.745 501.1 290.411 501.56 289.958 501.96C289.505 502.36 288.965 502.673 288.338 502.9C287.725 503.127 287.045 503.24 286.298 503.24ZM298.344 503.12C297.117 503.12 296.164 502.787 295.484 502.12C294.817 501.44 294.484 500.487 294.484 499.26V494.46H292.604V492.12H292.804C293.337 492.12 293.751 491.98 294.044 491.7C294.337 491.42 294.484 491.013 294.484 490.48V489.64H297.104V492.12H299.604V494.46H297.104V499.12C297.104 499.48 297.164 499.787 297.284 500.04C297.417 500.293 297.617 500.487 297.884 500.62C298.164 500.753 298.517 500.82 298.944 500.82C299.037 500.82 299.144 500.813 299.264 500.8C299.397 500.787 299.524 500.773 299.644 500.76V503C299.457 503.027 299.244 503.053 299.004 503.08C298.764 503.107 298.544 503.12 298.344 503.12ZM306.606 503.12C305.379 503.12 304.426 502.787 303.746 502.12C303.079 501.44 302.746 500.487 302.746 499.26V494.46H300.866V492.12H301.066C301.599 492.12 302.012 491.98 302.306 491.7C302.599 491.42 302.746 491.013 302.746 490.48V489.64H305.366V492.12H307.866V494.46H305.366V499.12C305.366 499.48 305.426 499.787 305.546 500.04C305.679 500.293 305.879 500.487 306.146 500.62C306.426 500.753 306.779 500.82 307.206 500.82C307.299 500.82 307.406 500.813 307.526 500.8C307.659 500.787 307.786 500.773 307.906 500.76V503C307.719 503.027 307.506 503.053 307.266 503.08C307.026 503.107 306.806 503.12 306.606 503.12ZM315.13 503.24C314.063 503.24 313.09 502.993 312.21 502.5C311.343 502.007 310.65 501.333 310.13 500.48C309.623 499.627 309.37 498.653 309.37 497.56C309.37 496.467 309.623 495.493 310.13 494.64C310.65 493.787 311.343 493.113 312.21 492.62C313.077 492.127 314.05 491.88 315.13 491.88C316.197 491.88 317.163 492.127 318.03 492.62C318.897 493.113 319.583 493.787 320.09 494.64C320.61 495.48 320.87 496.453 320.87 497.56C320.87 498.653 320.61 499.627 320.09 500.48C319.57 501.333 318.877 502.007 318.01 502.5C317.143 502.993 316.183 503.24 315.13 503.24ZM315.13 500.84C315.717 500.84 316.23 500.7 316.67 500.42C317.123 500.14 317.477 499.753 317.73 499.26C317.997 498.753 318.13 498.187 318.13 497.56C318.13 496.92 317.997 496.36 317.73 495.88C317.477 495.387 317.123 495 316.67 494.72C316.23 494.427 315.717 494.28 315.13 494.28C314.53 494.28 314.003 494.427 313.55 494.72C313.097 495 312.737 495.387 312.47 495.88C312.217 496.36 312.09 496.92 312.09 497.56C312.09 498.187 312.217 498.753 312.47 499.26C312.737 499.753 313.097 500.14 313.55 500.42C314.003 500.7 314.53 500.84 315.13 500.84Z" fill="#C7EF66"></path>
<path d="M83.0318 535V524.57H86.4618C87.4978 524.57 88.3985 524.785 89.1638 525.214C89.9291 525.634 90.5218 526.236 90.9418 527.02C91.3618 527.795 91.5718 528.714 91.5718 529.778C91.5718 530.833 91.3618 531.752 90.9418 532.536C90.5218 533.32 89.9291 533.927 89.1638 534.356C88.3985 534.785 87.4978 535 86.4618 535H83.0318ZM84.1518 533.95H86.4618C87.2645 533.95 87.9598 533.782 88.5478 533.446C89.1358 533.101 89.5885 532.615 89.9058 531.99C90.2325 531.365 90.3958 530.627 90.3958 529.778C90.3958 528.929 90.2325 528.196 89.9058 527.58C89.5791 526.955 89.1218 526.474 88.5338 526.138C87.9458 525.793 87.2551 525.62 86.4618 525.62H84.1518V533.95ZM93.2684 535V527.496H94.3184V535H93.2684ZM93.2684 526.11V524.57H94.3184V526.11H93.2684ZM100.024 538.08C99.5103 538.08 99.0343 538.001 98.5956 537.842C98.1663 537.683 97.793 537.464 97.4756 537.184C97.1676 536.913 96.9296 536.596 96.7616 536.232L97.7276 535.714C97.877 536.069 98.143 536.377 98.5256 536.638C98.9083 536.899 99.3983 537.03 99.9956 537.03C100.453 537.03 100.873 536.941 101.256 536.764C101.638 536.587 101.946 536.325 102.18 535.98C102.413 535.635 102.53 535.21 102.53 534.706V533.04L102.698 533.194C102.436 533.735 102.049 534.155 101.536 534.454C101.022 534.743 100.462 534.888 99.8556 534.888C99.1556 534.888 98.5256 534.72 97.9656 534.384C97.4056 534.048 96.9623 533.595 96.6356 533.026C96.3183 532.447 96.1596 531.808 96.1596 531.108C96.1596 530.399 96.3183 529.759 96.6356 529.19C96.9623 528.621 97.401 528.168 97.9516 527.832C98.5116 527.496 99.1463 527.328 99.8556 527.328C100.462 527.328 101.013 527.468 101.508 527.748C102.012 528.028 102.408 528.406 102.698 528.882L102.53 529.176V527.496H103.58V534.706C103.58 535.35 103.426 535.924 103.118 536.428C102.819 536.941 102.399 537.343 101.858 537.632C101.326 537.931 100.714 538.08 100.024 538.08ZM99.9116 533.838C100.397 533.838 100.836 533.717 101.228 533.474C101.62 533.222 101.932 532.891 102.166 532.48C102.408 532.06 102.53 531.603 102.53 531.108C102.53 530.613 102.408 530.161 102.166 529.75C101.932 529.33 101.62 528.999 101.228 528.756C100.836 528.504 100.397 528.378 99.9116 528.378C99.417 528.378 98.969 528.504 98.5676 528.756C98.1663 528.999 97.849 529.325 97.6156 529.736C97.3916 530.147 97.2796 530.604 97.2796 531.108C97.2796 531.603 97.3916 532.06 97.6156 532.48C97.849 532.891 98.1616 533.222 98.5536 533.474C98.955 533.717 99.4076 533.838 99.9116 533.838ZM105.737 535V527.496H106.787V535H105.737ZM105.737 526.11V524.57H106.787V526.11H105.737ZM111.806 535.084C111.134 535.084 110.616 534.888 110.252 534.496C109.888 534.104 109.706 533.544 109.706 532.816V528.546H108.32V527.496H108.67C108.988 527.496 109.24 527.393 109.426 527.188C109.613 526.973 109.706 526.707 109.706 526.39V525.76H110.756V527.496H112.408V528.546H110.756V532.816C110.756 533.068 110.794 533.292 110.868 533.488C110.943 533.675 111.069 533.824 111.246 533.936C111.433 534.048 111.68 534.104 111.988 534.104C112.063 534.104 112.152 534.099 112.254 534.09C112.357 534.081 112.446 534.071 112.52 534.062V535C112.408 535.028 112.282 535.047 112.142 535.056C112.002 535.075 111.89 535.084 111.806 535.084ZM117.507 535.168C116.807 535.168 116.172 535 115.603 534.664C115.043 534.319 114.599 533.847 114.273 533.25C113.946 532.653 113.783 531.976 113.783 531.22C113.783 530.464 113.941 529.797 114.259 529.218C114.576 528.63 115.005 528.168 115.547 527.832C116.097 527.496 116.713 527.328 117.395 527.328C117.936 527.328 118.417 527.431 118.837 527.636C119.266 527.832 119.63 528.103 119.929 528.448C120.227 528.784 120.456 529.167 120.615 529.596C120.773 530.016 120.853 530.45 120.853 530.898C120.853 530.991 120.848 531.099 120.839 531.22C120.829 531.332 120.815 531.449 120.797 531.57H114.455V530.59H120.195L119.691 531.01C119.775 530.497 119.714 530.039 119.509 529.638C119.313 529.227 119.028 528.905 118.655 528.672C118.281 528.429 117.861 528.308 117.395 528.308C116.928 528.308 116.494 528.429 116.093 528.672C115.701 528.915 115.393 529.255 115.169 529.694C114.945 530.123 114.856 530.637 114.903 531.234C114.856 531.831 114.949 532.354 115.183 532.802C115.425 533.241 115.752 533.581 116.163 533.824C116.583 534.067 117.031 534.188 117.507 534.188C118.057 534.188 118.519 534.057 118.893 533.796C119.266 533.535 119.569 533.208 119.803 532.816L120.699 533.292C120.549 533.628 120.321 533.941 120.013 534.23C119.705 534.51 119.336 534.739 118.907 534.916C118.487 535.084 118.02 535.168 117.507 535.168ZM127.687 535.168C126.968 535.168 126.338 534.986 125.797 534.622C125.256 534.258 124.864 533.763 124.621 533.138L125.503 532.718C125.718 533.175 126.016 533.539 126.399 533.81C126.791 534.081 127.22 534.216 127.687 534.216C128.135 534.216 128.513 534.109 128.821 533.894C129.129 533.67 129.283 533.381 129.283 533.026C129.283 532.765 129.208 532.559 129.059 532.41C128.91 532.251 128.737 532.13 128.541 532.046C128.345 531.962 128.172 531.901 128.023 531.864L126.945 531.556C126.254 531.36 125.755 531.085 125.447 530.73C125.139 530.375 124.985 529.965 124.985 529.498C124.985 529.059 125.097 528.677 125.321 528.35C125.545 528.023 125.848 527.771 126.231 527.594C126.614 527.417 127.038 527.328 127.505 527.328C128.14 527.328 128.714 527.496 129.227 527.832C129.75 528.159 130.118 528.616 130.333 529.204L129.437 529.624C129.25 529.204 128.98 528.877 128.625 528.644C128.28 528.401 127.892 528.28 127.463 528.28C127.043 528.28 126.707 528.387 126.455 528.602C126.203 528.817 126.077 529.087 126.077 529.414C126.077 529.666 126.142 529.867 126.273 530.016C126.404 530.165 126.553 530.277 126.721 530.352C126.898 530.427 127.052 530.483 127.183 530.52L128.429 530.884C129.036 531.061 129.507 531.337 129.843 531.71C130.188 532.083 130.361 532.522 130.361 533.026C130.361 533.437 130.244 533.805 130.011 534.132C129.787 534.459 129.474 534.715 129.073 534.902C128.672 535.079 128.21 535.168 127.687 535.168ZM135.622 535.168C134.922 535.168 134.287 535 133.718 534.664C133.158 534.319 132.715 533.847 132.388 533.25C132.061 532.653 131.898 531.976 131.898 531.22C131.898 530.464 132.057 529.797 132.374 529.218C132.691 528.63 133.121 528.168 133.662 527.832C134.213 527.496 134.829 527.328 135.51 527.328C136.051 527.328 136.532 527.431 136.952 527.636C137.381 527.832 137.745 528.103 138.044 528.448C138.343 528.784 138.571 529.167 138.73 529.596C138.889 530.016 138.968 530.45 138.968 530.898C138.968 530.991 138.963 531.099 138.954 531.22C138.945 531.332 138.931 531.449 138.912 531.57H132.57V530.59H138.31L137.806 531.01C137.89 530.497 137.829 530.039 137.624 529.638C137.428 529.227 137.143 528.905 136.77 528.672C136.397 528.429 135.977 528.308 135.51 528.308C135.043 528.308 134.609 528.429 134.208 528.672C133.816 528.915 133.508 529.255 133.284 529.694C133.06 530.123 132.971 530.637 133.018 531.234C132.971 531.831 133.065 532.354 133.298 532.802C133.541 533.241 133.867 533.581 134.278 533.824C134.698 534.067 135.146 534.188 135.622 534.188C136.173 534.188 136.635 534.057 137.008 533.796C137.381 533.535 137.685 533.208 137.918 532.816L138.814 533.292C138.665 533.628 138.436 533.941 138.128 534.23C137.82 534.51 137.451 534.739 137.022 534.916C136.602 535.084 136.135 535.168 135.622 535.168ZM143.479 535.168C142.957 535.168 142.481 535.047 142.051 534.804C141.622 534.552 141.281 534.207 141.029 533.768C140.787 533.32 140.665 532.807 140.665 532.228V527.496H141.715V532.102C141.715 532.503 141.795 532.858 141.953 533.166C142.121 533.465 142.35 533.698 142.639 533.866C142.938 534.034 143.279 534.118 143.661 534.118C144.044 534.118 144.385 534.034 144.683 533.866C144.982 533.689 145.215 533.441 145.383 533.124C145.551 532.797 145.635 532.41 145.635 531.962V527.496H146.685V535H145.635V533.544L145.873 533.6C145.696 534.085 145.393 534.468 144.963 534.748C144.534 535.028 144.039 535.168 143.479 535.168ZM156.138 535.168C155.4 535.168 154.724 535.037 154.108 534.776C153.492 534.505 152.955 534.132 152.498 533.656C152.05 533.171 151.7 532.601 151.448 531.948C151.196 531.295 151.07 530.576 151.07 529.792C151.07 529.008 151.196 528.289 151.448 527.636C151.7 526.983 152.05 526.413 152.498 525.928C152.955 525.443 153.492 525.069 154.108 524.808C154.724 524.537 155.4 524.402 156.138 524.402C156.847 524.402 157.482 524.528 158.042 524.78C158.611 525.032 159.087 525.359 159.47 525.76C159.862 526.152 160.142 526.567 160.31 527.006L159.26 527.468C158.998 526.861 158.597 526.376 158.056 526.012C157.524 525.639 156.884 525.452 156.138 525.452C155.372 525.452 154.691 525.634 154.094 525.998C153.496 526.362 153.03 526.871 152.694 527.524C152.358 528.168 152.19 528.924 152.19 529.792C152.19 530.651 152.358 531.407 152.694 532.06C153.03 532.713 153.496 533.222 154.094 533.586C154.691 533.941 155.372 534.118 156.138 534.118C156.884 534.118 157.524 533.936 158.056 533.572C158.597 533.208 158.998 532.723 159.26 532.116L160.31 532.578C160.142 533.007 159.862 533.423 159.47 533.824C159.087 534.216 158.611 534.538 158.042 534.79C157.482 535.042 156.847 535.168 156.138 535.168ZM162.315 535V524.57H165.899C166.58 524.57 167.178 524.705 167.691 524.976C168.204 525.237 168.601 525.611 168.881 526.096C169.17 526.572 169.315 527.127 169.315 527.762C169.315 528.397 169.17 528.952 168.881 529.428C168.601 529.904 168.204 530.277 167.691 530.548C167.187 530.809 166.59 530.94 165.899 530.94H163.435V535H162.315ZM163.435 529.89H165.955C166.403 529.89 166.795 529.806 167.131 529.638C167.467 529.461 167.728 529.213 167.915 528.896C168.102 528.569 168.195 528.187 168.195 527.748C168.195 527.309 168.102 526.931 167.915 526.614C167.728 526.297 167.467 526.054 167.131 525.886C166.795 525.709 166.403 525.62 165.955 525.62H163.435V529.89ZM171.311 535V524.57H177.751V525.62H172.431V529.246H177.331V530.296H172.431V535H171.311ZM181.671 537.8V527.496H182.721V529.176L182.553 528.882C182.851 528.406 183.248 528.028 183.743 527.748C184.247 527.468 184.821 527.328 185.465 527.328C186.174 527.328 186.804 527.501 187.355 527.846C187.915 528.182 188.353 528.644 188.671 529.232C188.997 529.82 189.161 530.492 189.161 531.248C189.161 531.995 188.997 532.667 188.671 533.264C188.353 533.852 187.915 534.319 187.355 534.664C186.804 535 186.174 535.168 185.465 535.168C184.821 535.168 184.237 535.023 183.715 534.734C183.201 534.435 182.814 534.015 182.553 533.474L182.721 533.32V537.8H181.671ZM185.409 534.118C185.913 534.118 186.361 533.992 186.753 533.74C187.154 533.488 187.467 533.147 187.691 532.718C187.924 532.279 188.041 531.789 188.041 531.248C188.041 530.697 187.924 530.207 187.691 529.778C187.467 529.349 187.154 529.008 186.753 528.756C186.361 528.504 185.913 528.378 185.409 528.378C184.905 528.378 184.447 528.504 184.037 528.756C183.635 529.008 183.313 529.353 183.071 529.792C182.837 530.221 182.721 530.707 182.721 531.248C182.721 531.789 182.837 532.279 183.071 532.718C183.313 533.147 183.635 533.488 184.037 533.74C184.447 533.992 184.905 534.118 185.409 534.118ZM193.179 535.168C192.703 535.168 192.278 535.079 191.905 534.902C191.531 534.715 191.237 534.463 191.023 534.146C190.808 533.829 190.701 533.465 190.701 533.054C190.701 532.662 190.785 532.307 190.953 531.99C191.121 531.663 191.382 531.388 191.737 531.164C192.091 530.94 192.544 530.781 193.095 530.688L196.035 530.198V531.15L193.347 531.598C192.805 531.691 192.413 531.864 192.171 532.116C191.937 532.368 191.821 532.667 191.821 533.012C191.821 533.348 191.951 533.633 192.213 533.866C192.483 534.099 192.829 534.216 193.249 534.216C193.762 534.216 194.21 534.109 194.593 533.894C194.975 533.67 195.274 533.371 195.489 532.998C195.703 532.625 195.811 532.209 195.811 531.752V529.848C195.811 529.4 195.647 529.036 195.321 528.756C194.994 528.476 194.569 528.336 194.047 528.336C193.589 528.336 193.188 528.453 192.843 528.686C192.497 528.91 192.241 529.204 192.073 529.568L191.121 529.05C191.261 528.733 191.48 528.443 191.779 528.182C192.087 527.921 192.437 527.715 192.829 527.566C193.221 527.407 193.627 527.328 194.047 527.328C194.597 527.328 195.083 527.435 195.503 527.65C195.932 527.865 196.263 528.163 196.497 528.546C196.739 528.919 196.861 529.353 196.861 529.848V535H195.811V533.502L195.965 533.656C195.834 533.936 195.629 534.193 195.349 534.426C195.078 534.65 194.756 534.832 194.383 534.972C194.019 535.103 193.617 535.168 193.179 535.168ZM199.02 535V527.496H200.07V528.728L199.93 528.546C200.108 528.191 200.374 527.911 200.728 527.706C201.092 527.501 201.531 527.398 202.044 527.398H202.52V528.448H201.862C201.321 528.448 200.887 528.616 200.56 528.952C200.234 529.288 200.07 529.764 200.07 530.38V535H199.02ZM205.921 535.168C205.445 535.168 205.02 535.079 204.647 534.902C204.274 534.715 203.98 534.463 203.765 534.146C203.55 533.829 203.443 533.465 203.443 533.054C203.443 532.662 203.527 532.307 203.695 531.99C203.863 531.663 204.124 531.388 204.479 531.164C204.834 530.94 205.286 530.781 205.837 530.688L208.777 530.198V531.15L206.089 531.598C205.548 531.691 205.156 531.864 204.913 532.116C204.68 532.368 204.563 532.667 204.563 533.012C204.563 533.348 204.694 533.633 204.955 533.866C205.226 534.099 205.571 534.216 205.991 534.216C206.504 534.216 206.952 534.109 207.335 533.894C207.718 533.67 208.016 533.371 208.231 532.998C208.446 532.625 208.553 532.209 208.553 531.752V529.848C208.553 529.4 208.39 529.036 208.063 528.756C207.736 528.476 207.312 528.336 206.789 528.336C206.332 528.336 205.93 528.453 205.585 528.686C205.24 528.91 204.983 529.204 204.815 529.568L203.863 529.05C204.003 528.733 204.222 528.443 204.521 528.182C204.829 527.921 205.179 527.715 205.571 527.566C205.963 527.407 206.369 527.328 206.789 527.328C207.34 527.328 207.825 527.435 208.245 527.65C208.674 527.865 209.006 528.163 209.239 528.546C209.482 528.919 209.603 529.353 209.603 529.848V535H208.553V533.502L208.707 533.656C208.576 533.936 208.371 534.193 208.091 534.426C207.82 534.65 207.498 534.832 207.125 534.972C206.761 535.103 206.36 535.168 205.921 535.168ZM220.273 537.8V533.32L220.441 533.474C220.18 534.015 219.788 534.435 219.265 534.734C218.752 535.023 218.173 535.168 217.529 535.168C216.829 535.168 216.199 535 215.639 534.664C215.079 534.319 214.636 533.852 214.309 533.264C213.992 532.667 213.833 531.995 213.833 531.248C213.833 530.492 213.992 529.82 214.309 529.232C214.636 528.644 215.075 528.182 215.625 527.846C216.185 527.501 216.82 527.328 217.529 527.328C218.173 527.328 218.747 527.468 219.251 527.748C219.755 528.028 220.152 528.406 220.441 528.882L220.273 529.176V527.496H221.323V537.8H220.273ZM217.585 534.118C218.089 534.118 218.542 533.992 218.943 533.74C219.354 533.488 219.676 533.147 219.909 532.718C220.152 532.279 220.273 531.789 220.273 531.248C220.273 530.707 220.152 530.221 219.909 529.792C219.676 529.353 219.354 529.008 218.943 528.756C218.542 528.504 218.089 528.378 217.585 528.378C217.091 528.378 216.643 528.504 216.241 528.756C215.84 529.008 215.523 529.349 215.289 529.778C215.065 530.207 214.953 530.697 214.953 531.248C214.953 531.789 215.065 532.279 215.289 532.718C215.523 533.147 215.835 533.488 216.227 533.74C216.629 533.992 217.081 534.118 217.585 534.118ZM226.139 535.168C225.617 535.168 225.141 535.047 224.711 534.804C224.282 534.552 223.941 534.207 223.689 533.768C223.447 533.32 223.325 532.807 223.325 532.228V527.496H224.375V532.102C224.375 532.503 224.455 532.858 224.613 533.166C224.781 533.465 225.01 533.698 225.299 533.866C225.598 534.034 225.939 534.118 226.321 534.118C226.704 534.118 227.045 534.034 227.343 533.866C227.642 533.689 227.875 533.441 228.043 533.124C228.211 532.797 228.295 532.41 228.295 531.962V527.496H229.345V535H228.295V533.544L228.533 533.6C228.356 534.085 228.053 534.468 227.623 534.748C227.194 535.028 226.699 535.168 226.139 535.168ZM234.921 535.168C234.221 535.168 233.586 535 233.017 534.664C232.457 534.319 232.013 533.847 231.687 533.25C231.36 532.653 231.197 531.976 231.197 531.22C231.197 530.464 231.355 529.797 231.673 529.218C231.99 528.63 232.419 528.168 232.961 527.832C233.511 527.496 234.127 527.328 234.809 527.328C235.35 527.328 235.831 527.431 236.251 527.636C236.68 527.832 237.044 528.103 237.343 528.448C237.641 528.784 237.87 529.167 238.029 529.596C238.187 530.016 238.267 530.45 238.267 530.898C238.267 530.991 238.262 531.099 238.253 531.22C238.243 531.332 238.229 531.449 238.211 531.57H231.869V530.59H237.609L237.105 531.01C237.189 530.497 237.128 530.039 236.923 529.638C236.727 529.227 236.442 528.905 236.069 528.672C235.695 528.429 235.275 528.308 234.809 528.308C234.342 528.308 233.908 528.429 233.507 528.672C233.115 528.915 232.807 529.255 232.583 529.694C232.359 530.123 232.27 530.637 232.317 531.234C232.27 531.831 232.363 532.354 232.597 532.802C232.839 533.241 233.166 533.581 233.577 533.824C233.997 534.067 234.445 534.188 234.921 534.188C235.471 534.188 235.933 534.057 236.307 533.796C236.68 533.535 236.983 533.208 237.217 532.816L238.113 533.292C237.963 533.628 237.735 533.941 237.427 534.23C237.119 534.51 236.75 534.739 236.321 534.916C235.901 535.084 235.434 535.168 234.921 535.168ZM242.497 537.8V527.496H243.547V529.176L243.379 528.882C243.678 528.406 244.074 528.028 244.569 527.748C245.073 527.468 245.647 527.328 246.291 527.328C247 527.328 247.63 527.501 248.181 527.846C248.741 528.182 249.18 528.644 249.497 529.232C249.824 529.82 249.987 530.492 249.987 531.248C249.987 531.995 249.824 532.667 249.497 533.264C249.18 533.852 248.741 534.319 248.181 534.664C247.63 535 247 535.168 246.291 535.168C245.647 535.168 245.064 535.023 244.541 534.734C244.028 534.435 243.64 534.015 243.379 533.474L243.547 533.32V537.8H242.497ZM246.235 534.118C246.739 534.118 247.187 533.992 247.579 533.74C247.98 533.488 248.293 533.147 248.517 532.718C248.75 532.279 248.867 531.789 248.867 531.248C248.867 530.697 248.75 530.207 248.517 529.778C248.293 529.349 247.98 529.008 247.579 528.756C247.187 528.504 246.739 528.378 246.235 528.378C245.731 528.378 245.274 528.504 244.863 528.756C244.462 529.008 244.14 529.353 243.897 529.792C243.664 530.221 243.547 530.707 243.547 531.248C243.547 531.789 243.664 532.279 243.897 532.718C244.14 533.147 244.462 533.488 244.863 533.74C245.274 533.992 245.731 534.118 246.235 534.118ZM255.349 535.168C254.64 535.168 253.996 535 253.417 534.664C252.838 534.319 252.376 533.852 252.031 533.264C251.695 532.667 251.527 531.99 251.527 531.234C251.527 530.487 251.695 529.82 252.031 529.232C252.367 528.644 252.82 528.182 253.389 527.846C253.968 527.501 254.621 527.328 255.349 527.328C256.077 527.328 256.726 527.496 257.295 527.832C257.874 528.168 258.326 528.63 258.653 529.218C258.989 529.806 259.157 530.478 259.157 531.234C259.157 531.999 258.984 532.681 258.639 533.278C258.294 533.866 257.832 534.328 257.253 534.664C256.684 535 256.049 535.168 255.349 535.168ZM255.349 534.118C255.853 534.118 256.306 533.992 256.707 533.74C257.118 533.488 257.44 533.143 257.673 532.704C257.916 532.265 258.037 531.775 258.037 531.234C258.037 530.693 257.916 530.207 257.673 529.778C257.44 529.349 257.118 529.008 256.707 528.756C256.306 528.504 255.853 528.378 255.349 528.378C254.845 528.378 254.388 528.504 253.977 528.756C253.576 529.008 253.254 529.349 253.011 529.778C252.768 530.207 252.647 530.693 252.647 531.234C252.647 531.775 252.768 532.265 253.011 532.704C253.254 533.143 253.576 533.488 253.977 533.74C254.388 533.992 254.845 534.118 255.349 534.118ZM263.613 535.168C262.894 535.168 262.264 534.986 261.723 534.622C261.181 534.258 260.789 533.763 260.547 533.138L261.429 532.718C261.643 533.175 261.942 533.539 262.325 533.81C262.717 534.081 263.146 534.216 263.613 534.216C264.061 534.216 264.439 534.109 264.747 533.894C265.055 533.67 265.209 533.381 265.209 533.026C265.209 532.765 265.134 532.559 264.985 532.41C264.835 532.251 264.663 532.13 264.467 532.046C264.271 531.962 264.098 531.901 263.949 531.864L262.871 531.556C262.18 531.36 261.681 531.085 261.373 530.73C261.065 530.375 260.911 529.965 260.911 529.498C260.911 529.059 261.023 528.677 261.247 528.35C261.471 528.023 261.774 527.771 262.157 527.594C262.539 527.417 262.964 527.328 263.431 527.328C264.065 527.328 264.639 527.496 265.153 527.832C265.675 528.159 266.044 528.616 266.259 529.204L265.363 529.624C265.176 529.204 264.905 528.877 264.551 528.644C264.205 528.401 263.818 528.28 263.389 528.28C262.969 528.28 262.633 528.387 262.381 528.602C262.129 528.817 262.003 529.087 262.003 529.414C262.003 529.666 262.068 529.867 262.199 530.016C262.329 530.165 262.479 530.277 262.647 530.352C262.824 530.427 262.978 530.483 263.109 530.52L264.355 530.884C264.961 531.061 265.433 531.337 265.769 531.71C266.114 532.083 266.287 532.522 266.287 533.026C266.287 533.437 266.17 533.805 265.937 534.132C265.713 534.459 265.4 534.715 264.999 534.902C264.597 535.079 264.135 535.168 263.613 535.168ZM270.736 535.168C270.017 535.168 269.387 534.986 268.846 534.622C268.304 534.258 267.912 533.763 267.67 533.138L268.552 532.718C268.766 533.175 269.065 533.539 269.448 533.81C269.84 534.081 270.269 534.216 270.736 534.216C271.184 534.216 271.562 534.109 271.87 533.894C272.178 533.67 272.332 533.381 272.332 533.026C272.332 532.765 272.257 532.559 272.108 532.41C271.958 532.251 271.786 532.13 271.59 532.046C271.394 531.962 271.221 531.901 271.072 531.864L269.994 531.556C269.303 531.36 268.804 531.085 268.496 530.73C268.188 530.375 268.034 529.965 268.034 529.498C268.034 529.059 268.146 528.677 268.37 528.35C268.594 528.023 268.897 527.771 269.28 527.594C269.662 527.417 270.087 527.328 270.554 527.328C271.188 527.328 271.762 527.496 272.276 527.832C272.798 528.159 273.167 528.616 273.382 529.204L272.486 529.624C272.299 529.204 272.028 528.877 271.674 528.644C271.328 528.401 270.941 528.28 270.512 528.28C270.092 528.28 269.756 528.387 269.504 528.602C269.252 528.817 269.126 529.087 269.126 529.414C269.126 529.666 269.191 529.867 269.322 530.016C269.452 530.165 269.602 530.277 269.77 530.352C269.947 530.427 270.101 530.483 270.232 530.52L271.478 530.884C272.084 531.061 272.556 531.337 272.892 531.71C273.237 532.083 273.41 532.522 273.41 533.026C273.41 533.437 273.293 533.805 273.06 534.132C272.836 534.459 272.523 534.715 272.122 534.902C271.72 535.079 271.258 535.168 270.736 535.168ZM277.425 535.168C276.949 535.168 276.524 535.079 276.151 534.902C275.777 534.715 275.483 534.463 275.269 534.146C275.054 533.829 274.947 533.465 274.947 533.054C274.947 532.662 275.031 532.307 275.199 531.99C275.367 531.663 275.628 531.388 275.983 531.164C276.337 530.94 276.79 530.781 277.341 530.688L280.281 530.198V531.15L277.593 531.598C277.051 531.691 276.659 531.864 276.417 532.116C276.183 532.368 276.067 532.667 276.067 533.012C276.067 533.348 276.197 533.633 276.459 533.866C276.729 534.099 277.075 534.216 277.495 534.216C278.008 534.216 278.456 534.109 278.839 533.894C279.221 533.67 279.52 533.371 279.735 532.998C279.949 532.625 280.057 532.209 280.057 531.752V529.848C280.057 529.4 279.893 529.036 279.567 528.756C279.24 528.476 278.815 528.336 278.293 528.336C277.835 528.336 277.434 528.453 277.089 528.686C276.743 528.91 276.487 529.204 276.319 529.568L275.367 529.05C275.507 528.733 275.726 528.443 276.025 528.182C276.333 527.921 276.683 527.715 277.075 527.566C277.467 527.407 277.873 527.328 278.293 527.328C278.843 527.328 279.329 527.435 279.749 527.65C280.178 527.865 280.509 528.163 280.743 528.546C280.985 528.919 281.107 529.353 281.107 529.848V535H280.057V533.502L280.211 533.656C280.08 533.936 279.875 534.193 279.595 534.426C279.324 534.65 279.002 534.832 278.629 534.972C278.265 535.103 277.863 535.168 277.425 535.168ZM283.266 535V527.496H284.316V528.924L284.148 528.714C284.354 528.275 284.657 527.935 285.058 527.692C285.469 527.449 285.917 527.328 286.402 527.328C286.981 527.328 287.504 527.491 287.97 527.818C288.437 528.145 288.768 528.569 288.964 529.092L288.67 529.106C288.857 528.527 289.179 528.089 289.636 527.79C290.103 527.482 290.616 527.328 291.176 527.328C291.68 527.328 292.142 527.449 292.562 527.692C292.992 527.935 293.332 528.271 293.584 528.7C293.846 529.12 293.976 529.596 293.976 530.128V535H292.926V530.534C292.926 530.077 292.842 529.689 292.674 529.372C292.516 529.055 292.296 528.812 292.016 528.644C291.736 528.467 291.414 528.378 291.05 528.378C290.696 528.378 290.374 528.467 290.084 528.644C289.795 528.812 289.566 529.059 289.398 529.386C289.23 529.703 289.146 530.086 289.146 530.534V535H288.096V530.534C288.096 530.077 288.012 529.689 287.844 529.372C287.686 529.055 287.466 528.812 287.186 528.644C286.906 528.467 286.584 528.378 286.22 528.378C285.856 528.378 285.53 528.467 285.24 528.644C284.96 528.812 284.736 529.059 284.568 529.386C284.4 529.703 284.316 530.086 284.316 530.534V535H283.266ZM299.495 535.168C298.786 535.168 298.142 535 297.563 534.664C296.985 534.319 296.523 533.852 296.177 533.264C295.841 532.667 295.673 531.99 295.673 531.234C295.673 530.487 295.841 529.82 296.177 529.232C296.513 528.644 296.966 528.182 297.535 527.846C298.114 527.501 298.767 527.328 299.495 527.328C300.223 527.328 300.872 527.496 301.441 527.832C302.02 528.168 302.473 528.63 302.799 529.218C303.135 529.806 303.303 530.478 303.303 531.234C303.303 531.999 303.131 532.681 302.785 533.278C302.44 533.866 301.978 534.328 301.399 534.664C300.83 535 300.195 535.168 299.495 535.168ZM299.495 534.118C299.999 534.118 300.452 533.992 300.853 533.74C301.264 533.488 301.586 533.143 301.819 532.704C302.062 532.265 302.183 531.775 302.183 531.234C302.183 530.693 302.062 530.207 301.819 529.778C301.586 529.349 301.264 529.008 300.853 528.756C300.452 528.504 299.999 528.378 299.495 528.378C298.991 528.378 298.534 528.504 298.123 528.756C297.722 529.008 297.4 529.349 297.157 529.778C296.915 530.207 296.793 530.693 296.793 531.234C296.793 531.775 296.915 532.265 297.157 532.704C297.4 533.143 297.722 533.488 298.123 533.74C298.534 533.992 298.991 534.118 299.495 534.118ZM307.759 535.168C307.04 535.168 306.41 534.986 305.869 534.622C305.328 534.258 304.936 533.763 304.693 533.138L305.575 532.718C305.79 533.175 306.088 533.539 306.471 533.81C306.863 534.081 307.292 534.216 307.759 534.216C308.207 534.216 308.585 534.109 308.893 533.894C309.201 533.67 309.355 533.381 309.355 533.026C309.355 532.765 309.28 532.559 309.131 532.41C308.982 532.251 308.809 532.13 308.613 532.046C308.417 531.962 308.244 531.901 308.095 531.864L307.017 531.556C306.326 531.36 305.827 531.085 305.519 530.73C305.211 530.375 305.057 529.965 305.057 529.498C305.057 529.059 305.169 528.677 305.393 528.35C305.617 528.023 305.92 527.771 306.303 527.594C306.686 527.417 307.11 527.328 307.577 527.328C308.212 527.328 308.786 527.496 309.299 527.832C309.822 528.159 310.19 528.616 310.405 529.204L309.509 529.624C309.322 529.204 309.052 528.877 308.697 528.644C308.352 528.401 307.964 528.28 307.535 528.28C307.115 528.28 306.779 528.387 306.527 528.602C306.275 528.817 306.149 529.087 306.149 529.414C306.149 529.666 306.214 529.867 306.345 530.016C306.476 530.165 306.625 530.277 306.793 530.352C306.97 530.427 307.124 530.483 307.255 530.52L308.501 530.884C309.108 531.061 309.579 531.337 309.915 531.71C310.26 532.083 310.433 532.522 310.433 533.026C310.433 533.437 310.316 533.805 310.083 534.132C309.859 534.459 309.546 534.715 309.145 534.902C308.744 535.079 308.282 535.168 307.759 535.168ZM138.461 555.168C137.817 555.168 137.234 555.023 136.711 554.734C136.198 554.435 135.81 554.015 135.549 553.474L135.717 553.32V555H134.667V544.402H135.717V549.176L135.549 548.882C135.848 548.406 136.244 548.028 136.739 547.748C137.243 547.468 137.817 547.328 138.461 547.328C139.17 547.328 139.8 547.501 140.351 547.846C140.911 548.182 141.35 548.644 141.667 549.232C141.994 549.82 142.157 550.492 142.157 551.248C142.157 551.995 141.994 552.667 141.667 553.264C141.35 553.852 140.911 554.319 140.351 554.664C139.8 555 139.17 555.168 138.461 555.168ZM138.405 554.118C138.909 554.118 139.357 553.992 139.749 553.74C140.15 553.488 140.463 553.147 140.687 552.718C140.92 552.279 141.037 551.789 141.037 551.248C141.037 550.697 140.92 550.207 140.687 549.778C140.463 549.349 140.15 549.008 139.749 548.756C139.357 548.504 138.909 548.378 138.405 548.378C137.901 548.378 137.444 548.504 137.033 548.756C136.632 549.008 136.31 549.353 136.067 549.792C135.834 550.221 135.717 550.707 135.717 551.248C135.717 551.789 135.834 552.279 136.067 552.718C136.31 553.147 136.632 553.488 137.033 553.74C137.444 553.992 137.901 554.118 138.405 554.118ZM146.665 555.168C146.142 555.168 145.666 555.047 145.237 554.804C144.807 554.552 144.467 554.207 144.215 553.768C143.972 553.32 143.851 552.807 143.851 552.228V547.496H144.901V552.102C144.901 552.503 144.98 552.858 145.139 553.166C145.307 553.465 145.535 553.698 145.825 553.866C146.123 554.034 146.464 554.118 146.847 554.118C147.229 554.118 147.57 554.034 147.869 553.866C148.167 553.689 148.401 553.441 148.569 553.124C148.737 552.797 148.821 552.41 148.821 551.962V547.496H149.871V555H148.821V553.544L149.059 553.6C148.881 554.085 148.578 554.468 148.149 554.748C147.719 555.028 147.225 555.168 146.665 555.168ZM154.634 555.168C153.915 555.168 153.285 554.986 152.744 554.622C152.203 554.258 151.811 553.763 151.568 553.138L152.45 552.718C152.665 553.175 152.963 553.539 153.346 553.81C153.738 554.081 154.167 554.216 154.634 554.216C155.082 554.216 155.46 554.109 155.768 553.894C156.076 553.67 156.23 553.381 156.23 553.026C156.23 552.765 156.155 552.559 156.006 552.41C155.857 552.251 155.684 552.13 155.488 552.046C155.292 551.962 155.119 551.901 154.97 551.864L153.892 551.556C153.201 551.36 152.702 551.085 152.394 550.73C152.086 550.375 151.932 549.965 151.932 549.498C151.932 549.059 152.044 548.677 152.268 548.35C152.492 548.023 152.795 547.771 153.178 547.594C153.561 547.417 153.985 547.328 154.452 547.328C155.087 547.328 155.661 547.496 156.174 547.832C156.697 548.159 157.065 548.616 157.28 549.204L156.384 549.624C156.197 549.204 155.927 548.877 155.572 548.644C155.227 548.401 154.839 548.28 154.41 548.28C153.99 548.28 153.654 548.387 153.402 548.602C153.15 548.817 153.024 549.087 153.024 549.414C153.024 549.666 153.089 549.867 153.22 550.016C153.351 550.165 153.5 550.277 153.668 550.352C153.845 550.427 153.999 550.483 154.13 550.52L155.376 550.884C155.983 551.061 156.454 551.337 156.79 551.71C157.135 552.083 157.308 552.522 157.308 553.026C157.308 553.437 157.191 553.805 156.958 554.132C156.734 554.459 156.421 554.715 156.02 554.902C155.619 555.079 155.157 555.168 154.634 555.168ZM162.583 555.168C161.846 555.168 161.197 554.995 160.637 554.65C160.077 554.305 159.639 553.838 159.321 553.25C159.004 552.653 158.845 551.981 158.845 551.234C158.845 550.487 159.004 549.82 159.321 549.232C159.639 548.644 160.077 548.182 160.637 547.846C161.197 547.501 161.846 547.328 162.583 547.328C163.05 547.328 163.489 547.412 163.899 547.58C164.31 547.748 164.674 547.977 164.991 548.266C165.309 548.546 165.547 548.873 165.705 549.246L164.753 549.736C164.567 549.335 164.282 549.008 163.899 548.756C163.517 548.504 163.078 548.378 162.583 548.378C162.089 548.378 161.641 548.504 161.239 548.756C160.847 548.999 160.535 549.339 160.301 549.778C160.077 550.207 159.965 550.697 159.965 551.248C159.965 551.789 160.077 552.279 160.301 552.718C160.535 553.147 160.847 553.488 161.239 553.74C161.641 553.992 162.089 554.118 162.583 554.118C163.078 554.118 163.512 553.992 163.885 553.74C164.268 553.488 164.557 553.152 164.753 552.732L165.705 553.25C165.547 553.614 165.309 553.941 164.991 554.23C164.674 554.519 164.31 554.748 163.899 554.916C163.489 555.084 163.05 555.168 162.583 555.168ZM169.581 555.168C169.105 555.168 168.68 555.079 168.307 554.902C167.934 554.715 167.64 554.463 167.425 554.146C167.21 553.829 167.103 553.465 167.103 553.054C167.103 552.662 167.187 552.307 167.355 551.99C167.523 551.663 167.784 551.388 168.139 551.164C168.494 550.94 168.946 550.781 169.497 550.688L172.437 550.198V551.15L169.749 551.598C169.208 551.691 168.816 551.864 168.573 552.116C168.34 552.368 168.223 552.667 168.223 553.012C168.223 553.348 168.354 553.633 168.615 553.866C168.886 554.099 169.231 554.216 169.651 554.216C170.164 554.216 170.612 554.109 170.995 553.894C171.378 553.67 171.676 553.371 171.891 552.998C172.106 552.625 172.213 552.209 172.213 551.752V549.848C172.213 549.4 172.05 549.036 171.723 548.756C171.396 548.476 170.972 548.336 170.449 548.336C169.992 548.336 169.59 548.453 169.245 548.686C168.9 548.91 168.643 549.204 168.475 549.568L167.523 549.05C167.663 548.733 167.882 548.443 168.181 548.182C168.489 547.921 168.839 547.715 169.231 547.566C169.623 547.407 170.029 547.328 170.449 547.328C171 547.328 171.485 547.435 171.905 547.65C172.334 547.865 172.666 548.163 172.899 548.546C173.142 548.919 173.263 549.353 173.263 549.848V555H172.213V553.502L172.367 553.656C172.236 553.936 172.031 554.193 171.751 554.426C171.48 554.65 171.158 554.832 170.785 554.972C170.421 555.103 170.02 555.168 169.581 555.168ZM175.423 555V547.496H176.473V548.728L176.333 548.546C176.51 548.191 176.776 547.911 177.131 547.706C177.495 547.501 177.933 547.398 178.447 547.398H178.923V548.448H178.265C177.723 548.448 177.289 548.616 176.963 548.952C176.636 549.288 176.473 549.764 176.473 550.38V555H175.423ZM185.136 555.168C184.417 555.168 183.787 554.986 183.246 554.622C182.705 554.258 182.313 553.763 182.07 553.138L182.952 552.718C183.167 553.175 183.465 553.539 183.848 553.81C184.24 554.081 184.669 554.216 185.136 554.216C185.584 554.216 185.962 554.109 186.27 553.894C186.578 553.67 186.732 553.381 186.732 553.026C186.732 552.765 186.657 552.559 186.508 552.41C186.359 552.251 186.186 552.13 185.99 552.046C185.794 551.962 185.621 551.901 185.472 551.864L184.394 551.556C183.703 551.36 183.204 551.085 182.896 550.73C182.588 550.375 182.434 549.965 182.434 549.498C182.434 549.059 182.546 548.677 182.77 548.35C182.994 548.023 183.297 547.771 183.68 547.594C184.063 547.417 184.487 547.328 184.954 547.328C185.589 547.328 186.163 547.496 186.676 547.832C187.199 548.159 187.567 548.616 187.782 549.204L186.886 549.624C186.699 549.204 186.429 548.877 186.074 548.644C185.729 548.401 185.341 548.28 184.912 548.28C184.492 548.28 184.156 548.387 183.904 548.602C183.652 548.817 183.526 549.087 183.526 549.414C183.526 549.666 183.591 549.867 183.722 550.016C183.853 550.165 184.002 550.277 184.17 550.352C184.347 550.427 184.501 550.483 184.632 550.52L185.878 550.884C186.485 551.061 186.956 551.337 187.292 551.71C187.637 552.083 187.81 552.522 187.81 553.026C187.81 553.437 187.693 553.805 187.46 554.132C187.236 554.459 186.923 554.715 186.522 554.902C186.121 555.079 185.659 555.168 185.136 555.168ZM193.071 555.168C192.371 555.168 191.736 555 191.167 554.664C190.607 554.319 190.164 553.847 189.837 553.25C189.51 552.653 189.347 551.976 189.347 551.22C189.347 550.464 189.506 549.797 189.823 549.218C190.14 548.63 190.57 548.168 191.111 547.832C191.662 547.496 192.278 547.328 192.959 547.328C193.5 547.328 193.981 547.431 194.401 547.636C194.83 547.832 195.194 548.103 195.493 548.448C195.792 548.784 196.02 549.167 196.179 549.596C196.338 550.016 196.417 550.45 196.417 550.898C196.417 550.991 196.412 551.099 196.403 551.22C196.394 551.332 196.38 551.449 196.361 551.57H190.019V550.59H195.759L195.255 551.01C195.339 550.497 195.278 550.039 195.073 549.638C194.877 549.227 194.592 548.905 194.219 548.672C193.846 548.429 193.426 548.308 192.959 548.308C192.492 548.308 192.058 548.429 191.657 548.672C191.265 548.915 190.957 549.255 190.733 549.694C190.509 550.123 190.42 550.637 190.467 551.234C190.42 551.831 190.514 552.354 190.747 552.802C190.99 553.241 191.316 553.581 191.727 553.824C192.147 554.067 192.595 554.188 193.071 554.188C193.622 554.188 194.084 554.057 194.457 553.796C194.83 553.535 195.134 553.208 195.367 552.816L196.263 553.292C196.114 553.628 195.885 553.941 195.577 554.23C195.269 554.51 194.9 554.739 194.471 554.916C194.051 555.084 193.584 555.168 193.071 555.168ZM200.928 555.168C200.406 555.168 199.93 555.047 199.5 554.804C199.071 554.552 198.73 554.207 198.478 553.768C198.236 553.32 198.114 552.807 198.114 552.228V547.496H199.164V552.102C199.164 552.503 199.244 552.858 199.402 553.166C199.57 553.465 199.799 553.698 200.088 553.866C200.387 554.034 200.728 554.118 201.11 554.118C201.493 554.118 201.834 554.034 202.132 553.866C202.431 553.689 202.664 553.441 202.832 553.124C203 552.797 203.084 552.41 203.084 551.962V547.496H204.134V555H203.084V553.544L203.322 553.6C203.145 554.085 202.842 554.468 202.412 554.748C201.983 555.028 201.488 555.168 200.928 555.168ZM208.898 555.168C208.179 555.168 207.549 554.986 207.008 554.622C206.466 554.258 206.074 553.763 205.832 553.138L206.714 552.718C206.928 553.175 207.227 553.539 207.61 553.81C208.002 554.081 208.431 554.216 208.898 554.216C209.346 554.216 209.724 554.109 210.032 553.894C210.34 553.67 210.494 553.381 210.494 553.026C210.494 552.765 210.419 552.559 210.27 552.41C210.12 552.251 209.948 552.13 209.752 552.046C209.556 551.962 209.383 551.901 209.234 551.864L208.156 551.556C207.465 551.36 206.966 551.085 206.658 550.73C206.35 550.375 206.196 549.965 206.196 549.498C206.196 549.059 206.308 548.677 206.532 548.35C206.756 548.023 207.059 547.771 207.442 547.594C207.824 547.417 208.249 547.328 208.716 547.328C209.35 547.328 209.924 547.496 210.438 547.832C210.96 548.159 211.329 548.616 211.544 549.204L210.648 549.624C210.461 549.204 210.19 548.877 209.836 548.644C209.49 548.401 209.103 548.28 208.674 548.28C208.254 548.28 207.918 548.387 207.666 548.602C207.414 548.817 207.288 549.087 207.288 549.414C207.288 549.666 207.353 549.867 207.484 550.016C207.614 550.165 207.764 550.277 207.932 550.352C208.109 550.427 208.263 550.483 208.394 550.52L209.64 550.884C210.246 551.061 210.718 551.337 211.054 551.71C211.399 552.083 211.572 552.522 211.572 553.026C211.572 553.437 211.455 553.805 211.222 554.132C210.998 554.459 210.685 554.715 210.284 554.902C209.882 555.079 209.42 555.168 208.898 555.168ZM219.226 555.168C218.488 555.168 217.84 554.995 217.28 554.65C216.72 554.305 216.281 553.838 215.964 553.25C215.646 552.653 215.488 551.981 215.488 551.234C215.488 550.487 215.646 549.82 215.964 549.232C216.281 548.644 216.72 548.182 217.28 547.846C217.84 547.501 218.488 547.328 219.226 547.328C219.692 547.328 220.131 547.412 220.542 547.58C220.952 547.748 221.316 547.977 221.634 548.266C221.951 548.546 222.189 548.873 222.348 549.246L221.396 549.736C221.209 549.335 220.924 549.008 220.542 548.756C220.159 548.504 219.72 548.378 219.226 548.378C218.731 548.378 218.283 548.504 217.882 548.756C217.49 548.999 217.177 549.339 216.944 549.778C216.72 550.207 216.608 550.697 216.608 551.248C216.608 551.789 216.72 552.279 216.944 552.718C217.177 553.147 217.49 553.488 217.882 553.74C218.283 553.992 218.731 554.118 219.226 554.118C219.72 554.118 220.154 553.992 220.528 553.74C220.91 553.488 221.2 553.152 221.396 552.732L222.348 553.25C222.189 553.614 221.951 553.941 221.634 554.23C221.316 554.519 220.952 554.748 220.542 554.916C220.131 555.084 219.692 555.168 219.226 555.168ZM224.19 555V544.402H225.24V555H224.19ZM230.05 555.168C229.527 555.168 229.051 555.047 228.622 554.804C228.192 554.552 227.852 554.207 227.6 553.768C227.357 553.32 227.236 552.807 227.236 552.228V547.496H228.286V552.102C228.286 552.503 228.365 552.858 228.524 553.166C228.692 553.465 228.92 553.698 229.21 553.866C229.508 554.034 229.849 554.118 230.232 554.118C230.614 554.118 230.955 554.034 231.254 553.866C231.552 553.689 231.786 553.441 231.954 553.124C232.122 552.797 232.206 552.41 232.206 551.962V547.496H233.256V555H232.206V553.544L232.444 553.6C232.266 554.085 231.963 554.468 231.534 554.748C231.104 555.028 230.61 555.168 230.05 555.168ZM239.209 555.168C238.565 555.168 237.982 555.023 237.459 554.734C236.946 554.435 236.558 554.015 236.297 553.474L236.465 553.32V555H235.415V544.402H236.465V549.176L236.297 548.882C236.596 548.406 236.992 548.028 237.487 547.748C237.991 547.468 238.565 547.328 239.209 547.328C239.918 547.328 240.548 547.501 241.099 547.846C241.659 548.182 242.098 548.644 242.415 549.232C242.742 549.82 242.905 550.492 242.905 551.248C242.905 551.995 242.742 552.667 242.415 553.264C242.098 553.852 241.659 554.319 241.099 554.664C240.548 555 239.918 555.168 239.209 555.168ZM239.153 554.118C239.657 554.118 240.105 553.992 240.497 553.74C240.898 553.488 241.211 553.147 241.435 552.718C241.668 552.279 241.785 551.789 241.785 551.248C241.785 550.697 241.668 550.207 241.435 549.778C241.211 549.349 240.898 549.008 240.497 548.756C240.105 548.504 239.657 548.378 239.153 548.378C238.649 548.378 238.192 548.504 237.781 548.756C237.38 549.008 237.058 549.353 236.815 549.792C236.582 550.221 236.465 550.707 236.465 551.248C236.465 551.789 236.582 552.279 236.815 552.718C237.058 553.147 237.38 553.488 237.781 553.74C238.192 553.992 238.649 554.118 239.153 554.118ZM248.169 555.168C247.469 555.168 246.834 555 246.265 554.664C245.705 554.319 245.261 553.847 244.935 553.25C244.608 552.653 244.445 551.976 244.445 551.22C244.445 550.464 244.603 549.797 244.921 549.218C245.238 548.63 245.667 548.168 246.209 547.832C246.759 547.496 247.375 547.328 248.057 547.328C248.598 547.328 249.079 547.431 249.499 547.636C249.928 547.832 250.292 548.103 250.591 548.448C250.889 548.784 251.118 549.167 251.277 549.596C251.435 550.016 251.515 550.45 251.515 550.898C251.515 550.991 251.51 551.099 251.501 551.22C251.491 551.332 251.477 551.449 251.459 551.57H245.117V550.59H250.857L250.353 551.01C250.437 550.497 250.376 550.039 250.171 549.638C249.975 549.227 249.69 548.905 249.317 548.672C248.943 548.429 248.523 548.308 248.057 548.308C247.59 548.308 247.156 548.429 246.755 548.672C246.363 548.915 246.055 549.255 245.831 549.694C245.607 550.123 245.518 550.637 245.565 551.234C245.518 551.831 245.611 552.354 245.845 552.802C246.087 553.241 246.414 553.581 246.825 553.824C247.245 554.067 247.693 554.188 248.169 554.188C248.719 554.188 249.181 554.057 249.555 553.796C249.928 553.535 250.231 553.208 250.465 552.816L251.361 553.292C251.211 553.628 250.983 553.941 250.675 554.23C250.367 554.51 249.998 554.739 249.569 554.916C249.149 555.084 248.682 555.168 248.169 555.168ZM255.97 555.168C255.251 555.168 254.621 554.986 254.08 554.622C253.539 554.258 253.147 553.763 252.904 553.138L253.786 552.718C254.001 553.175 254.299 553.539 254.682 553.81C255.074 554.081 255.503 554.216 255.97 554.216C256.418 554.216 256.796 554.109 257.104 553.894C257.412 553.67 257.566 553.381 257.566 553.026C257.566 552.765 257.491 552.559 257.342 552.41C257.193 552.251 257.02 552.13 256.824 552.046C256.628 551.962 256.455 551.901 256.306 551.864L255.228 551.556C254.537 551.36 254.038 551.085 253.73 550.73C253.422 550.375 253.268 549.965 253.268 549.498C253.268 549.059 253.38 548.677 253.604 548.35C253.828 548.023 254.131 547.771 254.514 547.594C254.897 547.417 255.321 547.328 255.788 547.328C256.423 547.328 256.997 547.496 257.51 547.832C258.033 548.159 258.401 548.616 258.616 549.204L257.72 549.624C257.533 549.204 257.263 548.877 256.908 548.644C256.563 548.401 256.175 548.28 255.746 548.28C255.326 548.28 254.99 548.387 254.738 548.602C254.486 548.817 254.36 549.087 254.36 549.414C254.36 549.666 254.425 549.867 254.556 550.016C254.687 550.165 254.836 550.277 255.004 550.352C255.181 550.427 255.335 550.483 255.466 550.52L256.712 550.884C257.319 551.061 257.79 551.337 258.126 551.71C258.471 552.083 258.644 552.522 258.644 553.026C258.644 553.437 258.527 553.805 258.294 554.132C258.07 554.459 257.757 554.715 257.356 554.902C256.955 555.079 256.493 555.168 255.97 555.168Z" fill="white"></path>
<path d="M40.964 619.168C40.2267 619.168 39.5453 619.037 38.92 618.776C38.304 618.505 37.7627 618.127 37.296 617.642C36.8387 617.157 36.484 616.587 36.232 615.934C35.98 615.281 35.854 614.567 35.854 613.792C35.854 613.008 35.98 612.289 36.232 611.636C36.484 610.983 36.8387 610.413 37.296 609.928C37.7533 609.443 38.2947 609.069 38.92 608.808C39.5453 608.537 40.2267 608.402 40.964 608.402C41.6827 608.402 42.3267 608.528 42.896 608.78C43.4747 609.032 43.96 609.359 44.352 609.76C44.7533 610.161 45.038 610.591 45.206 611.048L43.946 611.622C43.7033 611.043 43.3253 610.577 42.812 610.222C42.2987 609.858 41.6827 609.676 40.964 609.676C40.236 609.676 39.5873 609.849 39.018 610.194C38.458 610.539 38.0193 611.02 37.702 611.636C37.3847 612.252 37.226 612.971 37.226 613.792C37.226 614.604 37.3847 615.318 37.702 615.934C38.0193 616.55 38.458 617.031 39.018 617.376C39.5873 617.721 40.236 617.894 40.964 617.894C41.6827 617.894 42.2987 617.717 42.812 617.362C43.3253 616.998 43.7033 616.527 43.946 615.948L45.206 616.522C45.038 616.979 44.7533 617.409 44.352 617.81C43.96 618.211 43.4747 618.538 42.896 618.79C42.3267 619.042 41.6827 619.168 40.964 619.168ZM47.0722 619V608.57H50.7542C51.4448 608.57 52.0515 608.701 52.5742 608.962C53.0968 609.223 53.5028 609.597 53.7922 610.082C54.0908 610.567 54.2402 611.137 54.2402 611.79C54.2402 612.443 54.0908 613.013 53.7922 613.498C53.5028 613.974 53.0968 614.347 52.5742 614.618C52.0608 614.879 51.4542 615.01 50.7542 615.01H48.4442V619H47.0722ZM48.4442 613.75H50.7962C51.2162 613.75 51.5802 613.671 51.8882 613.512C52.1962 613.353 52.4342 613.125 52.6022 612.826C52.7702 612.527 52.8542 612.182 52.8542 611.79C52.8542 611.389 52.7702 611.043 52.6022 610.754C52.4342 610.455 52.1962 610.227 51.8882 610.068C51.5802 609.909 51.2162 609.83 50.7962 609.83H48.4442V613.75ZM56.0956 619V608.57H62.7036V609.83H57.4676V613.204H62.2136V614.464H57.4676V619H56.0956ZM69.9536 619.168C69.2443 619.168 68.605 618.995 68.0356 618.65C67.4756 618.305 67.0323 617.833 66.7056 617.236C66.379 616.639 66.2156 615.971 66.2156 615.234C66.2156 614.478 66.379 613.806 66.7056 613.218C67.0323 612.621 67.4756 612.149 68.0356 611.804C68.605 611.459 69.2443 611.286 69.9536 611.286C70.579 611.286 71.1343 611.421 71.6196 611.692C72.105 611.953 72.4876 612.308 72.7676 612.756L72.5576 613.078V608.402H73.8736V619H72.5996V617.39L72.7676 617.614C72.5063 618.109 72.1236 618.491 71.6196 618.762C71.125 619.033 70.5696 619.168 69.9536 619.168ZM70.0656 617.908C70.5416 617.908 70.9663 617.791 71.3396 617.558C71.713 617.325 72.007 617.007 72.2216 616.606C72.4456 616.195 72.5576 615.738 72.5576 615.234C72.5576 614.721 72.4456 614.263 72.2216 613.862C72.007 613.451 71.713 613.129 71.3396 612.896C70.9663 612.663 70.5416 612.546 70.0656 612.546C69.599 612.546 69.1743 612.667 68.7916 612.91C68.4183 613.143 68.1243 613.461 67.9096 613.862C67.695 614.254 67.5876 614.711 67.5876 615.234C67.5876 615.738 67.695 616.195 67.9096 616.606C68.1243 617.007 68.4183 617.325 68.7916 617.558C69.165 617.791 69.5896 617.908 70.0656 617.908ZM79.4729 619.168C78.7449 619.168 78.0869 619 77.4989 618.664C76.9109 618.319 76.4442 617.847 76.0989 617.25C75.7535 616.653 75.5809 615.976 75.5809 615.22C75.5809 614.464 75.7489 613.792 76.0849 613.204C76.4302 612.616 76.8969 612.149 77.4849 611.804C78.0729 611.459 78.7355 611.286 79.4729 611.286C80.2009 611.286 80.8589 611.459 81.4469 611.804C82.0349 612.14 82.4969 612.602 82.8329 613.19C83.1782 613.778 83.3509 614.455 83.3509 615.22C83.3509 615.985 83.1735 616.667 82.8189 617.264C82.4642 617.852 81.9929 618.319 81.4049 618.664C80.8262 619 80.1822 619.168 79.4729 619.168ZM79.4729 617.908C79.9395 617.908 80.3595 617.791 80.7329 617.558C81.1155 617.325 81.4142 617.003 81.6289 616.592C81.8529 616.181 81.9649 615.724 81.9649 615.22C81.9649 614.707 81.8529 614.254 81.6289 613.862C81.4142 613.461 81.1155 613.143 80.7329 612.91C80.3595 612.667 79.9395 612.546 79.4729 612.546C78.9969 612.546 78.5675 612.667 78.1849 612.91C77.8115 613.143 77.5129 613.461 77.2889 613.862C77.0649 614.254 76.9529 614.707 76.9529 615.22C76.9529 615.724 77.0649 616.181 77.2889 616.592C77.5129 617.003 77.8115 617.325 78.1849 617.558C78.5675 617.791 78.9969 617.908 79.4729 617.908ZM89.6809 619.168C89.1863 619.168 88.7476 619.079 88.3649 618.902C87.9916 618.715 87.6976 618.463 87.4829 618.146C87.2683 617.819 87.1609 617.446 87.1609 617.026C87.1609 616.625 87.2449 616.265 87.4129 615.948C87.5903 615.621 87.8609 615.346 88.2249 615.122C88.5983 614.898 89.0649 614.739 89.6249 614.646L92.4249 614.184V615.276L89.9189 615.696C89.4336 615.78 89.0789 615.934 88.8549 616.158C88.6403 616.382 88.5329 616.657 88.5329 616.984C88.5329 617.292 88.6543 617.549 88.8969 617.754C89.1489 617.959 89.4616 618.062 89.8349 618.062C90.3109 618.062 90.7216 617.964 91.0669 617.768C91.4216 617.563 91.6969 617.287 91.8929 616.942C92.0983 616.597 92.2009 616.214 92.2009 615.794V613.876C92.2009 613.465 92.0469 613.134 91.7389 612.882C91.4403 612.621 91.0436 612.49 90.5489 612.49C90.1196 612.49 89.7369 612.602 89.4009 612.826C89.0743 613.041 88.8316 613.33 88.6729 613.694L87.5389 613.106C87.6789 612.761 87.9029 612.453 88.2109 612.182C88.5189 611.902 88.8783 611.683 89.2889 611.524C89.6996 611.365 90.1289 611.286 90.5769 611.286C91.1556 611.286 91.6643 611.398 92.1029 611.622C92.5416 611.837 92.8823 612.14 93.1249 612.532C93.3769 612.915 93.5029 613.363 93.5029 613.876V619H92.2289V617.572L92.4669 617.656C92.3083 617.955 92.0936 618.216 91.8229 618.44C91.5523 618.664 91.2349 618.841 90.8709 618.972C90.5069 619.103 90.1103 619.168 89.6809 619.168ZM98.451 619.084C97.7136 619.084 97.1443 618.874 96.743 618.454C96.351 618.034 96.155 617.441 96.155 616.676V612.7H94.783V611.454H95.063C95.399 611.454 95.665 611.351 95.861 611.146C96.057 610.941 96.155 610.67 96.155 610.334V609.718H97.457V611.454H99.151V612.7H97.457V616.634C97.457 616.886 97.4943 617.105 97.569 617.292C97.653 617.479 97.7883 617.628 97.975 617.74C98.1616 617.843 98.409 617.894 98.717 617.894C98.7823 617.894 98.8616 617.889 98.955 617.88C99.0576 617.871 99.151 617.861 99.235 617.852V619C99.1136 619.028 98.9783 619.047 98.829 619.056C98.6796 619.075 98.5536 619.084 98.451 619.084ZM100.936 619V608.402H102.238V619H100.936ZM107.73 619.168C107.002 619.168 106.353 618.995 105.784 618.65C105.215 618.305 104.767 617.833 104.44 617.236C104.113 616.629 103.95 615.953 103.95 615.206C103.95 614.45 104.109 613.778 104.426 613.19C104.753 612.602 105.191 612.14 105.742 611.804C106.302 611.459 106.927 611.286 107.618 611.286C108.178 611.286 108.673 611.389 109.102 611.594C109.541 611.79 109.909 612.061 110.208 612.406C110.516 612.742 110.749 613.129 110.908 613.568C111.076 613.997 111.16 614.445 111.16 614.912C111.16 615.015 111.151 615.131 111.132 615.262C111.123 615.383 111.109 615.5 111.09 615.612H104.902V614.492H110.334L109.718 614.996C109.802 614.511 109.755 614.077 109.578 613.694C109.401 613.311 109.139 613.008 108.794 612.784C108.449 612.56 108.057 612.448 107.618 612.448C107.179 612.448 106.778 612.56 106.414 612.784C106.05 613.008 105.765 613.33 105.56 613.75C105.364 614.161 105.285 614.651 105.322 615.22C105.285 615.771 105.369 616.256 105.574 616.676C105.789 617.087 106.087 617.409 106.47 617.642C106.862 617.866 107.287 617.978 107.744 617.978C108.248 617.978 108.673 617.861 109.018 617.628C109.363 617.395 109.643 617.096 109.858 616.732L110.95 617.292C110.801 617.637 110.567 617.955 110.25 618.244C109.942 618.524 109.573 618.748 109.144 618.916C108.724 619.084 108.253 619.168 107.73 619.168ZM115.924 619.084C115.186 619.084 114.617 618.874 114.216 618.454C113.824 618.034 113.628 617.441 113.628 616.676V612.7H112.256V611.454H112.536C112.872 611.454 113.138 611.351 113.334 611.146C113.53 610.941 113.628 610.67 113.628 610.334V609.718H114.93V611.454H116.624V612.7H114.93V616.634C114.93 616.886 114.967 617.105 115.042 617.292C115.126 617.479 115.261 617.628 115.448 617.74C115.634 617.843 115.882 617.894 116.19 617.894C116.255 617.894 116.334 617.889 116.428 617.88C116.53 617.871 116.624 617.861 116.708 617.852V619C116.586 619.028 116.451 619.047 116.302 619.056C116.152 619.075 116.026 619.084 115.924 619.084ZM120.525 619.168C120.03 619.168 119.591 619.079 119.209 618.902C118.835 618.715 118.541 618.463 118.327 618.146C118.112 617.819 118.005 617.446 118.005 617.026C118.005 616.625 118.089 616.265 118.257 615.948C118.434 615.621 118.705 615.346 119.069 615.122C119.442 614.898 119.909 614.739 120.469 614.646L123.269 614.184V615.276L120.763 615.696C120.277 615.78 119.923 615.934 119.699 616.158C119.484 616.382 119.377 616.657 119.377 616.984C119.377 617.292 119.498 617.549 119.741 617.754C119.993 617.959 120.305 618.062 120.679 618.062C121.155 618.062 121.565 617.964 121.911 617.768C122.265 617.563 122.541 617.287 122.737 616.942C122.942 616.597 123.045 616.214 123.045 615.794V613.876C123.045 613.465 122.891 613.134 122.583 612.882C122.284 612.621 121.887 612.49 121.393 612.49C120.963 612.49 120.581 612.602 120.245 612.826C119.918 613.041 119.675 613.33 119.517 613.694L118.383 613.106C118.523 612.761 118.747 612.453 119.055 612.182C119.363 611.902 119.722 611.683 120.133 611.524C120.543 611.365 120.973 611.286 121.421 611.286C121.999 611.286 122.508 611.398 122.947 611.622C123.385 611.837 123.726 612.14 123.969 612.532C124.221 612.915 124.347 613.363 124.347 613.876V619H123.073V617.572L123.311 617.656C123.152 617.955 122.937 618.216 122.667 618.44C122.396 618.664 122.079 618.841 121.715 618.972C121.351 619.103 120.954 619.168 120.525 619.168Z" fill="white"></path>
<g clip-path="url(#clip1_28_1466)">
<mask id="path-12-inside-1_28_1466" fill="white">
<path d="M35 637C35 632.582 38.5817 629 43 629H350C354.418 629 358 632.582 358 637V669C358 673.418 354.418 677 350 677H43C38.5817 677 35 673.418 35 669V637Z"></path>
</mask>
<g clip-path="url(#clip2_28_1466)">
<path d="M48.232 659V648.57H51.662C52.698 648.57 53.5987 648.785 54.364 649.214C55.1293 649.634 55.722 650.236 56.142 651.02C56.562 651.795 56.772 652.714 56.772 653.778C56.772 654.833 56.562 655.752 56.142 656.536C55.722 657.32 55.1293 657.927 54.364 658.356C53.5987 658.785 52.698 659 51.662 659H48.232ZM49.352 657.95H51.662C52.4647 657.95 53.16 657.782 53.748 657.446C54.336 657.101 54.7887 656.615 55.106 655.99C55.4327 655.365 55.596 654.627 55.596 653.778C55.596 652.929 55.4327 652.196 55.106 651.58C54.7793 650.955 54.322 650.474 53.734 650.138C53.146 649.793 52.4553 649.62 51.662 649.62H49.352V657.95ZM58.4686 659V651.496H59.5186V659H58.4686ZM58.4686 650.11V648.57H59.5186V650.11H58.4686ZM65.2238 662.08C64.7105 662.08 64.2345 662.001 63.7958 661.842C63.3665 661.683 62.9932 661.464 62.6758 661.184C62.3678 660.913 62.1298 660.596 61.9618 660.232L62.9278 659.714C63.0772 660.069 63.3432 660.377 63.7258 660.638C64.1085 660.899 64.5985 661.03 65.1958 661.03C65.6532 661.03 66.0732 660.941 66.4558 660.764C66.8385 660.587 67.1465 660.325 67.3798 659.98C67.6132 659.635 67.7298 659.21 67.7298 658.706V657.04L67.8978 657.194C67.6365 657.735 67.2492 658.155 66.7358 658.454C66.2225 658.743 65.6625 658.888 65.0558 658.888C64.3558 658.888 63.7258 658.72 63.1658 658.384C62.6058 658.048 62.1625 657.595 61.8358 657.026C61.5185 656.447 61.3598 655.808 61.3598 655.108C61.3598 654.399 61.5185 653.759 61.8358 653.19C62.1625 652.621 62.6012 652.168 63.1518 651.832C63.7118 651.496 64.3465 651.328 65.0558 651.328C65.6625 651.328 66.2132 651.468 66.7078 651.748C67.2118 652.028 67.6085 652.406 67.8978 652.882L67.7298 653.176V651.496H68.7798V658.706C68.7798 659.35 68.6258 659.924 68.3178 660.428C68.0192 660.941 67.5992 661.343 67.0578 661.632C66.5258 661.931 65.9145 662.08 65.2238 662.08ZM65.1118 657.838C65.5972 657.838 66.0358 657.717 66.4278 657.474C66.8198 657.222 67.1325 656.891 67.3658 656.48C67.6085 656.06 67.7298 655.603 67.7298 655.108C67.7298 654.613 67.6085 654.161 67.3658 653.75C67.1325 653.33 66.8198 652.999 66.4278 652.756C66.0358 652.504 65.5972 652.378 65.1118 652.378C64.6172 652.378 64.1692 652.504 63.7678 652.756C63.3665 652.999 63.0492 653.325 62.8158 653.736C62.5918 654.147 62.4798 654.604 62.4798 655.108C62.4798 655.603 62.5918 656.06 62.8158 656.48C63.0492 656.891 63.3618 657.222 63.7538 657.474C64.1552 657.717 64.6078 657.838 65.1118 657.838ZM70.9374 659V651.496H71.9874V659H70.9374ZM70.9374 650.11V648.57H71.9874V650.11H70.9374ZM77.0066 659.084C76.3346 659.084 75.8166 658.888 75.4526 658.496C75.0886 658.104 74.9066 657.544 74.9066 656.816V652.546H73.5206V651.496H73.8706C74.1879 651.496 74.4399 651.393 74.6266 651.188C74.8133 650.973 74.9066 650.707 74.9066 650.39V649.76H75.9566V651.496H77.6086V652.546H75.9566V656.816C75.9566 657.068 75.9939 657.292 76.0686 657.488C76.1433 657.675 76.2693 657.824 76.4466 657.936C76.6333 658.048 76.8806 658.104 77.1886 658.104C77.2633 658.104 77.3519 658.099 77.4546 658.09C77.5573 658.081 77.6459 658.071 77.7206 658.062V659C77.6086 659.028 77.4826 659.047 77.3426 659.056C77.2026 659.075 77.0906 659.084 77.0066 659.084ZM82.7069 659.168C82.0069 659.168 81.3722 659 80.8029 658.664C80.2429 658.319 79.7996 657.847 79.4729 657.25C79.1462 656.653 78.9829 655.976 78.9829 655.22C78.9829 654.464 79.1416 653.797 79.4589 653.218C79.7762 652.63 80.2056 652.168 80.7469 651.832C81.2976 651.496 81.9136 651.328 82.5949 651.328C83.1362 651.328 83.6169 651.431 84.0369 651.636C84.4662 651.832 84.8302 652.103 85.1289 652.448C85.4276 652.784 85.6562 653.167 85.8149 653.596C85.9736 654.016 86.0529 654.45 86.0529 654.898C86.0529 654.991 86.0482 655.099 86.0389 655.22C86.0296 655.332 86.0156 655.449 85.9969 655.57H79.6549V654.59H85.3949L84.8909 655.01C84.9749 654.497 84.9142 654.039 84.7089 653.638C84.5129 653.227 84.2282 652.905 83.8549 652.672C83.4816 652.429 83.0616 652.308 82.5949 652.308C82.1282 652.308 81.6942 652.429 81.2929 652.672C80.9009 652.915 80.5929 653.255 80.3689 653.694C80.1449 654.123 80.0562 654.637 80.1029 655.234C80.0562 655.831 80.1496 656.354 80.3829 656.802C80.6256 657.241 80.9522 657.581 81.3629 657.824C81.7829 658.067 82.2309 658.188 82.7069 658.188C83.2576 658.188 83.7196 658.057 84.0929 657.796C84.4662 657.535 84.7696 657.208 85.0029 656.816L85.8989 657.292C85.7496 657.628 85.5209 657.941 85.2129 658.23C84.9049 658.51 84.5362 658.739 84.1069 658.916C83.6869 659.084 83.2202 659.168 82.7069 659.168ZM92.8871 659.168C92.1684 659.168 91.5384 658.986 90.9971 658.622C90.4557 658.258 90.0637 657.763 89.8211 657.138L90.7031 656.718C90.9177 657.175 91.2164 657.539 91.5991 657.81C91.9911 658.081 92.4204 658.216 92.8871 658.216C93.3351 658.216 93.7131 658.109 94.0211 657.894C94.3291 657.67 94.4831 657.381 94.4831 657.026C94.4831 656.765 94.4084 656.559 94.2591 656.41C94.1097 656.251 93.9371 656.13 93.7411 656.046C93.5451 655.962 93.3724 655.901 93.2231 655.864L92.1451 655.556C91.4544 655.36 90.9551 655.085 90.6471 654.73C90.3391 654.375 90.1851 653.965 90.1851 653.498C90.1851 653.059 90.2971 652.677 90.5211 652.35C90.7451 652.023 91.0484 651.771 91.4311 651.594C91.8137 651.417 92.2384 651.328 92.7051 651.328C93.3397 651.328 93.9137 651.496 94.4271 651.832C94.9497 652.159 95.3184 652.616 95.5331 653.204L94.6371 653.624C94.4504 653.204 94.1797 652.877 93.8251 652.644C93.4797 652.401 93.0924 652.28 92.6631 652.28C92.2431 652.28 91.9071 652.387 91.6551 652.602C91.4031 652.817 91.2771 653.087 91.2771 653.414C91.2771 653.666 91.3424 653.867 91.4731 654.016C91.6037 654.165 91.7531 654.277 91.9211 654.352C92.0984 654.427 92.2524 654.483 92.3831 654.52L93.6291 654.884C94.2357 655.061 94.7071 655.337 95.0431 655.71C95.3884 656.083 95.5611 656.522 95.5611 657.026C95.5611 657.437 95.4444 657.805 95.2111 658.132C94.9871 658.459 94.6744 658.715 94.2731 658.902C93.8717 659.079 93.4097 659.168 92.8871 659.168ZM100.822 659.168C100.122 659.168 99.4875 659 98.9181 658.664C98.3581 658.319 97.9148 657.847 97.5881 657.25C97.2615 656.653 97.0981 655.976 97.0981 655.22C97.0981 654.464 97.2568 653.797 97.5741 653.218C97.8915 652.63 98.3208 652.168 98.8621 651.832C99.4128 651.496 100.029 651.328 100.71 651.328C101.251 651.328 101.732 651.431 102.152 651.636C102.581 651.832 102.945 652.103 103.244 652.448C103.543 652.784 103.771 653.167 103.93 653.596C104.089 654.016 104.168 654.45 104.168 654.898C104.168 654.991 104.163 655.099 104.154 655.22C104.145 655.332 104.131 655.449 104.112 655.57H97.7701V654.59H103.51L103.006 655.01C103.09 654.497 103.029 654.039 102.824 653.638C102.628 653.227 102.343 652.905 101.97 652.672C101.597 652.429 101.177 652.308 100.71 652.308C100.243 652.308 99.8095 652.429 99.4081 652.672C99.0161 652.915 98.7081 653.255 98.4841 653.694C98.2601 654.123 98.1715 654.637 98.2181 655.234C98.1715 655.831 98.2648 656.354 98.4981 656.802C98.7408 657.241 99.0675 657.581 99.4781 657.824C99.8981 658.067 100.346 658.188 100.822 658.188C101.373 658.188 101.835 658.057 102.208 657.796C102.581 657.535 102.885 657.208 103.118 656.816L104.014 657.292C103.865 657.628 103.636 657.941 103.328 658.23C103.02 658.51 102.651 658.739 102.222 658.916C101.802 659.084 101.335 659.168 100.822 659.168ZM108.679 659.168C108.157 659.168 107.681 659.047 107.251 658.804C106.822 658.552 106.481 658.207 106.229 657.768C105.987 657.32 105.865 656.807 105.865 656.228V651.496H106.915V656.102C106.915 656.503 106.995 656.858 107.153 657.166C107.321 657.465 107.55 657.698 107.839 657.866C108.138 658.034 108.479 658.118 108.861 658.118C109.244 658.118 109.585 658.034 109.883 657.866C110.182 657.689 110.415 657.441 110.583 657.124C110.751 656.797 110.835 656.41 110.835 655.962V651.496H111.885V659H110.835V657.544L111.073 657.6C110.896 658.085 110.593 658.468 110.163 658.748C109.734 659.028 109.239 659.168 108.679 659.168ZM121.338 659.168C120.6 659.168 119.924 659.037 119.308 658.776C118.692 658.505 118.155 658.132 117.698 657.656C117.25 657.171 116.9 656.601 116.648 655.948C116.396 655.295 116.27 654.576 116.27 653.792C116.27 653.008 116.396 652.289 116.648 651.636C116.9 650.983 117.25 650.413 117.698 649.928C118.155 649.443 118.692 649.069 119.308 648.808C119.924 648.537 120.6 648.402 121.338 648.402C122.047 648.402 122.682 648.528 123.242 648.78C123.811 649.032 124.287 649.359 124.67 649.76C125.062 650.152 125.342 650.567 125.51 651.006L124.46 651.468C124.198 650.861 123.797 650.376 123.256 650.012C122.724 649.639 122.084 649.452 121.338 649.452C120.572 649.452 119.891 649.634 119.294 649.998C118.696 650.362 118.23 650.871 117.894 651.524C117.558 652.168 117.39 652.924 117.39 653.792C117.39 654.651 117.558 655.407 117.894 656.06C118.23 656.713 118.696 657.222 119.294 657.586C119.891 657.941 120.572 658.118 121.338 658.118C122.084 658.118 122.724 657.936 123.256 657.572C123.797 657.208 124.198 656.723 124.46 656.116L125.51 656.578C125.342 657.007 125.062 657.423 124.67 657.824C124.287 658.216 123.811 658.538 123.242 658.79C122.682 659.042 122.047 659.168 121.338 659.168ZM127.515 659V648.57H131.099C131.781 648.57 132.378 648.705 132.891 648.976C133.405 649.237 133.801 649.611 134.081 650.096C134.371 650.572 134.515 651.127 134.515 651.762C134.515 652.397 134.371 652.952 134.081 653.428C133.801 653.904 133.405 654.277 132.891 654.548C132.387 654.809 131.79 654.94 131.099 654.94H128.635V659H127.515ZM128.635 653.89H131.155C131.603 653.89 131.995 653.806 132.331 653.638C132.667 653.461 132.929 653.213 133.115 652.896C133.302 652.569 133.395 652.187 133.395 651.748C133.395 651.309 133.302 650.931 133.115 650.614C132.929 650.297 132.667 650.054 132.331 649.886C131.995 649.709 131.603 649.62 131.155 649.62H128.635V653.89ZM136.511 659V648.57H142.951V649.62H137.631V653.246H142.531V654.296H137.631V659H136.511Z" fill="#E5E5E5"></path>
</g>
</g>
<path d="M43 629V630H350V629V628H43V629ZM358 637H357V669H358H359V637H358ZM350 677V676H43V677V678H350V677ZM35 669H36V637H35H34V669H35ZM43 677V676C39.134 676 36 672.866 36 669H35H34C34 673.971 38.0294 678 43 678V677ZM358 669H357C357 672.866 353.866 676 350 676V677V678C354.971 678 359 673.971 359 669H358ZM350 629V630C353.866 630 357 633.134 357 637H358H359C359 632.029 354.971 628 350 628V629ZM43 629V628C38.0294 628 34 632.029 34 637H35H36C36 633.134 39.134 630 43 630V629Z" fill="#E5E5E5" mask="url(#path-12-inside-1_28_1466)"></path>
<path d="M35 717C35 712.582 38.5817 709 43 709H350C354.418 709 358 712.582 358 717V749C358 753.418 354.418 757 350 757H43C38.5817 757 35 753.418 35 749V717Z" fill="#C7EF66"></path>
<path d="M161.812 739V727.832H166.98C167.897 727.832 168.617 728.093 169.14 728.616C169.673 729.139 169.94 729.832 169.94 730.696C169.94 731.261 169.844 731.715 169.652 732.056C169.46 732.397 169.209 732.648 168.9 732.808C168.601 732.968 168.281 733.064 167.94 733.096V733.192C168.185 733.192 168.447 733.24 168.724 733.336C169.001 733.432 169.263 733.581 169.508 733.784C169.764 733.987 169.967 734.253 170.116 734.584C170.276 734.915 170.356 735.32 170.356 735.8C170.356 736.397 170.228 736.936 169.972 737.416C169.727 737.896 169.385 738.28 168.948 738.568C168.521 738.856 168.031 739 167.476 739H161.812ZM163.924 734.216V737.208H166.868C167.135 737.208 167.364 737.16 167.556 737.064C167.748 736.968 167.892 736.829 167.988 736.648C168.095 736.467 168.148 736.248 168.148 735.992V735.448C168.148 735.181 168.095 734.957 167.988 734.776C167.892 734.595 167.748 734.456 167.556 734.36C167.364 734.264 167.135 734.216 166.868 734.216H163.924ZM163.924 729.624V732.488H166.532C166.788 732.488 167.007 732.44 167.188 732.344C167.369 732.248 167.508 732.115 167.604 731.944C167.7 731.763 167.748 731.549 167.748 731.304V730.808C167.748 730.563 167.7 730.349 167.604 730.168C167.508 729.987 167.369 729.853 167.188 729.768C167.007 729.672 166.788 729.624 166.532 729.624H163.924ZM177.285 739V737.608H177.205C177.067 738.024 176.816 738.392 176.453 738.712C176.091 739.032 175.563 739.192 174.869 739.192C174.016 739.192 173.355 738.909 172.885 738.344C172.427 737.768 172.197 736.963 172.197 735.928V730.648H174.245V735.72C174.245 736.296 174.357 736.739 174.581 737.048C174.805 737.347 175.163 737.496 175.653 737.496C175.92 737.496 176.176 737.448 176.421 737.352C176.677 737.256 176.885 737.112 177.045 736.92C177.205 736.717 177.285 736.467 177.285 736.168V730.648H179.333V739H177.285ZM184.436 739.192C183.636 739.192 182.964 739.059 182.42 738.792C181.876 738.515 181.396 738.136 180.98 737.656L182.228 736.44C182.537 736.792 182.873 737.069 183.236 737.272C183.609 737.475 184.036 737.576 184.516 737.576C185.006 737.576 185.358 737.491 185.572 737.32C185.796 737.149 185.908 736.915 185.908 736.616C185.908 736.371 185.828 736.179 185.668 736.04C185.518 735.891 185.257 735.789 184.884 735.736L184.052 735.624C183.454 735.549 182.948 735.411 182.532 735.208C182.116 735.005 181.801 734.728 181.588 734.376C181.374 734.024 181.268 733.597 181.268 733.096C181.268 732.285 181.556 731.645 182.132 731.176C182.718 730.696 183.486 730.456 184.436 730.456C184.98 730.456 185.444 730.509 185.828 730.616C186.222 730.712 186.569 730.861 186.868 731.064C187.166 731.256 187.444 731.491 187.7 731.768L186.5 732.968C186.254 732.712 185.961 732.499 185.62 732.328C185.278 732.157 184.905 732.072 184.5 732.072C184.073 732.072 183.753 732.152 183.54 732.312C183.337 732.461 183.236 732.669 183.236 732.936C183.236 733.213 183.316 733.427 183.476 733.576C183.646 733.715 183.929 733.816 184.324 733.88L185.172 733.992C186.089 734.12 186.766 734.392 187.204 734.808C187.652 735.213 187.876 735.763 187.876 736.456C187.876 736.989 187.732 737.464 187.444 737.88C187.166 738.296 186.766 738.621 186.244 738.856C185.732 739.08 185.129 739.192 184.436 739.192ZM192.98 739.192C191.743 739.192 190.788 738.797 190.116 738.008C189.455 737.219 189.124 736.152 189.124 734.808C189.124 733.475 189.455 732.419 190.116 731.64C190.788 730.851 191.743 730.456 192.98 730.456C193.823 730.456 194.516 730.643 195.06 731.016C195.615 731.389 196.015 731.907 196.26 732.568L194.58 733.32C194.484 732.968 194.303 732.68 194.036 732.456C193.769 732.221 193.417 732.104 192.98 732.104C192.415 732.104 191.988 732.285 191.7 732.648C191.412 733 191.268 733.475 191.268 734.072V735.592C191.268 736.168 191.412 736.637 191.7 737C191.988 737.363 192.415 737.544 192.98 737.544C193.46 737.544 193.833 737.421 194.1 737.176C194.377 736.92 194.591 736.605 194.74 736.232L196.308 736.984C196.041 737.72 195.62 738.275 195.044 738.648C194.479 739.011 193.791 739.192 192.98 739.192ZM205.167 739H204.031C203.722 739 203.444 738.931 203.199 738.792C202.964 738.643 202.778 738.429 202.639 738.152C202.511 737.875 202.447 737.549 202.447 737.176V737L202.959 737.56H202.383C202.244 738.093 201.956 738.499 201.519 738.776C201.092 739.053 200.57 739.192 199.951 739.192C199.098 739.192 198.442 738.968 197.983 738.52C197.524 738.061 197.295 737.464 197.295 736.728C197.295 736.152 197.434 735.677 197.711 735.304C197.999 734.931 198.41 734.648 198.943 734.456C199.476 734.264 200.116 734.168 200.863 734.168H202.287V733.56C202.287 733.101 202.164 732.744 201.919 732.488C201.674 732.221 201.279 732.088 200.735 732.088C200.255 732.088 199.866 732.195 199.567 732.408C199.279 732.611 199.034 732.856 198.831 733.144L197.615 732.056C197.924 731.576 198.335 731.192 198.847 730.904C199.359 730.605 200.036 730.456 200.879 730.456C201.999 730.456 202.852 730.717 203.439 731.24C204.036 731.752 204.335 732.483 204.335 733.432V737.368H205.167V739ZM202.287 735.4H200.975C200.442 735.4 200.042 735.491 199.775 735.672C199.508 735.843 199.375 736.093 199.375 736.424V736.696C199.375 737.027 199.487 737.277 199.711 737.448C199.935 737.619 200.244 737.704 200.639 737.704C200.948 737.704 201.226 737.661 201.471 737.576C201.716 737.48 201.914 737.341 202.063 737.16C202.212 736.979 202.287 736.76 202.287 736.504V735.4ZM208.873 739H206.825V730.648H208.873V732.376H208.953C209.027 732.077 209.15 731.8 209.321 731.544C209.502 731.277 209.742 731.064 210.041 730.904C210.35 730.733 210.723 730.648 211.161 730.648H211.609V732.584H210.969C210.51 732.584 210.121 732.632 209.801 732.728C209.491 732.813 209.257 732.952 209.097 733.144C208.947 733.325 208.873 733.571 208.873 733.88V739Z" fill="#1A1A1A"></path>
<path d="M230.667 728.333H227.667L231 733L227.667 737.667H230.667L234 733L230.667 728.333Z" fill="#1A1A1A"></path>
<path d="M226 728.333H223L226.333 733L223 737.667H226L229.333 733L226 728.333Z" fill="#1A1A1A"></path>
</g>
<defs>
<pattern id="pattern0_28_1466" patternContentUnits="objectBoundingBox" width="1" height="1">
<use xlink:href="#image0_28_1466" transform="matrix(0.000833333 0 0 0.000674764 0 -0.25641)"></use>
</pattern>
<clipPath id="clip0_28_1466">
<rect width="393" height="852" fill="white"></rect>
</clipPath>
<clipPath id="clip1_28_1466">
<path d="M35 637C35 632.582 38.5817 629 43 629H350C354.418 629 358 632.582 358 637V669C358 673.418 354.418 677 350 677H43C38.5817 677 35 673.418 35 669V637Z" fill="white"></path>
</clipPath>
<clipPath id="clip2_28_1466">
<rect width="335" height="20" fill="white" transform="translate(47 643)"></rect>
</clipPath>
<image id="image0_28_1466" width="1200" height="2130" preserveAspectRatio="none"></image>
</defs>
</svg>