<svg width="393" height="852" viewBox="0 0 393 852" fill="none" xmlns="http://www.w3.org/2000/svg">
<rect width="393" height="852" fill="#C7EF66"></rect>
<path d="M38.8672 35.2122C41.5552 35.2122 43.1519 33.1101 43.1519 29.5505C43.1519 28.2102 42.8955 27.0823 42.4048 26.2107C41.6943 24.8557 40.4712 24.1233 38.9258 24.1233C36.626 24.1233 35 25.6687 35 27.8367C35 29.8728 36.4648 31.3523 38.479 31.3523C39.7168 31.3523 40.7202 30.7737 41.2183 29.7703H41.2402C41.2402 29.7703 41.2695 29.7703 41.2769 29.7703C41.2915 29.7703 41.3428 29.7703 41.3428 29.7703C41.3428 32.1873 40.4272 33.6301 38.8818 33.6301C37.9736 33.6301 37.2705 33.1321 37.0288 32.3337H35.1465C35.4614 34.0696 36.9336 35.2122 38.8672 35.2122ZM38.9331 29.8508C37.7173 29.8508 36.853 28.9866 36.853 27.7781C36.853 26.5989 37.7612 25.698 38.9404 25.698C40.1196 25.698 41.0278 26.6135 41.0278 27.8074C41.0278 28.9866 40.1416 29.8508 38.9331 29.8508Z" fill="black"></path>
<path d="M46.243 35.1096C46.9388 35.1096 47.4148 34.6116 47.4148 33.9524C47.4148 33.2859 46.9388 32.7952 46.243 32.7952C45.5545 32.7952 45.0711 33.2859 45.0711 33.9524C45.0711 34.6116 45.5545 35.1096 46.243 35.1096ZM46.243 29.6165C46.9388 29.6165 47.4148 29.1257 47.4148 28.4666C47.4148 27.8 46.9388 27.3093 46.243 27.3093C45.5545 27.3093 45.0711 27.8 45.0711 28.4666C45.0711 29.1257 45.5545 29.6165 46.243 29.6165Z" fill="black"></path>
<path d="M54.2706 34.9558H56.0797V32.9856H57.5079V31.3889H56.0797V24.387H53.4137C51.546 27.1995 50.0592 29.5505 49.107 31.301V32.9856H54.2706V34.9558ZM50.8575 31.323C52.088 29.155 53.1866 27.4192 54.1974 25.925H54.2999V31.4329H50.8575V31.323Z" fill="black"></path>
<path d="M61.5365 34.9558H63.4262V24.387H61.5438L58.7826 26.3206V28.137L61.412 26.2913H61.5365V34.9558Z" fill="black"></path>
<path opacity="0.35" d="M336.339 24.5027H353.005C354.201 24.5027 355.172 25.4731 355.172 26.6697V32.6697C355.172 33.8661 354.201 34.8357 353.005 34.8357H336.339C335.142 34.8357 334.172 33.8661 334.172 32.6697V26.6697L334.183 26.448C334.293 25.3553 335.217 24.5027 336.339 24.5027Z" stroke="black"></path>
<path opacity="0.4" d="M356.672 27.6694V31.6694C357.477 31.3307 358 30.5426 358 29.6694C358 28.7963 357.477 28.0082 356.672 27.6694Z" fill="black"></path>
<path d="M335.672 27.336C335.672 26.5996 336.269 26.0027 337.005 26.0027H352.339C353.075 26.0027 353.672 26.5996 353.672 27.336V32.0027C353.672 32.7391 353.075 33.336 352.339 33.336H337.005C336.269 33.336 335.672 32.7391 335.672 32.0027V27.336Z" fill="black"></path>
<path d="M318.793 32.4007C320.069 31.3219 321.936 31.3219 323.212 32.4007C323.276 32.4587 323.314 32.54 323.315 32.6263C323.317 32.7127 323.283 32.7962 323.222 32.8568L321.224 34.8734C321.165 34.9324 321.085 34.9652 321.002 34.9652C320.919 34.9651 320.839 34.9325 320.78 34.8734L318.783 32.8568C318.722 32.7962 318.688 32.7128 318.689 32.6263C318.691 32.54 318.729 32.4586 318.793 32.4007ZM316.127 29.7113C318.875 27.1549 323.132 27.1549 325.88 29.7113C325.942 29.7712 325.978 29.8536 325.979 29.9398C325.979 30.026 325.945 30.1091 325.885 30.1703L324.729 31.3373C324.61 31.4561 324.419 31.458 324.297 31.3421C323.394 30.5249 322.219 30.0725 321.002 30.0726C319.786 30.0732 318.613 30.5258 317.711 31.3421C317.589 31.4581 317.396 31.4563 317.277 31.3373L316.123 30.1703C316.062 30.1092 316.028 30.0261 316.029 29.9398C316.03 29.8536 316.065 29.7712 316.127 29.7113ZM313.462 27.0296C317.677 22.9901 324.327 22.9901 328.542 27.0296C328.603 27.0897 328.637 27.1716 328.638 27.2572C328.638 27.3427 328.605 27.425 328.545 27.4857L327.389 28.6527C327.27 28.7722 327.076 28.7734 326.955 28.6556C325.349 27.1289 323.218 26.2778 321.002 26.2777C318.786 26.2778 316.655 27.1289 315.049 28.6556C314.928 28.7736 314.734 28.7725 314.615 28.6527L313.459 27.4857C313.399 27.425 313.366 27.3427 313.366 27.2572C313.367 27.1717 313.401 27.0896 313.462 27.0296Z" fill="black"></path>
<path d="M293.338 31.0029C293.89 31.0029 294.338 31.4506 294.338 32.0029V34.0029C294.338 34.5551 293.89 35.0029 293.338 35.0029H292.338C291.786 35.0027 291.338 34.5549 291.338 34.0029V32.0029C291.338 31.4508 291.786 31.0032 292.338 31.0029H293.338ZM298.005 29.0029C298.557 29.0029 299.005 29.4506 299.005 30.0029V34.0029C299.005 34.5551 298.557 35.0029 298.005 35.0029H297.005C296.453 35.0029 296.005 34.555 296.005 34.0029V30.0029C296.005 29.4507 296.453 29.003 297.005 29.0029H298.005ZM302.672 26.6689C303.224 26.6691 303.672 27.1169 303.672 27.6689V34.0029C303.672 34.555 303.224 35.0028 302.672 35.0029H301.672C301.12 35.0029 300.672 34.5551 300.672 34.0029V27.6689C300.672 27.1168 301.12 26.6689 301.672 26.6689H302.672ZM307.338 24.3359C307.89 24.3359 308.338 24.7837 308.338 25.3359V34.0029C308.338 34.5551 307.89 35.0029 307.338 35.0029H306.338C305.786 35.0027 305.338 34.5549 305.338 34.0029V25.3359C305.338 24.7838 305.786 24.3362 306.338 24.3359H307.338Z" fill="black"></path>
<path d="M99.6855 473.546C97.5032 473.546 95.4422 473.167 93.5024 472.409C91.593 471.651 89.8957 470.56 88.4105 469.136C86.9557 467.711 85.804 465.999 84.9553 463.998C84.1067 461.998 83.6823 459.755 83.6823 457.27C83.6823 454.693 84.137 452.284 85.0462 450.041C85.9858 447.768 87.274 445.783 88.9106 444.085C90.5776 442.358 92.5174 441.009 94.73 440.039C96.9728 439.069 99.4127 438.584 102.05 438.584C104.474 438.584 106.641 438.993 108.551 439.812C110.46 440.63 112.052 441.721 113.324 443.085C114.597 444.449 115.461 445.964 115.916 447.631L109.46 450.632C108.975 448.995 108.051 447.647 106.687 446.586C105.353 445.495 103.626 444.949 101.504 444.949C99.9279 444.949 98.4883 445.252 97.185 445.858C95.8817 446.465 94.7451 447.313 93.7752 448.404C92.8053 449.495 92.0476 450.768 91.502 452.223C90.9868 453.678 90.7292 455.254 90.7292 456.951C90.7292 459.012 91.1232 460.816 91.9112 462.362C92.6993 463.907 93.8055 465.105 95.23 465.953C96.6546 466.772 98.3064 467.181 100.186 467.181C101.762 467.181 103.216 466.893 104.55 466.317C105.884 465.711 106.99 464.847 107.869 463.725C108.748 462.604 109.278 461.255 109.46 459.679L109.824 456.86L112.87 459.588H100.595L101.004 453.678H117.143L116.734 458.179C116.492 460.755 115.855 463.013 114.825 464.953C113.794 466.862 112.491 468.454 110.915 469.727C109.339 471 107.581 471.954 105.641 472.591C103.732 473.227 101.746 473.546 99.6855 473.546ZM131.582 473.546C129.067 473.546 126.884 473.015 125.036 471.954C123.187 470.863 121.762 469.393 120.762 467.544C119.792 465.696 119.307 463.65 119.307 461.407C119.307 459.497 119.641 457.724 120.307 456.088C120.974 454.421 121.914 452.951 123.126 451.678C124.338 450.405 125.748 449.42 127.354 448.723C128.961 447.995 130.703 447.631 132.583 447.631C135.098 447.631 137.22 448.132 138.947 449.132C140.675 450.102 141.978 451.435 142.857 453.132C143.767 454.83 144.221 456.754 144.221 458.906C144.221 459.482 144.176 460.058 144.085 460.634C143.994 461.21 143.873 461.831 143.721 462.498H125.081L125.445 457.497H140.175L136.765 459.77C137.159 458.497 137.235 457.361 136.992 456.36C136.75 455.36 136.235 454.572 135.447 453.996C134.689 453.39 133.719 453.087 132.537 453.087C130.991 453.087 129.764 453.481 128.855 454.269C127.945 455.057 127.278 456.103 126.854 457.406C126.46 458.709 126.263 460.149 126.263 461.725C126.263 462.968 126.475 464.044 126.9 464.953C127.324 465.832 127.945 466.499 128.764 466.953C129.582 467.408 130.567 467.635 131.719 467.635C132.961 467.635 134.052 467.378 134.992 466.862C135.932 466.347 136.659 465.665 137.174 464.817L142.539 467.59C141.963 468.802 141.13 469.863 140.039 470.772C138.947 471.651 137.674 472.333 136.22 472.818C134.795 473.303 133.249 473.546 131.582 473.546ZM158.157 473.273C155.096 473.273 152.823 472.439 151.338 470.772C149.853 469.075 149.307 466.772 149.701 463.862L151.065 454.087H146.883L147.701 448.177H147.792C149.065 448.177 150.11 447.828 150.929 447.131C151.777 446.434 152.293 445.449 152.475 444.176L152.702 442.54H159.612L158.794 448.177H164.522L163.704 454.087H157.976L156.612 463.771C156.49 464.62 156.521 465.317 156.703 465.862C156.884 466.377 157.233 466.756 157.748 466.999C158.294 467.241 159.021 467.363 159.931 467.363C160.203 467.363 160.461 467.363 160.703 467.363C160.976 467.332 161.31 467.287 161.704 467.226L161.204 473C160.749 473.121 160.234 473.197 159.658 473.227C159.112 473.258 158.612 473.273 158.157 473.273ZM173.91 473L178.638 439.13H191.141C193.323 439.13 195.233 439.524 196.869 440.312C198.506 441.07 199.779 442.206 200.688 443.722C201.628 445.237 202.097 447.116 202.097 449.359C202.097 450.965 201.81 452.451 201.234 453.814C200.688 455.178 199.885 456.36 198.824 457.361C197.794 458.361 196.536 459.149 195.051 459.725L200.734 473H193.232L186.913 457.906L191.141 460.725H182.685L180.957 473H173.91ZM183.548 454.587H189.595C190.656 454.587 191.58 454.36 192.368 453.905C193.187 453.451 193.823 452.829 194.278 452.041C194.763 451.253 195.005 450.359 195.005 449.359C195.005 448.116 194.596 447.131 193.778 446.404C192.99 445.646 191.914 445.267 190.55 445.267H184.821L183.548 454.587ZM215.894 473.546C213.378 473.546 211.196 473.015 209.347 471.954C207.498 470.863 206.074 469.393 205.074 467.544C204.104 465.696 203.619 463.65 203.619 461.407C203.619 459.497 203.952 457.724 204.619 456.088C205.286 454.421 206.225 452.951 207.438 451.678C208.65 450.405 210.059 449.42 211.666 448.723C213.272 447.995 215.015 447.631 216.894 447.631C219.41 447.631 221.531 448.132 223.259 449.132C224.987 450.102 226.29 451.435 227.169 453.132C228.078 454.83 228.533 456.754 228.533 458.906C228.533 459.482 228.487 460.058 228.396 460.634C228.305 461.21 228.184 461.831 228.033 462.498H209.393L209.756 457.497H224.486L221.077 459.77C221.471 458.497 221.546 457.361 221.304 456.36C221.062 455.36 220.546 454.572 219.758 453.996C219.001 453.39 218.031 453.087 216.849 453.087C215.303 453.087 214.075 453.481 213.166 454.269C212.257 455.057 211.59 456.103 211.166 457.406C210.772 458.709 210.575 460.149 210.575 461.725C210.575 462.968 210.787 464.044 211.211 464.953C211.635 465.832 212.257 466.499 213.075 466.953C213.893 467.408 214.879 467.635 216.03 467.635C217.273 467.635 218.364 467.378 219.304 466.862C220.243 466.347 220.971 465.665 221.486 464.817L226.851 467.59C226.275 468.802 225.441 469.863 224.35 470.772C223.259 471.651 221.986 472.333 220.531 472.818C219.107 473.303 217.561 473.546 215.894 473.546ZM238.912 473.546C237.245 473.546 235.79 473.288 234.548 472.773C233.305 472.257 232.335 471.5 231.638 470.5C230.971 469.469 230.638 468.226 230.638 466.772C230.638 465.135 231.047 463.756 231.865 462.634C232.714 461.483 233.851 460.558 235.275 459.861C236.73 459.164 238.367 458.679 240.185 458.406L248.005 457.179L247.505 462.18L241.14 463.362C240.2 463.544 239.382 463.877 238.685 464.362C238.018 464.817 237.685 465.483 237.685 466.362C237.685 467.12 237.957 467.681 238.503 468.044C239.049 468.378 239.746 468.545 240.594 468.545C241.716 468.545 242.701 468.287 243.549 467.772C244.428 467.256 245.141 466.575 245.686 465.726C246.262 464.877 246.611 463.953 246.732 462.953L247.596 456.633C247.687 455.936 247.565 455.345 247.232 454.86C246.899 454.375 246.429 453.996 245.823 453.724C245.216 453.451 244.55 453.314 243.822 453.314C242.519 453.314 241.352 453.678 240.322 454.405C239.291 455.103 238.518 455.997 238.003 457.088L232.729 454.224C233.366 452.829 234.26 451.647 235.412 450.677C236.563 449.708 237.897 448.965 239.412 448.45C240.928 447.904 242.534 447.631 244.231 447.631C246.323 447.631 248.172 448.025 249.778 448.813C251.415 449.601 252.657 450.693 253.506 452.087C254.385 453.481 254.688 455.103 254.415 456.951L252.188 473H245.777L246.323 468.999L248.141 468.863C247.293 469.954 246.398 470.848 245.459 471.545C244.519 472.242 243.504 472.742 242.413 473.045C241.352 473.379 240.185 473.546 238.912 473.546ZM269.828 473.546C267.464 473.546 265.387 473.045 263.599 472.045C261.811 471.045 260.417 469.666 259.417 467.908C258.416 466.12 257.916 464.074 257.916 461.771C257.916 459.619 258.28 457.679 259.007 455.951C259.765 454.224 260.78 452.738 262.053 451.496C263.357 450.253 264.842 449.298 266.509 448.632C268.206 447.965 269.979 447.631 271.828 447.631C273.707 447.631 275.359 447.995 276.784 448.723C278.208 449.42 279.314 450.39 280.102 451.632L278.557 452.905L280.512 438.584H287.422L282.603 473H276.193L276.784 468.454L278.238 469.499C277.329 470.863 276.117 471.879 274.601 472.545C273.116 473.212 271.525 473.546 269.828 473.546ZM270.828 467.408C272.222 467.408 273.434 467.075 274.465 466.408C275.495 465.711 276.299 464.786 276.874 463.635C277.45 462.483 277.738 461.195 277.738 459.77C277.738 458.618 277.496 457.588 277.011 456.679C276.556 455.769 275.905 455.057 275.056 454.542C274.238 454.027 273.253 453.769 272.101 453.769C270.737 453.769 269.509 454.102 268.418 454.769C267.357 455.436 266.524 456.345 265.918 457.497C265.312 458.618 265.009 459.907 265.009 461.361C265.009 462.543 265.251 463.589 265.736 464.498C266.221 465.408 266.903 466.12 267.782 466.635C268.661 467.15 269.676 467.408 270.828 467.408ZM290.284 483.093C289.465 483.093 288.723 483.017 288.056 482.866C287.389 482.714 286.813 482.502 286.328 482.229L286.738 476.773C287.162 476.895 287.647 476.986 288.192 477.046C288.738 477.137 289.208 477.183 289.602 477.183C290.45 477.183 291.163 477.016 291.739 476.683C292.345 476.349 292.86 475.925 293.284 475.41C293.709 474.894 294.087 474.379 294.421 473.864L296.694 470.181L296.058 475.864L289.056 448.177H296.058L300.513 467.863H297.74L307.742 448.177H315.425L300.922 475.5C300.013 477.228 299.013 478.653 297.922 479.774C296.83 480.895 295.648 481.729 294.375 482.275C293.102 482.82 291.739 483.093 290.284 483.093Z" fill="black"></path>
</svg>